<svg version="1.2" xmlns="http://www.w3.org/2000/svg" viewBox="0 0 1000 1000" width="1000" height="1000">
	<title>9019827</title>
	<style>
		.s0 { fill: #f5f5f5 } 
		.s1 { fill: #e0e0e0 } 
		.s2 { fill: #ebebeb } 
		.s3 { fill: #263238 } 
		.s4 { fill: #ffffff } 
		.s5 { fill: #455a64 } 
		.s6 { fill: #000000 } 
		.s7 { fill: #ff725e } 
		.s8 { fill: #ffbf9d } 
		.s9 { fill: #ff9a6c } 
	</style>
	<g id="Background Complete">
		<g id="&lt;Group&gt;">
			<g id="&lt;Group&gt;">
				<g id="&lt;Group&gt;">
					<path id="&lt;Path&gt;" class="s0" d="m765.8 170.7c-23.9 51.7-1.4 112.9 50.3 136.8 51.7 23.9 112.9 1.4 136.8-50.2 23.9-51.7 1.4-113-50.2-136.9-51.7-23.9-113-1.4-136.9 50.3z"/>
				</g>
				<g id="&lt;Group&gt;">
					<path id="&lt;Path&gt;" class="s1" d="m896.9 212c-3.2 6.8-1.6 14.3 3.6 16.7 5.2 2.4 11.9-1.2 15.1-8.1 3.1-6.8 1.5-14.2-3.7-16.6-5.1-2.4-11.9 1.2-15 8z"/>
				</g>
				<g id="&lt;Group&gt;">
					<path id="&lt;Path&gt;" class="s1" d="m819.1 176c-3.1 6.8-1.5 14.3 3.6 16.7 5.2 2.4 12-1.2 15.1-8 3.2-6.8 1.5-14.3-3.6-16.7-5.2-2.4-11.9 1.2-15.1 8z"/>
				</g>
			</g>
			<g id="&lt;Group&gt;">
				<g id="&lt;Group&gt;">
					<path id="&lt;Path&gt;" class="s1" d="m826 201.4c-8.7 18.9-1.4 41 16.4 49.2 17.9 8.3 39.4-0.4 48.2-19.3z"/>
				</g>
				<g id="&lt;Group&gt;">
					<path id="&lt;Path&gt;" class="s2" d="m828 237.8c0 0 10.1-5.2 20.5-0.3 10.5 4.8 13.1 15.9 13.1 15.9 0 0-20.4 3.1-33.6-15.6z"/>
				</g>
			</g>
		</g>
		<g id="&lt;Group&gt;">
			<g id="&lt;Group&gt;">
				<path id="&lt;Path&gt;" class="s0" d="m293.5 304h-219.5c-8.1 0-14.6-6.6-14.6-14.6v-60.4c0-8.1 6.5-14.6 14.6-14.6h219.5c8.1 0 14.7 6.5 14.7 14.6v60.4c0 8-6.6 14.6-14.7 14.6z"/>
			</g>
			<g id="&lt;Group&gt;">
				<path id="&lt;Path&gt;" class="s1" d="m118.2 258.7c0 9.1-7.3 16.4-16.4 16.4-9 0-16.3-7.3-16.3-16.4 0-9 7.3-16.3 16.3-16.3 9.1 0 16.4 7.3 16.4 16.3z"/>
			</g>
			<g id="&lt;Group&gt;">
				<path id="&lt;Path&gt;" class="s1" d="m258.9 258.7h-129.4v-7.6h129.4z"/>
			</g>
			<g id="&lt;Group&gt;">
				<path id="&lt;Path&gt;" class="s1" d="m181.8 272.1h-52.3v-7.6h52.3z"/>
			</g>
		</g>
		<g id="&lt;Group&gt;">
			<g id="&lt;Group&gt;">
				<path id="&lt;Path&gt;" class="s0" d="m904.3 577.8h-219.5c-8.1 0-14.6-6.5-14.6-14.6v-60.4c0-8.1 6.5-14.6 14.6-14.6h219.5c8.1 0 14.6 6.5 14.6 14.6v60.4c0 8.1-6.5 14.6-14.6 14.6z"/>
			</g>
			<g id="&lt;Group&gt;">
				<path id="&lt;Path&gt;" class="s1" d="m728.9 532.5c0 9.1-7.3 16.4-16.3 16.4-9.1 0-16.4-7.3-16.4-16.4 0-9 7.3-16.3 16.4-16.3 9 0 16.3 7.3 16.3 16.3z"/>
			</g>
			<g id="&lt;Group&gt;">
				<path id="&lt;Path&gt;" class="s1" d="m869.7 532.5h-129.4v-7.6h129.4z"/>
			</g>
			<g id="&lt;Group&gt;">
				<path id="&lt;Path&gt;" class="s1" d="m792.5 546h-52.2v-7.6h52.2z"/>
			</g>
		</g>
		<g id="&lt;Group&gt;">
			<path id="&lt;Path&gt;" class="s1" d="m78.4 537.2l12.4 6.3c1.4 0.8 3 0.8 4.4 0l12.3-6.6c3.5-1.8 7.6 1.1 6.9 5l-2.2 13.7c-0.3 1.6 0.3 3.1 1.4 4.2l10 9.6c2.9 2.8 1.4 7.6-2.5 8.2l-13.8 2.1c-1.5 0.2-2.9 1.2-3.5 2.6l-6.1 12.5c-1.7 3.6-6.7 3.6-8.5 0.1l-6.3-12.4c-0.7-1.4-2-2.4-3.6-2.6l-13.8-1.9c-3.9-0.5-5.5-5.3-2.7-8l9.9-9.8c1.1-1.1 1.6-2.7 1.3-4.3l-2.4-13.7c-0.7-3.8 3.3-6.8 6.8-5z"/>
		</g>
		<g id="&lt;Group&gt;">
			<path id="&lt;Path&gt;" class="s1" d="m672.4 298.1l5.8 5.7c0.7 0.6 1.6 0.9 2.5 0.7l8.1-1.6c2.2-0.5 4 1.9 3 4l-3.6 7.3c-0.4 0.8-0.3 1.8 0.1 2.6l4 7.1c1.2 2.1-0.5 4.5-2.8 4.2l-8.1-1.2c-0.9-0.1-1.8 0.2-2.4 0.9l-5.6 6c-1.5 1.7-4.4 0.9-4.8-1.4l-1.4-8c-0.2-0.9-0.8-1.7-1.6-2.1l-7.4-3.4c-2.1-1-2.2-3.9-0.2-5l7.2-3.8c0.9-0.5 1.4-1.3 1.5-2.2l1-8.1c0.2-2.3 3-3.3 4.7-1.7z"/>
		</g>
		<g id="&lt;Group&gt;">
			<path id="&lt;Path&gt;" class="s1" d="m144 92.9l8.9 8.6c1 1 2.5 1.4 3.8 1.1l12.2-2.4c3.5-0.7 6.2 2.8 4.7 6l-5.5 11.2c-0.6 1.2-0.5 2.7 0.2 3.9l6.1 10.9c1.7 3-0.8 6.8-4.3 6.3l-12.4-1.8c-1.3-0.2-2.7 0.3-3.7 1.4l-8.4 9.1c-2.4 2.6-6.7 1.3-7.3-2.1l-2.2-12.3c-0.2-1.4-1.1-2.5-2.4-3.1l-11.3-5.2c-3.2-1.5-3.3-6-0.2-7.6l11-5.8c1.2-0.7 2-1.9 2.2-3.3l1.4-12.4c0.4-3.5 4.7-5 7.2-2.5z"/>
		</g>
	</g>
	<g id="Floor">
		<g id="&lt;Group&gt;">
			<g id="&lt;Group&gt;">
				<path id="&lt;Path&gt;" class="s3" d="m916.9 888.9c0 0.3-192.1 0.5-428.9 0.5-236.9 0-428.9-0.2-428.9-0.5 0-0.3 192-0.6 428.9-0.6 236.8 0 428.9 0.3 428.9 0.6z"/>
			</g>
		</g>
	</g>
	<g id="Device">
		<g id="&lt;Group&gt;">
			<g id="&lt;Group&gt;">
				<g id="&lt;Group&gt;">
					<g id="&lt;Group&gt;">
						<g id="&lt;Group&gt;">
							<g id="&lt;Group&gt;">
								<g id="&lt;Group&gt;">
									<path id="&lt;Path&gt;" class="s3" d="m553.2 98.4l-283.9-0.2c-34.2 0-61.9 26.8-61.9 60l-0.1 690.4c-0.1 33.1 27.6 59.9 61.8 60l283.9 0.1c34.2 0 61.9-26.8 61.9-60l0.2-690.3c0-33.2-27.7-60-61.9-60z"/>
								</g>
							</g>
							<g id="&lt;Group&gt;">
								<g id="&lt;Group&gt;">
									<path id="&lt;Path&gt;" class="s4" d="m552.9 122.8h-55l-160.8-0.1h-19.4l-48.2-0.1c-23.9 0-43.3 19-43.3 42.5l-0.1 681.1c0 23.5 19.3 42.5 43.3 42.5l283.4 0.2c23.9 0 43.3-19 43.3-42.5l0.1-681.1c0-23.5-19.3-42.5-43.3-42.5z"/>
								</g>
								<g id="&lt;Group&gt;">
									<g id="&lt;Group&gt;">
										<path id="&lt;Path&gt;" class="s3" d="m552.9 122.8q0 0 1.5 0 0.7 0.1 1.7 0.1c0.8 0 1.6 0.1 2.5 0.2q1.4 0.2 3.1 0.5 1.7 0.4 3.8 0.9c1.3 0.4 2.7 1 4.2 1.5 1.5 0.7 3.1 1.4 4.7 2.3 3.2 1.7 6.5 4.2 9.7 7.4 3.3 3.2 6.2 7.3 8.5 12.1 2.2 4.9 3.7 10.6 3.8 16.8q0 9.3 0 19.7c0.1 55.6 0.1 136.1 0.2 235.6 0 99.5 0 217.9 0 349.4q0 24.7 0 49.9 0 12.6 0 25.4c0 2.1-0.1 4.3-0.3 6.4-0.3 2.2-0.6 4.3-1.2 6.4-1.1 4.2-2.9 8.2-5.3 11.9-4.6 7.3-11.7 13.1-19.7 16.6-4.1 1.6-8.4 2.7-12.8 3.2-4.4 0.4-8.8 0.2-13.2 0.3q-26.3 0-53.2-0.1c-71.5 0-145.6 0-221.5-0.1-9.6-0.1-19.2-3.1-26.7-8.9-3.8-2.9-7.2-6.4-9.9-10.3-2.6-4-4.6-8.4-5.8-12.9-0.7-2.3-1-4.7-1.3-7l-0.1-3.6-0.1-3.5q0-7 0.1-14 0-13.9 0-27.8c0-36.9 0-73.4 0-109.1 0-71.6 0-140.7 0.1-206.4 0-65.8 0-128.3 0-186.7 0.1-29.3 0.1-57.5 0.1-84.7q0-20.3 0-39.9 0-4.8 0-9.7c0.1-3.2 0.5-6.4 1.3-9.6 1.5-6.2 4.4-12 8.4-16.8 7.9-9.8 20-15.4 31.9-15.9 11.8-0.2 23.3-0.1 34.5-0.1 22.4 0 43.6 0.1 63.3 0.1 39.5 0 73.5 0.1 101.4 0.1 27.8 0.1 49.4 0.1 64 0.2 7.3 0 12.9 0 16.7 0 3.7 0.1 5.6 0.1 5.6 0.1 0 0-1.9 0-5.6 0-3.8 0-9.4 0.1-16.7 0.1-14.6 0-36.2 0-64 0-27.9 0.1-61.9 0.1-101.4 0.1-19.7 0-40.9 0-63.3 0-11.2 0-22.7-0.1-34.5 0.1-11.7 0.5-23.5 6-31.3 15.6-3.9 4.8-6.8 10.5-8.3 16.6-1.6 6.1-1.1 12.6-1.2 19.1q0 19.6 0 39.9c0 27.2 0 55.4 0 84.7 0 58.4 0 120.9 0 186.7 0 65.7 0 134.8 0 206.4 0 35.7 0 72.2 0 109.1q0 13.9 0 27.8 0 7 0 14v3.5l0.2 3.5c0.3 2.3 0.5 4.6 1.2 6.8 1.2 4.4 3.1 8.8 5.7 12.6 2.6 3.8 5.9 7.2 9.6 10 7.4 5.8 16.8 8.7 26.1 8.8 75.9 0 150 0.1 221.5 0.1q26.9 0 53.2 0.1c4.4-0.1 8.8 0.1 13.1-0.3 4.3-0.4 8.5-1.5 12.5-3.1 7.9-3.4 14.7-9.1 19.3-16.3 2.4-3.5 4-7.5 5.1-11.6 0.7-2 0.9-4.1 1.2-6.2 0.2-2.1 0.3-4.2 0.3-6.3q0-12.8 0-25.4 0-25.2 0-49.9c0.1-131.5 0.2-249.9 0.2-349.4 0.1-99.5 0.2-180 0.2-235.6q0-10.4 0-19.7c-0.1-6.1-1.5-11.8-3.7-16.6-2.2-4.9-5.1-9-8.3-12.1-3.2-3.2-6.5-5.7-9.7-7.4-1.6-1-3.2-1.6-4.7-2.3-1.5-0.6-2.9-1.1-4.2-1.5q-2-0.5-3.7-1-1.7-0.2-3.1-0.5c-0.9-0.1-1.8-0.2-2.5-0.2q-1-0.1-1.7-0.1-1.5-0.1-1.5-0.1z"/>
									</g>
								</g>
							</g>
						</g>
					</g>
				</g>
				<g id="&lt;Group&gt;">
					<g id="&lt;Group&gt;">
						<g id="&lt;Group&gt;">
							<path id="&lt;Path&gt;" class="s3" d="m212.2 284.7h-9.9c-1.5 0-2.7-1.2-2.7-2.7v-84.4c0-1.5 1.2-2.6 2.7-2.6h9.9c1.5 0 2.7 1.1 2.7 2.6v84.4c0 1.5-1.2 2.7-2.7 2.7z"/>
						</g>
					</g>
				</g>
				<g id="&lt;Group&gt;">
					<g id="&lt;Group&gt;">
						<g id="&lt;Group&gt;">
							<path id="&lt;Path&gt;" class="s3" d="m212.2 390.6h-9.9c-1.5 0-2.7-1.2-2.7-2.7v-84.3c0-1.5 1.2-2.7 2.7-2.7h9.9c1.5 0 2.7 1.2 2.7 2.7v84.3c0 1.5-1.2 2.7-2.7 2.7z"/>
						</g>
					</g>
				</g>
				<g id="&lt;Group&gt;">
					<g id="&lt;Group&gt;">
						<g id="&lt;Group&gt;">
							<path id="&lt;Path&gt;" class="s3" d="m620 423.2h-9.9c-1.5 0-2.7-1.2-2.7-2.7v-149.6c0-1.4 1.2-2.6 2.7-2.6h9.9c1.5 0 2.7 1.2 2.7 2.6v149.6c0 1.5-1.2 2.7-2.7 2.7z"/>
						</g>
					</g>
				</g>
			</g>
		</g>
	</g>
	<g id="Plant">
		<g id="&lt;Group&gt;">
			<g id="&lt;Group&gt;">
				<g id="&lt;Group&gt;">
					<g id="&lt;Group&gt;">
						<path id="&lt;Path&gt;" class="s5" d="m125.7 562.6c18.4 9.5 32.4 25.8 42.6 43.8 10.1 18.1 16.6 37.8 23.1 57.4l5.6 101.3c-21.3-36.3-38.5-79-43.1-120.9q7.1-0.6 14.2-1.3c-9.5-1.4-17.5-8.3-22.6-16.5-5.1-8.2-7.7-17.6-10.3-26.9q8.7 1.3 17.4 2.5c-13.6-9-23.4-23.5-26.9-39.4z"/>
					</g>
				</g>
			</g>
			<g id="&lt;Group&gt;" style="opacity: .4">
				<g id="&lt;Group&gt;">
					<g id="&lt;Group&gt;">
						<g id="&lt;Group&gt;">
							<path id="&lt;Path&gt;" class="s6" d="m125.7 562.6c18.4 9.5 32.4 25.8 42.6 43.8 10.1 18.1 16.6 37.8 23.1 57.4l5.6 101.3c-21.3-36.3-38.5-79-43.1-120.9q7.1-0.6 14.2-1.3c-9.5-1.4-17.5-8.3-22.6-16.5-5.1-8.2-7.7-17.6-10.3-26.9q8.7 1.3 17.4 2.5c-13.6-9-23.4-23.5-26.9-39.4z"/>
						</g>
					</g>
				</g>
			</g>
			<g id="&lt;Group&gt;">
				<g id="&lt;Group&gt;">
					<g id="&lt;Group&gt;">
						<path id="&lt;Path&gt;" class="s5" d="m200.2 788.8c0 0 46.3-55.5 45.8-108.4h-18.7c0 0 20.3-13.4 18.7-20.9-1.6-7.5-2.2-35.8-2.2-35.8l-17.1 4.3c0 0 12.9-6.4 14.5-16.6 1.6-10.2-3.8-57.2-3.8-57.2 0 0-20.8 21.9-27.3 44.4-6.4 22.4-23.2 48.6-18.3 117.1 5 68.4 8.4 73.1 8.4 73.1z"/>
					</g>
				</g>
			</g>
			<g id="&lt;Group&gt;">
				<g id="&lt;Group&gt;">
					<g id="&lt;Group&gt;">
						<path id="&lt;Path&gt;" class="s5" d="m176.7 794c0 0-50.2-33.4-61.4-76.1l15.1-4.1c0 0-19.3-6.3-19.6-12.7-0.4-6.3-6.2-29.2-6.2-29.2l14.7-0.3c0 0-11.7-2.4-15.2-10.2-3.5-7.8-9.5-46.8-9.5-46.8 0 0 21.6 13 31.6 29.7 10.1 16.6 29.4 34 40.4 90.1 11 56.1 10.1 59.6 10.1 59.6z"/>
					</g>
				</g>
			</g>
			<g id="&lt;Group&gt;">
				<g id="&lt;Group&gt;">
					<g id="&lt;Group&gt;">
						<g id="&lt;Group&gt;">
							<path id="&lt;Path&gt;" class="s3" d="m224.8 602.5q-0.1 0-0.2 0.6-0.2 0.6-0.4 1.7-0.5 2.4-1.5 6.6c-0.6 2.8-1.4 6.4-2.2 10.4-0.8 4.1-1.8 8.7-2.7 13.9-2 10.3-4.1 22.6-6.2 36.3-2.1 13.6-4.2 28.7-6.1 44.6-1.8 15.9-3.2 31-4.3 44.8-1 13.9-1.8 26.3-2.2 36.8-0.2 5.2-0.4 9.9-0.5 14.1-0.1 4.1-0.2 7.7-0.2 10.7q-0.1 4.3-0.1 6.7 0 1.1 0 1.8 0 0.5 0 0.6 0-0.1 0.1-0.6 0-0.7 0.1-1.8 0-2.4 0.2-6.7c0.1-3 0.2-6.5 0.4-10.7 0.1-4.1 0.3-8.9 0.6-14.1 0.5-10.5 1.3-22.9 2.4-36.7 1.1-13.8 2.6-28.9 4.4-44.8 1.8-15.9 3.9-30.9 5.9-44.6 2.1-13.7 4.2-26 6.1-36.3 0.9-5.1 1.8-9.8 2.6-13.9 0.7-4.1 1.4-7.6 2-10.4q0.9-4.3 1.4-6.7 0.2-1 0.3-1.7 0.1-0.6 0.1-0.6z"/>
						</g>
					</g>
				</g>
			</g>
			<g id="&lt;Group&gt;">
				<g id="&lt;Group&gt;">
					<g id="&lt;Group&gt;">
						<path id="&lt;Path&gt;" class="s5" d="m206.6 822.8c0 0 42.4-48.2 55.6-77.2l-10-4.3c7.2 1.2 14.6-1.9 20.2-6.6 5.6-4.7 9.7-10.9 13.7-17l-13.1-2.2c11.9-3.3 22.4-11.5 28.6-22.2-15.4 2.6-29.4 11.1-40.9 21.7-9.4 8.6-17.3 18.5-24.8 28.7-3.7 5-7 10.3-9.7 15.9-7.1 14.7-19.6 45.5-19.6 63.2z"/>
					</g>
				</g>
			</g>
			<g id="&lt;Group&gt;">
				<g id="&lt;Group&gt;">
					<g id="&lt;Group&gt;">
						<g id="&lt;Group&gt;">
							<path id="&lt;Path&gt;" class="s3" d="m114.7 642.6q-0.1 0 0.2 0.4 0.2 0.6 0.6 1.4 0.9 2 2.6 5.4c2.3 4.6 5.5 11.3 9.4 19.7 3.9 8.3 8.4 18.3 13.2 29.5 4.8 11.1 9.9 23.5 15 36.6 5.1 13.1 9.6 25.7 13.6 37.2 3.9 11.5 7.3 21.9 10 30.7 2.7 8.8 4.9 16 6.3 20.9q1.1 3.6 1.7 5.7 0.3 0.9 0.4 1.5 0.2 0.5 0.2 0.5 0-0.1-0.1-0.6-0.1-0.5-0.4-1.5-0.5-2-1.5-5.7c-1.3-5-3.4-12.1-6-21-2.7-8.8-6-19.2-9.9-30.8-3.9-11.5-8.5-24.1-13.5-37.2-5.1-13.1-10.2-25.5-15.1-36.7-4.8-11.1-9.4-21.1-13.4-29.4-3.9-8.3-7.3-15-9.6-19.6q-1.8-3.3-2.7-5.2-0.5-0.9-0.8-1.4-0.2-0.4-0.2-0.4z"/>
						</g>
					</g>
				</g>
			</g>
			<g id="&lt;Group&gt;">
				<g id="&lt;Group&gt;">
					<g id="&lt;Group&gt;">
						<g id="&lt;Group&gt;">
							<path id="&lt;Path&gt;" class="s3" d="m203 843.4q0 0 0.2-0.9 0.2-1 0.4-2.6 0.2-1.6 0.7-4c0.3-1.6 0.5-3.4 1-5.3 0.7-4 1.8-8.6 3.2-13.7 1.4-5.1 3.2-10.7 5.3-16.4 2.2-5.7 4.6-11.1 6.9-15.9 2.3-4.7 4.6-8.9 6.6-12.4 1-1.7 1.9-3.3 2.8-4.6q1.2-2.1 2.1-3.5 0.9-1.3 1.4-2.2 0.5-0.7 0.4-0.8 0 0-0.5 0.7-0.6 0.9-1.5 2.1-1 1.4-2.3 3.4c-0.9 1.4-1.9 2.9-2.9 4.6-2.1 3.4-4.5 7.6-6.8 12.4-2.4 4.8-4.8 10.1-7 15.9-2.1 5.7-3.9 11.3-5.3 16.5-1.3 5.1-2.3 9.8-3 13.8-0.4 1.9-0.7 3.7-0.9 5.3q-0.4 2.4-0.5 4.1-0.2 1.5-0.3 2.6 0 0.9 0 0.9z"/>
						</g>
					</g>
				</g>
			</g>
			<g id="&lt;Group&gt;">
				<g id="&lt;Group&gt;">
					<g id="&lt;Group&gt;">
						<path id="&lt;Path&gt;" class="s7" d="m147 851h92.9v-18.9h-92.9z"/>
					</g>
				</g>
			</g>
			<g id="&lt;Group&gt;">
				<g id="&lt;Group&gt;">
					<g id="&lt;Group&gt;">
						<path id="&lt;Path&gt;" class="s7" d="m231 851l-10 63.7h-56.1l-9.4-63.7z"/>
					</g>
				</g>
			</g>
			<g id="&lt;Group&gt;">
				<g id="&lt;Group&gt;">
					<g id="&lt;Group&gt;">
						<g id="&lt;Group&gt;">
							<path id="&lt;Path&gt;" class="s3" d="m152.7 851c0 0.2 17.6 0.4 39.2 0.4 21.7 0 39.3-0.2 39.3-0.4 0-0.3-17.6-0.4-39.3-0.4-21.6 0-39.2 0.1-39.2 0.4z"/>
						</g>
					</g>
				</g>
			</g>
		</g>
	</g>
	<g id="Shadow 2">
		<g id="&lt;Group&gt;" style="opacity: .3">
			<g id="&lt;Group&gt;">
				<path id="&lt;Path&gt;" class="s6" d="m530.2 98.2v158.6c0 10.3 8.4 18.7 18.9 18.7h23c-1.2 6.4-4 12.6-8 17.8-1.5 1.9 0.3 4.6 2.6 4 6.1-1.4 12-3.2 17.4-6.1 6.6-3.6 12.5-9 15.6-15.7h23v-7.2h-7.6v-109.2c0-33.6-27.3-60.9-60.9-60.9z"/>
			</g>
		</g>
	</g>
	<g id="Shadow 1">
		<g id="&lt;Group&gt;" style="opacity: .3">
			<g id="&lt;Group&gt;">
				<path id="&lt;Path&gt;" class="s6" d="m206.9 389.8h81.9c15.4 0 27.8 12.4 27.8 27.8v66c0 15.4-12.4 27.8-27.8 27.8h-33.8c1.8 9.5 5.9 18.7 11.8 26.4 2.2 2.8-0.4 6.7-3.9 5.9-8.9-2-17.5-4.8-25.5-9.1-9.8-5.2-18.4-13.2-23-23.2h-7.1z"/>
			</g>
		</g>
	</g>
	<g id="Emotions">
		<g id="&lt;Group&gt;">
			<g id="&lt;Group&gt;">
				<g id="&lt;Group&gt;">
					<path id="&lt;Path&gt;" class="s1" d="m350.6 507.6c0 33.4 27.1 60.6 60.6 60.6 33.4 0 60.5-27.2 60.5-60.6 0-33.5-27.1-60.6-60.5-60.6-33.5 0-60.6 27.1-60.6 60.6z"/>
				</g>
				<g id="&lt;Group&gt;">
					<path id="&lt;Path&gt;" class="s3" d="m431.2 497.3c0 4.4 2.7 8 6.1 8 3.3 0 6-3.6 6-8 0-4.4-2.7-8-6-8-3.4 0-6.1 3.6-6.1 8z"/>
				</g>
				<g id="&lt;Group&gt;">
					<path id="&lt;Path&gt;" class="s3" d="m380.9 497.3c0 4.4 2.7 8 6 8 3.4 0 6.1-3.6 6.1-8 0-4.4-2.7-8-6.1-8-3.3 0-6 3.6-6 8z"/>
				</g>
				<g id="&lt;Group&gt;">
					<path id="&lt;Path&gt;" class="s3" d="m434.3 515.9q-22.4 0-44.9 0c-2.4 0-2.4-3.7 0-3.7q22.5 0 44.9 0c2.4 0 2.4 3.7 0 3.7z"/>
				</g>
			</g>
			<g id="&lt;Group&gt;">
				<g id="&lt;Group&gt;">
					<path id="&lt;Path&gt;" class="s1" d="m350.6 649.2c0 33.5 27.1 60.6 60.6 60.6 33.4 0 60.5-27.1 60.5-60.6 0-33.4-27.1-60.6-60.5-60.6-33.5 0-60.6 27.2-60.6 60.6z"/>
				</g>
				<g id="&lt;Group&gt;">
					<path id="&lt;Path&gt;" class="s3" d="m431.2 638.9c0 4.4 2.7 8 6.1 8 3.3 0 6-3.6 6-8 0-4.4-2.7-8-6-8-3.4 0-6.1 3.6-6.1 8z"/>
				</g>
				<g id="&lt;Group&gt;">
					<path id="&lt;Path&gt;" class="s3" d="m380.9 638.9c0 4.4 2.7 8 6 8 3.4 0 6.1-3.6 6.1-8 0-4.4-2.7-8-6.1-8-3.3 0-6 3.6-6 8z"/>
				</g>
			</g>
			<g id="&lt;Group&gt;">
				<g id="&lt;Group&gt;">
					<path id="&lt;Path&gt;" class="s1" d="m350.6 785.4c0 33.5 27.1 60.6 60.6 60.6 33.4 0 60.5-27.1 60.5-60.6 0-33.4-27.1-60.6-60.5-60.6-33.5 0-60.6 27.2-60.6 60.6z"/>
				</g>
				<g id="&lt;Group&gt;">
					<path id="&lt;Path&gt;" class="s3" d="m428.9 775.1c0 4.4 2.7 8 6 8 3.4 0 6.1-3.6 6.1-8 0-4.4-2.7-8-6.1-8-3.3 0-6 3.6-6 8z"/>
				</g>
				<g id="&lt;Group&gt;">
					<path id="&lt;Path&gt;" class="s3" d="m380.9 775.5c0 4.4 2.7 8 6 8 3.4 0 6.1-3.6 6.1-8 0-4.4-2.7-8-6.1-8-3.3 0-6 3.6-6 8z"/>
				</g>
				<g id="&lt;Group&gt;">
					<path id="&lt;Path&gt;" class="s3" d="m394 793.6c2.2-7.6 9.6-13.4 17.6-13.1 8 0.3 15.2 6.5 16.7 14.3 0.5 2.3-3.1 3.3-3.6 1-1.2-6.2-6.7-11.3-13.1-11.6-6.3-0.2-12.3 4.3-14 10.4-0.6 2.3-4.2 1.3-3.6-1z"/>
				</g>
			</g>
			<g id="&lt;Group&gt;">
				<g id="&lt;Group&gt;">
					<g id="&lt;Group&gt;">
						<path id="&lt;Path&gt;" class="s7" d="m350.7 365c0 35 28.3 63.3 63.3 63.3 35 0 63.3-28.3 63.3-63.3 0-34.9-28.3-63.3-63.3-63.3-35 0-63.3 28.4-63.3 63.3z"/>
					</g>
					<g id="&lt;Group&gt;">
						<path id="&lt;Path&gt;" class="s3" d="m435 354.3c0 4.6 2.8 8.3 6.3 8.3 3.5 0 6.3-3.7 6.3-8.3 0-4.7-2.8-8.4-6.3-8.4-3.5 0-6.3 3.7-6.3 8.4z"/>
					</g>
					<g id="&lt;Group&gt;">
						<path id="&lt;Path&gt;" class="s3" d="m382.4 354.3c0 4.6 2.8 8.3 6.3 8.3 3.5 0 6.3-3.7 6.3-8.3 0-4.7-2.8-8.4-6.3-8.4-3.5 0-6.3 3.7-6.3 8.4z"/>
					</g>
				</g>
				<g id="&lt;Group&gt;">
					<path id="&lt;Path&gt;" class="s3" d="m433.1 364.9c-1.9 8.1-9.5 14.4-17.9 14.5-8.3 0-16-6.2-18-14.2-0.6-2.4 3.1-3.6 3.7-1.2 1.5 6.4 7.5 11.5 14.2 11.5 6.6 0 12.7-5 14.2-11.5 0.5-2.4 4.3-1.5 3.8 0.9z"/>
				</g>
			</g>
			<g id="&lt;Group&gt;">
				<g id="&lt;Group&gt;">
					<g id="&lt;Group&gt;">
						<path id="&lt;Path&gt;" class="s1" d="m352.4 224.5c0 34 27.6 61.6 61.6 61.6 34.1 0 61.6-27.6 61.6-61.6 0-34.1-27.5-61.7-61.6-61.7-34 0-61.6 27.6-61.6 61.7z"/>
					</g>
					<g id="&lt;Group&gt;">
						<path id="&lt;Path&gt;" class="s3" d="m433.9 214c0 4.5 2.7 8.1 6.1 8.1 3.4 0 6.2-3.6 6.2-8.1 0-4.5-2.8-8.2-6.2-8.2-3.4 0-6.1 3.7-6.1 8.2z"/>
					</g>
					<g id="&lt;Group&gt;">
						<path id="&lt;Path&gt;" class="s3" d="m382.6 214c0 4.5 2.8 8.1 6.2 8.1 3.4 0 6.2-3.6 6.2-8.1 0-4.5-2.8-8.2-6.2-8.2-3.4 0-6.2 3.7-6.2 8.2z"/>
					</g>
				</g>
				<g id="&lt;Group&gt;">
					<g id="&lt;Group&gt;">
						<path id="&lt;Path&gt;" class="s3" d="m392.8 226c0 12.5 9.5 22.6 21.2 22.6 11.8 0 21.3-10.1 21.3-22.6z"/>
					</g>
					<g id="&lt;Group&gt;">
						<path id="&lt;Path&gt;" class="s7" d="m403 245.3c0 0 4.2-5.4 11-5.4 6.9 0 11.1 5.4 11.1 5.4 0 0-10.3 6.8-22.1 0z"/>
					</g>
				</g>
			</g>
			<g id="&lt;Group&gt;">
				<path id="&lt;Path&gt;" class="s3" d="m426.1 657c-0.5 0-1-0.2-1.4-0.6-3.6-3.5-9.8-4.9-16.5-3.7-3.3 0.6-6.5 1.7-9.4 3.2-1 0.5-2.2 0.1-2.7-0.9-0.5-1-0.1-2.2 0.9-2.7 3.3-1.7 6.8-2.8 10.4-3.5 8.2-1.5 15.5 0.2 20.1 4.8 0.8 0.8 0.8 2 0 2.8-0.4 0.4-0.9 0.6-1.4 0.6z"/>
			</g>
		</g>
		<g id="&lt;Group&gt;">
			<g id="&lt;Group&gt;">
				<path id="&lt;Path&gt;" class="s7" d="m521.7 302.5c0.2 0.2-6.8 7-15.7 15.1-8.9 8.1-16.2 14.5-16.4 14.3-0.2-0.2 6.8-7 15.7-15.1 8.9-8.1 16.2-14.5 16.4-14.3z"/>
			</g>
		</g>
		<g id="&lt;Group&gt;">
			<g id="&lt;Group&gt;">
				<path id="&lt;Path&gt;" class="s7" d="m546.2 356.4c0 0.3-11 0.8-24.5 1.1-13.6 0.3-24.5 0.3-24.6 0 0-0.3 11-0.8 24.6-1.1 13.5-0.3 24.5-0.3 24.5 0z"/>
			</g>
		</g>
		<g id="&lt;Group&gt;">
			<g id="&lt;Group&gt;">
				<path id="&lt;Path&gt;" class="s7" d="m516.8 398c-0.1 0.1-1.5-0.6-3.6-1.9-2.2-1.2-5.1-3.1-8.2-5.3-3.1-2.3-5.7-4.4-7.6-6.1-1.9-1.6-3-2.7-2.9-2.8 0.2-0.2 5 3.6 11.1 8 6.2 4.5 11.3 7.8 11.2 8.1z"/>
			</g>
		</g>
		<g id="&lt;Group&gt;">
			<path id="&lt;Path&gt;" class="s7" d="m333.4 306.3l1.3 2.6c0.2 0.3 0.5 0.5 0.8 0.6l2.9 0.4c0.8 0.1 1.2 1.1 0.6 1.7l-2.1 2.1c-0.3 0.2-0.4 0.5-0.3 0.9l0.5 2.9c0.1 0.8-0.8 1.4-1.5 1l-2.6-1.4c-0.3-0.1-0.7-0.1-0.9 0l-2.7 1.4c-0.7 0.4-1.6-0.2-1.4-1l0.5-2.9c0-0.4-0.1-0.7-0.3-0.9l-2.1-2.1c-0.6-0.6-0.3-1.6 0.5-1.7l3-0.4c0.3-0.1 0.6-0.3 0.7-0.6l1.3-2.6c0.4-0.8 1.5-0.8 1.8 0z"/>
		</g>
		<g id="&lt;Group&gt;">
			<path id="&lt;Path&gt;" class="s7" d="m316.5 358.5l0.9 1.8c0.1 0.2 0.3 0.4 0.5 0.4l2.1 0.3c0.5 0.1 0.8 0.8 0.4 1.2l-1.5 1.4c-0.2 0.2-0.3 0.4-0.2 0.7l0.3 2c0.1 0.5-0.5 1-1 0.7l-1.8-0.9c-0.2-0.1-0.4-0.1-0.6 0l-1.9 0.9c-0.5 0.3-1.1-0.2-1-0.7l0.4-2c0-0.3-0.1-0.5-0.2-0.7l-1.5-1.4c-0.4-0.4-0.2-1.1 0.4-1.2l2-0.3c0.2 0 0.4-0.2 0.5-0.4l1-1.8c0.2-0.5 1-0.5 1.2 0z"/>
		</g>
		<g id="&lt;Group&gt;">
			<path id="&lt;Path&gt;" class="s7" d="m516.7 332.5l1.1 2.3c0.2 0.2 0.4 0.4 0.7 0.4l2.5 0.4c0.7 0.1 0.9 1 0.4 1.5l-1.8 1.7c-0.2 0.2-0.3 0.5-0.2 0.8l0.4 2.4c0.1 0.7-0.6 1.3-1.2 0.9l-2.2-1.1c-0.3-0.2-0.6-0.2-0.8 0l-2.3 1.1c-0.6 0.4-1.3-0.2-1.2-0.9l0.4-2.4c0.1-0.3 0-0.6-0.2-0.8l-1.8-1.7c-0.5-0.5-0.3-1.4 0.4-1.5l2.5-0.4c0.3 0 0.5-0.2 0.7-0.4l1.1-2.3c0.3-0.6 1.2-0.6 1.5 0z"/>
		</g>
		<g id="&lt;Group&gt;">
			<path id="&lt;Path&gt;" class="s7" d="m482.5 310l0.6 1.3q0.1 0.2 0.4 0.3l1.4 0.2c0.4 0.1 0.5 0.5 0.2 0.8l-1 1q-0.2 0.2-0.1 0.4l0.2 1.5c0.1 0.4-0.3 0.7-0.7 0.5l-1.2-0.7q-0.3-0.1-0.5 0l-1.3 0.7c-0.3 0.2-0.7-0.1-0.7-0.5l0.3-1.5q0-0.2-0.2-0.4l-1-1c-0.3-0.3-0.1-0.7 0.3-0.8l1.4-0.2q0.2-0.1 0.4-0.3l0.6-1.3c0.2-0.3 0.7-0.3 0.9 0z"/>
		</g>
		<g id="&lt;Group&gt;">
			<g id="&lt;Group&gt;">
				<path id="&lt;Path&gt;" class="s7" d="m324.7 338c0 0.1-1.9-0.3-5-1.1-3-0.7-7.2-1.9-11.8-3.2-4.6-1.3-8.8-2.5-11.8-3.5-3-0.9-4.8-1.6-4.8-1.7 0.1-0.2 2 0.2 5 1 3.1 0.8 7.3 1.9 11.9 3.2 4.6 1.3 8.8 2.6 11.7 3.5 3 1 4.9 1.6 4.8 1.8z"/>
			</g>
		</g>
		<g id="&lt;Group&gt;">
			<g id="&lt;Group&gt;">
				<path id="&lt;Path&gt;" class="s7" d="m329.6 385.1c0.2 0.2-2.7 2.9-6.5 6-3.8 3-7 5.3-7.2 5.1-0.2-0.2 2.7-2.9 6.5-5.9 3.8-3.1 7-5.4 7.2-5.2z"/>
			</g>
		</g>
	</g>
	<g id="Speech Bubble 2">
		<g id="&lt;Group&gt;">
			<g id="&lt;Group&gt;">
				<g id="&lt;Group&gt;">
					<g id="&lt;Group&gt;">
						<g id="&lt;Group&gt;">
							<g id="&lt;Group&gt;">
								<g id="&lt;Group&gt;">
									<g id="&lt;Group&gt;">
										<g id="&lt;Group&gt;">
											<g id="&lt;Group&gt;">
												<g id="&lt;Group&gt;">
													<g id="&lt;Group&gt;">
														<g id="&lt;Group&gt;">
															<g id="&lt;Group&gt;">
																<g id="&lt;Group&gt;">
																	<path id="&lt;Path&gt;" class="s4" d="m810.9 366.7l12.8-1c6.2 5.5 14.1 9.3 23 10.3 20.3 2.3 39.6-10.8 44.7-30.6 6.6-24.7-10.5-49.3-35.9-51.9-20.5-2-39.6 11.6-44.4 31.6-2.5 10.2-0.9 20.3 3.5 28.8z"/>
																</g>
															</g>
														</g>
													</g>
													<g id="&lt;Group&gt;">
														<g id="&lt;Group&gt;">
															<g id="&lt;Group&gt;">
																<g id="&lt;Group&gt;">
																	<g id="&lt;Group&gt;">
																		<path id="&lt;Path&gt;" class="s3" d="m810.9 366.7q0-0.1 0.2-0.9 0.3-0.9 0.8-2.5 1-3.2 2.9-9.4l-0.4 0.1h0.1c0 0.1 0.2 0.1 0.2 0q0.1-0.1 0.1-0.2c-2.4-4.7-4.7-11.4-4.6-19.7 0.1-4.1 0.9-8.5 2.4-12.9 1.6-4.4 4-8.9 7.4-12.9 3.4-4 7.7-7.5 12.9-10.1 5-2.6 10.9-4.2 17-4.4 12.2-0.5 25.5 5 33.7 15.7l1.5 2 1.4 2.2c0.9 1.3 1.5 2.9 2.3 4.4 1.3 3 2.4 6.1 2.9 9.3 1.1 6.4 0.8 12.9-0.9 18.8-1.7 5.9-4.8 11.2-8.5 15.5-3.8 4.4-8.3 7.7-13 10-9.6 4.6-19.6 5-27.5 3.1-8.1-1.9-14-5.8-18-9.3q0 0-0.1 0-6.2 0.5-9.5 0.8-1.6 0.2-2.5 0.3-0.8 0-0.8 0.1-0.1 0 0.7-0.1 0.9 0 2.5-0.1 3.4-0.2 9.6-0.6l-0.1-0.1c3.9 3.6 9.9 7.6 18 9.6 8 2 18.3 1.7 28-3 4.8-2.3 9.4-5.7 13.3-10.1 3.9-4.4 6.9-9.8 8.7-15.8 1.7-6.1 2.1-12.7 1-19.2-0.6-3.3-1.7-6.5-3-9.6-0.8-1.5-1.4-3.1-2.4-4.5l-1.3-2.2-1.6-2c-8.4-11-22-16.6-34.4-16-6.3 0.2-12.2 1.8-17.4 4.5-5.2 2.6-9.6 6.2-13.1 10.3-3.4 4.1-5.9 8.7-7.4 13.2-1.6 4.5-2.3 9-2.4 13.1-0.1 8.4 2.3 15.2 4.8 19.9l0.3-0.2c0-0.1-0.2-0.1-0.2-0.1q-0.1 0.1-0.1 0.1-1.7 6.3-2.7 9.6-0.4 1.6-0.6 2.5-0.3 0.8-0.2 0.8z"/>
																	</g>
																</g>
															</g>
														</g>
													</g>
												</g>
											</g>
										</g>
									</g>
								</g>
							</g>
						</g>
					</g>
				</g>
			</g>
			<g id="&lt;Group&gt;">
				<g id="&lt;Group&gt;">
					<g id="&lt;Group&gt;">
						<g id="&lt;Group&gt;">
							<g id="&lt;Group&gt;">
								<path id="&lt;Path&gt;" class="s7" d="m845.7 353.9l-17.8-19.2 6.7-6.2 12 12.8 23.2-19.2 5.9 7.1z"/>
							</g>
						</g>
					</g>
				</g>
			</g>
		</g>
	</g>
	<g id="Speech Bubbles 1">
		<g id="&lt;Group&gt;">
			<g id="&lt;Group&gt;">
				<g id="&lt;Group&gt;">
					<path id="&lt;Path&gt;" class="s4" d="m568.4 50h219.3c10.4 0 18.9 8.5 18.9 18.9v165.8c0 10.4-8.5 18.9-18.9 18.9h-168.6c-3.2 6.8-9 12.2-15.7 15.8-5.4 2.9-11.3 4.8-17.3 6.2-2.4 0.5-4.2-2.2-2.7-4.1 4-5.2 6.8-11.4 8-17.9h-23c-10.4 0-18.9-8.5-18.9-18.9v-165.8c0-10.4 8.5-18.9 18.9-18.9z"/>
				</g>
				<g id="&lt;Group&gt;">
					<g id="&lt;Group&gt;">
						<path id="&lt;Path&gt;" class="s3" d="m568.4 50q0 0-1.1 0.1c-0.8 0-2 0.2-3.4 0.5-2.9 0.7-7.3 2.6-10.8 7.4-1.7 2.4-2.9 5.5-3.3 9-0.2 3.6-0.1 7.5-0.1 11.7 0 8.5 0 18.3 0.1 29.2 0 21.7 0 48.1 0.1 78.3 0 15.1 0 31.2 0 48.1 0 4.1 1.3 8.3 3.9 11.7 2.6 3.3 6.4 5.8 10.6 6.7 2.1 0.5 4.3 0.4 6.6 0.4q3.3 0 6.7 0 6.8 0 13.7 0h0.6l-0.1 0.6c-1 5.3-3.1 10.5-6.1 15.2q-0.5 0.8-1.1 1.7c-0.4 0.5-0.9 1.2-1.2 1.6-0.5 1 0.1 2.4 1.2 2.8 0.5 0.2 1 0.2 1.7 0l2-0.5q2-0.5 4-1.1c5.4-1.7 10.6-3.9 15.2-7.2 4.6-3.3 8.6-7.6 11-12.8l0.1-0.3h0.4c46 0 96.4 0 148.7 0q6 0 12 0h6c2 0 3.9-0.1 5.8-0.5 3.7-0.8 7.2-2.8 9.8-5.7 2.5-2.8 4.1-6.4 4.6-10.2 0.1-1.9 0.1-3.8 0.1-5.8q0-2.9 0-5.8 0-5.8 0-11.6 0-11.5 0-22.8c0-30.3 0-59.4 0-87.2q0-10.4 0-20.6 0-5.1 0-10.1c0-3.3 0.2-6.6-0.9-9.7-2-6.1-7.3-10.8-13.4-12.2-3-0.7-6.2-0.4-9.4-0.5q-4.7 0-9.3 0c-24.7 0-47.7 0-68.7 0-42-0.1-76-0.2-99.5-0.2-11.7-0.1-20.8-0.1-27.1-0.1q-4.6 0-7-0.1c-1.6 0-2.4 0-2.4 0 0 0 0.8 0 2.4-0.1q2.4 0 7 0c6.3 0 15.4-0.1 27.1-0.1 23.5-0.1 57.5-0.1 99.5-0.2 21 0 44 0 68.7 0q4.6 0 9.3-0.1 2.4 0 4.8 0c0.8 0 1.6 0.1 2.4 0.1 0.8 0.2 1.6 0.2 2.4 0.4 6.4 1.4 12 6.4 14.1 12.9 1.1 3.2 1 6.7 1 9.9q0 5 0 10.1 0 10.2 0 20.6c0 27.8 0 56.9 0 87.2q0 11.3 0 22.8 0 5.8 0 11.6 0 2.9 0 5.8c0 2 0.1 3.9-0.1 5.9-0.5 4-2.1 7.9-4.9 10.8-2.6 3.1-6.3 5.2-10.3 6.1-2 0.4-4.1 0.4-6 0.4h-6q-6 0-12 0c-52.3 0-102.7 0-148.7 0l0.4-0.3c-2.5 5.4-6.6 9.8-11.3 13.2-4.8 3.4-10.1 5.6-15.5 7.3q-2 0.6-4 1.1l-2.1 0.5c-0.6 0.2-1.6 0.3-2.3 0-1.6-0.6-2.4-2.6-1.6-4.1 0.4-0.8 0.8-1.2 1.2-1.8q0.6-0.8 1.1-1.6c3-4.6 5-9.7 6-14.9l0.4 0.5q-6.9 0-13.7 0-3.4 0-6.7 0c-2.2 0-4.6 0.1-6.8-0.4-4.4-1-8.4-3.6-11.1-7.1-2.7-3.5-4.1-7.9-4-12.2 0-16.9 0-33 0-48.1 0.1-30.2 0.1-56.6 0.1-78.3 0-10.9 0.1-20.7 0.1-29.2 0-4.2-0.1-8.1 0.1-11.7 0.5-3.6 1.7-6.8 3.5-9.2 3.5-4.8 8-6.6 10.9-7.3 1.5-0.4 2.7-0.5 3.5-0.5q1.1 0 1.1 0z"/>
					</g>
				</g>
			</g>
			<g id="&lt;Group&gt;">
				<path id="&lt;Path&gt;" class="s5" d="m616.6 95.2c0 8.7-7 15.8-15.8 15.8-8.7 0-15.8-7.1-15.8-15.8 0-8.8 7.1-15.8 15.8-15.8 8.8 0 15.8 7 15.8 15.8z"/>
			</g>
			<g id="&lt;Group&gt;">
				<path id="&lt;Path&gt;" class="s7" d="m594.1 128.1l2.5 5c0.2 0.5 0.8 0.9 1.4 1l5.4 0.8c1.6 0.2 2.2 2.1 1.1 3.2l-4 3.8c-0.4 0.5-0.6 1.1-0.5 1.7l0.9 5.4c0.3 1.6-1.3 2.7-2.7 2l-4.9-2.5c-0.5-0.3-1.2-0.3-1.7 0l-4.9 2.5c-1.4 0.7-3-0.4-2.7-2l0.9-5.4c0.1-0.6-0.1-1.2-0.5-1.7l-4-3.8c-1.1-1.1-0.5-3 1.1-3.2l5.4-0.8c0.6-0.1 1.1-0.5 1.4-1l2.5-5c0.6-1.4 2.6-1.4 3.3 0z"/>
			</g>
			<g id="&lt;Group&gt;">
				<path id="&lt;Path&gt;" class="s7" d="m634.2 128.1l2.4 5c0.3 0.5 0.8 0.9 1.4 1l5.5 0.8c1.5 0.2 2.1 2.1 1 3.2l-3.9 3.8c-0.5 0.5-0.7 1.1-0.6 1.7l0.9 5.4c0.3 1.6-1.3 2.7-2.7 2l-4.8-2.5c-0.6-0.3-1.3-0.3-1.8 0l-4.9 2.5c-1.3 0.7-3-0.4-2.7-2l0.9-5.4c0.1-0.6-0.1-1.2-0.5-1.7l-3.9-3.8c-1.2-1.1-0.5-3 1-3.2l5.4-0.8c0.7-0.1 1.2-0.5 1.5-1l2.4-5c0.7-1.4 2.7-1.4 3.4 0z"/>
			</g>
			<g id="&lt;Group&gt;">
				<path id="&lt;Path&gt;" class="s7" d="m674.2 128.1l2.4 5c0.3 0.5 0.8 0.9 1.5 1l5.4 0.8c1.5 0.2 2.2 2.1 1 3.2l-3.9 3.8c-0.4 0.5-0.6 1.1-0.5 1.7l0.9 5.4c0.3 1.6-1.4 2.7-2.7 2l-4.9-2.5c-0.6-0.3-1.2-0.3-1.8 0l-4.8 2.5c-1.4 0.7-3-0.4-2.8-2l1-5.4c0.1-0.6-0.1-1.2-0.6-1.7l-3.9-3.8c-1.1-1.1-0.5-3 1-3.2l5.5-0.8c0.6-0.1 1.1-0.5 1.4-1l2.4-5c0.7-1.4 2.7-1.4 3.4 0z"/>
			</g>
			<g id="&lt;Group&gt;">
				<path id="&lt;Path&gt;" class="s7" d="m714.2 128.1l2.5 5c0.3 0.5 0.8 0.9 1.4 1l5.4 0.8c1.6 0.2 2.2 2.1 1.1 3.2l-4 3.8c-0.4 0.5-0.6 1.1-0.5 1.7l0.9 5.4c0.3 1.6-1.3 2.7-2.7 2l-4.9-2.5c-0.5-0.3-1.2-0.3-1.7 0l-4.9 2.5c-1.4 0.7-3-0.4-2.7-2l0.9-5.4c0.1-0.6-0.1-1.2-0.5-1.7l-4-3.8c-1.1-1.1-0.5-3 1.1-3.2l5.4-0.8c0.6-0.1 1.2-0.5 1.4-1l2.5-5c0.7-1.4 2.7-1.4 3.3 0z"/>
			</g>
			<g id="&lt;Group&gt;">
				<path id="&lt;Path&gt;" class="s1" d="m754.3 128.1l2.4 5c0.3 0.5 0.8 0.9 1.4 1l5.5 0.8c1.5 0.2 2.1 2.1 1 3.2l-3.9 3.8c-0.5 0.5-0.7 1.1-0.6 1.7l1 5.4c0.2 1.6-1.4 2.7-2.8 2l-4.8-2.5c-0.6-0.3-1.2-0.3-1.8 0l-4.8 2.5c-1.4 0.7-3-0.4-2.8-2l1-5.4c0.1-0.6-0.1-1.2-0.6-1.7l-3.9-3.8c-1.1-1.1-0.5-3 1-3.2l5.5-0.8c0.6-0.1 1.1-0.5 1.4-1l2.4-5c0.7-1.4 2.7-1.4 3.4 0z"/>
			</g>
			<g id="&lt;Group&gt;">
				<path id="&lt;Path&gt;" class="s0" d="m763.7 223.4h-173c-6.5 0-11.8-5.2-11.8-11.7v-37.7c0-6.5 5.3-11.8 11.8-11.8h173c6.5 0 11.7 5.3 11.7 11.8v37.7c0 6.5-5.2 11.7-11.7 11.7z"/>
			</g>
			<g id="&lt;Group&gt;">
				<path id="&lt;Path&gt;" class="s1" d="m752.6 95.2h-125v-7.4h125z"/>
			</g>
			<g id="&lt;Group&gt;">
				<path id="&lt;Path&gt;" class="s1" d="m678 108.1h-50.4v-7.3h50.4z"/>
			</g>
			<g id="&lt;Group&gt;">
				<path id="&lt;Path&gt;" class="s1" d="m754.6 187.6h-157.2v-7.3h157.2z"/>
			</g>
			<g id="&lt;Group&gt;">
				<path id="&lt;Path&gt;" class="s1" d="m712.6 202.3h-115.2v-7.3h115.2z"/>
			</g>
		</g>
		<g id="&lt;Group&gt;">
			<g id="&lt;Group&gt;">
				<g id="&lt;Group&gt;">
					<g id="&lt;Group&gt;">
						<path id="&lt;Path&gt;" class="s4" d="m263 367.5h-176.1c-15.4 0-27.8 12.4-27.8 27.8v66c0 15.4 12.4 27.8 27.8 27.8h101.6c4.6 10 13.3 18 23 23.2 8 4.4 16.7 7.1 25.5 9.1 3.5 0.8 6.1-3.1 3.9-5.9-5.9-7.7-9.9-16.9-11.8-26.4h33.9c15.3 0 27.8-12.4 27.8-27.8v-66c0-15.4-12.5-27.8-27.8-27.8z"/>
					</g>
					<g id="&lt;Group&gt;">
						<g id="&lt;Group&gt;">
							<path id="&lt;Path&gt;" class="s3" d="m263 367.5c0 0 1.1-0.1 3.4 0.1 2.3 0.3 5.7 1 9.6 3 3.9 2 8.4 5.6 11.5 11.2 1.6 2.9 2.8 6.2 3.2 9.8 0.5 3.7 0.3 7.6 0.3 11.7 0 16.4 0.1 36.3 0.1 59.1-0.2 5.8-2.3 11.7-6.1 16.5-3.9 4.7-9.4 8.5-15.7 9.9-3.2 0.7-6.5 0.8-9.7 0.7q-4.9 0-10 0-10 0.1-20.5 0.1l0.5-0.6c1.4 7.4 4.2 14.7 8.4 21.3q1.5 2.5 3.3 4.9c0.7 0.9 1 2.1 0.9 3.2-0.2 1.1-0.9 2.2-1.8 2.8-0.9 0.7-2.2 0.9-3.3 0.7-1-0.2-2-0.4-3-0.7q-3-0.7-5.9-1.6c-8-2.4-15.9-5.6-23-10.6-7.1-4.9-13.3-11.6-17.1-19.7l0.4 0.3c-23.4 0-47.6 0-72.4 0q-9.3 0-18.5 0-4.6 0-9.1 0c-1.5 0-3.1 0-4.6-0.1-1.6-0.3-3.1-0.5-4.6-0.9-2.9-0.9-5.7-2.1-8.3-3.8-2.5-1.8-4.7-3.9-6.5-6.3-3.8-4.7-5.8-10.7-5.9-16.6 0-23.4 0-45.9 0-67.4 0.1-2.7 0.6-5.4 1.4-8 0.8-2.5 2.1-4.9 3.5-7.1 1.6-2.2 3.3-4.2 5.3-5.9 2.1-1.6 4.3-3 6.7-4.1 2.3-1 4.8-1.8 7.3-2.1 2.6-0.4 5.1-0.3 7.5-0.3q7.4 0 14.6 0c19.1 0.1 36.8 0.1 53 0.1 32.5 0.1 58.7 0.1 76.9 0.2 9 0 16.1 0 20.9 0.1q3.5 0 5.4 0 1.8 0.1 1.9 0.1-0.1 0-1.9 0-1.9 0-5.4 0.1c-4.8 0-11.9 0-20.9 0.1-18.2 0-44.4 0.1-76.9 0.1-16.2 0.1-33.9 0.1-53 0.1q-7.2 0-14.6 0c-2.4 0-4.9 0-7.3 0.3-2.5 0.3-4.9 1.1-7.2 2.1-2.3 1-4.4 2.4-6.4 3.9-1.9 1.7-3.6 3.6-5.1 5.7-1.4 2.1-2.6 4.5-3.4 6.9-0.7 2.5-1.3 5.1-1.3 7.8 0 21.4 0 43.9 0 67.2 0.2 5.8 2.1 11.5 5.7 16.1 1.8 2.3 3.9 4.3 6.3 6 2.5 1.6 5.2 2.9 8 3.7 1.4 0.4 2.9 0.6 4.4 0.8 1.5 0.1 2.9 0.2 4.5 0.2q4.5 0 9.1 0 9.2 0 18.5 0c24.8 0 49 0 72.4 0h0.4l0.1 0.3c3.7 7.9 9.8 14.4 16.7 19.3 7 4.9 14.9 8.1 22.7 10.5q3 0.8 6 1.6c0.9 0.2 2 0.5 2.9 0.7 0.9 0.1 1.8 0 2.5-0.6 0.8-0.5 1.3-1.3 1.4-2.1 0.1-0.9-0.1-1.8-0.6-2.5q-1.9-2.4-3.4-5c-4.3-6.7-7.1-14.2-8.5-21.6l-0.1-0.6h0.5q10.5 0.1 20.5 0.1 5.1 0 10 0c3.2 0 6.4 0 9.5-0.7 6.2-1.4 11.5-5 15.3-9.6 3.7-4.7 5.8-10.4 5.9-16 0.1-22.8 0.1-42.7 0.2-59.1-0.1-4.1 0.2-8-0.2-11.6-0.5-3.6-1.6-6.9-3.1-9.7-3.1-5.5-7.5-9.1-11.3-11.2-3.9-2-7.3-2.7-9.5-3-1.1-0.2-2-0.2-2.6-0.2q-0.8-0.1-0.8-0.1z"/>
						</g>
					</g>
				</g>
			</g>
			<g id="&lt;Group&gt;">
				<path id="&lt;Path&gt;" class="s7" d="m120.8 409.5l3.7 7.5c0.4 0.8 1.2 1.4 2.2 1.6l8.2 1.2c2.4 0.3 3.3 3.2 1.6 4.8l-6 5.8c-0.6 0.7-0.9 1.6-0.8 2.6l1.4 8.2c0.4 2.3-2 4.1-4.1 3l-7.4-3.9c-0.8-0.4-1.8-0.4-2.6 0l-7.4 3.9c-2.1 1.1-4.5-0.7-4.1-3l1.4-8.2c0.1-1-0.2-1.9-0.9-2.6l-5.9-5.8c-1.7-1.6-0.8-4.5 1.6-4.8l8.2-1.2c0.9-0.2 1.7-0.8 2.1-1.6l3.7-7.5c1.1-2.1 4.1-2.1 5.1 0z"/>
			</g>
			<g id="&lt;Group&gt;">
				<path id="&lt;Path&gt;" class="s7" d="m181.5 409.5l3.7 7.5c0.4 0.8 1.2 1.4 2.1 1.6l8.3 1.2c2.3 0.3 3.2 3.2 1.6 4.8l-6 5.8c-0.7 0.7-1 1.6-0.8 2.6l1.4 8.2c0.4 2.3-2.1 4.1-4.2 3l-7.3-3.9c-0.9-0.4-1.9-0.4-2.7 0l-7.4 3.9c-2 1.1-4.5-0.7-4.1-3l1.4-8.2c0.2-1-0.1-1.9-0.8-2.6l-6-5.8c-1.7-1.6-0.7-4.5 1.6-4.8l8.3-1.2c0.9-0.2 1.7-0.8 2.1-1.6l3.7-7.5c1-2.1 4.1-2.1 5.1 0z"/>
			</g>
			<g id="&lt;Group&gt;">
				<path id="&lt;Path&gt;" class="s7" d="m242.2 409.5l3.6 7.5c0.5 0.8 1.3 1.4 2.2 1.6l8.2 1.2c2.4 0.3 3.3 3.2 1.6 4.8l-6 5.8c-0.6 0.7-0.9 1.6-0.8 2.6l1.4 8.2c0.4 2.3-2 4.1-4.1 3l-7.4-3.9c-0.8-0.4-1.8-0.4-2.6 0l-7.4 3.9c-2.1 1.1-4.5-0.7-4.1-3l1.4-8.2c0.1-1-0.2-1.9-0.8-2.6l-6-5.8c-1.7-1.6-0.8-4.5 1.6-4.8l8.2-1.2c0.9-0.2 1.7-0.8 2.2-1.6l3.6-7.5c1.1-2.1 4.1-2.1 5.2 0z"/>
			</g>
		</g>
	</g>
	<g id="Character">
		<g id="&lt;Group&gt;">
			<g id="&lt;Group&gt;">
				<g id="&lt;Group&gt;">
					<path id="&lt;Path&gt;" class="s4" d="m879.7 824v-71.8c0-27.7-22.5-50.2-50.3-50.2h-244.4c-27.8 0-50.3 22.5-50.3 50.2v125.2c0 27.7 22.5 50.2 50.3 50.2h244.4c27.8 0 50.3-22.5 50.3-50.2v-16.9c6.7 1.6 14 1.1 20.4-1.7 8.8-3.7 15.7-11.5 18.4-20.6-14.1 5.3-31.4-1.1-38.8-14.2z"/>
				</g>
				<g id="&lt;Group&gt;">
					<g id="&lt;Group&gt;">
						<path id="&lt;Path&gt;" class="s3" d="m879.7 824c0 0 0.5 0.9 1.6 2.5 1.2 1.5 3 3.8 5.9 6.1 3 2.3 7.1 4.7 12.5 6.2 5.3 1.3 11.9 1.7 18.7-0.8l0.4-0.1-0.1 0.4c-1.9 6.4-6.3 13.2-13.2 17.9-6.8 4.7-16.4 6.8-25.9 4.6l0.4-0.3q0 4.7 0 9.5c-0.1 3.3 0.1 6.6-0.2 10-0.3 6.8-2 13.8-5.4 20.3-3.2 6.6-8.2 12.6-14.4 17.3-6.2 4.8-13.7 8.3-21.9 9.6q-1.6 0.3-3.1 0.5c-1.1 0.1-2.1 0.1-3.2 0.2-2.1 0.1-4.2 0.1-6.3 0.1q-6.3 0-12.8 0-13.1 0-26.7 0.1c-18.2 0-37.2 0-57 0-39.5 0-81.9 0-126.4 0q-8.4 0-16.8 0c-5.7 0-11.4-0.8-16.9-2.6-11-3.6-20.6-11.3-26.9-21.2-3.1-5-5.4-10.5-6.7-16.3-1.2-5.8-1.1-11.8-1.1-17.7q0-17.8 0-35.9 0-28.8 0-56.8 0-7.1 0-14 0-3.5 0-7c0-2.3 0-4.6 0.1-6.9 0.4-9.3 3.6-18.3 8.7-25.9 2.6-3.7 5.6-7.2 9.1-10.2 3.5-2.8 7.2-5.4 11.3-7.3 2-1 4.2-1.6 6.2-2.4 1.1-0.4 2.2-0.6 3.3-0.9 1-0.3 2.1-0.6 3.2-0.7l3.3-0.5c1.1-0.1 2.2-0.1 3.3-0.2 2.2-0.2 4.4-0.1 6.6-0.1q26.1 0 51.1 0c66.6 0 126.5 0.1 176.8 0.1 6.3 0.1 12.4-0.2 18.5 0.5 5.9 0.6 11.6 2.5 16.7 5.1 5.1 2.6 9.5 6 13.3 9.9 3.8 3.8 6.7 8.2 8.9 12.6 2.3 4.5 3.7 9.2 4.5 13.8q0.3 1.8 0.5 3.4 0.1 1.8 0.2 3.4c0.2 2.3 0.1 4.5 0.1 6.6q0 12.9 0 23.4c-0.1 14.1-0.1 25-0.1 32.4q-0.1 5.6-0.1 8.5c0 1.9 0 2.8 0 2.8q-0.1 0-0.1-2.8 0-2.9 0-8.4c-0.1-7.5-0.1-18.4-0.1-32.4q-0.1-10.6-0.1-23.5c0-2.1 0.1-4.3-0.1-6.5q-0.1-1.7-0.2-3.4-0.2-1.7-0.5-3.4c-0.8-4.5-2.2-9.2-4.5-13.6-2.3-4.4-5.1-8.8-8.9-12.5-3.7-3.8-8.1-7.1-13.1-9.7-5-2.6-10.6-4.4-16.5-5-5.9-0.7-12.1-0.4-18.4-0.4-50.3 0-110.2 0-176.8 0.1q-25 0-51.1 0c-2.2 0-4.4-0.1-6.5 0.1-1.1 0.1-2.2 0.1-3.3 0.2l-3.2 0.5c-1.1 0.1-2.1 0.4-3.2 0.7-1 0.3-2.1 0.5-3.2 0.8-2 0.8-4.1 1.4-6.1 2.5-4 1.7-7.7 4.3-11.1 7.1-3.4 2.9-6.3 6.3-8.9 9.9-4.9 7.5-8.1 16.3-8.4 25.4-0.2 2.3-0.1 4.6-0.2 6.9q0 3.5 0 7 0.1 6.9 0.1 14 0 28 0 56.8 0 18.1 0 35.9c0 5.9-0.2 11.8 1.1 17.5 1.1 5.7 3.4 11.1 6.5 16 6.1 9.7 15.6 17.2 26.3 20.7 10.8 3.8 22.3 2.3 33.4 2.6 44.5 0 86.9 0.1 126.4 0.1 19.8 0 38.8 0 57 0q13.6 0 26.7 0 6.5 0 12.8 0c2.1 0 4.2 0.1 6.3-0.1 1-0.1 2.1 0 3.1-0.2q1.5-0.2 3-0.4c8.1-1.3 15.5-4.8 21.7-9.4 6.1-4.7 11-10.6 14.2-17.1 3.3-6.4 5.1-13.3 5.4-20 0.3-3.4 0.1-6.7 0.2-10q0-4.8 0-9.5v-0.4l0.3 0.1c9.4 2.2 18.8 0.2 25.6-4.5 6.8-4.6 11.1-11.2 13-17.6l0.3 0.3c-6.9 2.5-13.7 2.1-19 0.7-5.4-1.5-9.5-4-12.5-6.3-3-2.4-4.7-4.7-5.9-6.3-1.1-1.6-1.5-2.5-1.5-2.5z"/>
					</g>
				</g>
			</g>
			<g id="&lt;Group&gt;">
				<path id="&lt;Path&gt;" class="s1" d="m822.2 808h-230v-27.7h230z"/>
			</g>
			<g id="&lt;Group&gt;">
				<path id="&lt;Path&gt;" class="s1" d="m771 855h-178.8v-27.7h178.8z"/>
			</g>
			<g id="&lt;Group&gt;">
				<g id="&lt;Group&gt;">
					<g id="&lt;Group&gt;">
						<path id="&lt;Path&gt;" class="s8" d="m559.9 470.5c0 0-7.6-30.9-13.2-40.7-5.6-9.8-18.5-23.6-22-21.2-3.6 2.5 0.8 6.7 2.9 10.4l5.4 6.7 1.8 5.7c0 0-7.1 0.7-6.8 6.9 0 0-4.5-0.3-4.6 5.4 0 0-4.7 1.8-3.2 7.8 1.5 5.7 4.1 6.8 5.6 5.8 0.8-0.5 1.6-2.7 1.6-2.7 0 0 6 11.2 9.5 13.4 2.4 1.4 4.4 2.5 4.4 2.5l0.3 8.8c0 0 3.1 4.7 11.1-3.4 7.9-8 7.2-5.4 7.2-5.4z"/>
					</g>
					<g id="&lt;Group&gt;">
						<g id="&lt;Group&gt;">
							<path id="&lt;Path&gt;" class="s9" d="m551.7 446.7c-0.1 0-0.4-0.8-1-2.3-0.6-1.5-1.4-3.7-2.6-6.3-0.6-1.3-1.4-2.7-2.3-4.1-0.9-1.4-2-2.8-3.1-4.3-1.2-1.4-2.6-3.1-4.3-3.2-0.9 0-1.9 0.4-2.2 1.1-0.4 0.8-0.3 1.9-0.1 2.9 0.5 2 1.4 4 2.2 5.9 0.4 0.9 0.9 1.8 1.1 2.9 0.2 1.1 0.2 2.1 0.2 3 0.1 2-0.2 3.8 0.2 5.3 0.4 1.5 1.4 2.8 2.4 3.8 2 1.9 4.2 2.9 5.6 3.6 1.5 0.6 2.3 0.9 2.3 1 0 0-0.9-0.1-2.5-0.7-1.5-0.6-3.7-1.4-5.9-3.4-1.1-1-2.2-2.3-2.7-4.1-0.5-1.8-0.2-3.6-0.3-5.5 0-0.9-0.1-1.9-0.2-2.8-0.2-0.9-0.7-1.7-1.2-2.7-0.8-1.9-1.7-3.9-2.2-6.1-0.2-1.1-0.4-2.3 0.1-3.5 0.3-0.6 0.9-1.1 1.4-1.4 0.6-0.2 1.2-0.3 1.8-0.3 1.2 0 2.2 0.7 3 1.4 0.8 0.7 1.4 1.4 2 2.2 1.2 1.5 2.3 3 3.2 4.5 0.9 1.4 1.6 2.9 2.1 4.2 1.2 2.7 1.9 4.9 2.4 6.4 0.5 1.6 0.6 2.5 0.6 2.5z"/>
						</g>
					</g>
					<g id="&lt;Group&gt;">
						<g id="&lt;Group&gt;">
							<path id="&lt;Path&gt;" class="s9" d="m528.6 438.7c0.1-0.1 1.4 1.2 2.7 3.8 0.7 1.3 1.5 2.9 1.7 4.9 0.2 1.9 0.1 4.3-1.4 6.2-0.8 1-1.8 1.7-3.1 1.8-0.7 0-1.4-0.4-1.7-0.9-0.4-0.4-0.6-0.9-0.8-1.4-0.8-1.7-1.3-3.3-1.7-4.7-0.8-2.8-1-4.6-0.8-4.6 0.1-0.1 0.5 1.7 1.5 4.3 0.5 1.4 1.1 2.9 1.9 4.6 0.4 0.9 0.9 1.7 1.6 1.7 0.7-0.1 1.7-0.7 2.2-1.4 1.3-1.6 1.5-3.7 1.4-5.5-0.2-1.8-0.9-3.4-1.4-4.7-1.2-2.6-2.2-4-2.1-4.1z"/>
						</g>
					</g>
					<g id="&lt;Group&gt;">
						<g id="&lt;Group&gt;">
							<path id="&lt;Path&gt;" class="s9" d="m539 446.4c0.1 0.1 0.1 0.7-0.4 1.6-0.2 0.4-0.6 0.9-1 1.4-0.3 0.3-0.6 0.5-1 0.7-0.2 0.1-0.6 0.1-0.9 0 0.1 0 0 0-0.2 0.1-0.7 0.1-1.1-0.3-1.4-0.5-0.3-0.3-0.5-0.6-0.6-0.9-0.4-0.5-0.7-1-0.8-1.5-0.4-0.9-0.4-1.5-0.2-1.6 0.1 0 0.4 0.5 0.8 1.3q0.4 0.6 0.9 1.3c0.4 0.4 0.9 0.9 1.1 0.8 0.1 0 0.4-0.1 0.8 0h0.1c0 0-0.1 0.3-0.1 0.2v-0.1q0 0 0 0c0-0.1 0-0.1 0-0.1 0.1 0 0.1 0 0.1 0 0.3-0.1 0.5-0.2 0.7-0.4 0.4-0.4 0.8-0.8 1.1-1.1 0.6-0.7 0.8-1.2 1-1.2z"/>
						</g>
					</g>
				</g>
				<g id="&lt;Group&gt;">
					<g id="&lt;Group&gt;">
						<g id="&lt;Group&gt;">
							<g id="&lt;Group&gt;">
								<g id="&lt;Group&gt;">
									<g id="&lt;Group&gt;">
										<g id="&lt;Group&gt;">
											<g id="&lt;Group&gt;">
												<g id="&lt;Group&gt;">
													<g id="&lt;Group&gt;">
														<g id="&lt;Group&gt;">
															<g id="&lt;Group&gt;">
																<g id="&lt;Group&gt;">
																	<g id="&lt;Group&gt;">
																		<path id="&lt;Path&gt;" class="s3" d="m645.3 867.8l-10.3 56.6-21.2 42.4c-1.5 3.1-0.1 6.8 3.1 8.1 1.7 0.7 3.7 0.6 5.3-0.4 10.3-6.5 48.1-30.5 48.7-34.7 0.6-4.8 14.9-59 14.9-59z"/>
																	</g>
																</g>
															</g>
														</g>
													</g>
												</g>
											</g>
										</g>
									</g>
								</g>
							</g>
						</g>
						<g id="&lt;Group&gt;">
							<g id="&lt;Group&gt;">
								<g id="&lt;Group&gt;">
									<g id="&lt;Group&gt;">
										<g id="&lt;Group&gt;">
											<g id="&lt;Group&gt;">
												<g id="&lt;Group&gt;">
													<g id="&lt;Group&gt;">
														<g id="&lt;Group&gt;">
															<g id="&lt;Group&gt;">
																<g id="&lt;Group&gt;">
																	<g id="&lt;Group&gt;">
																		<path id="&lt;Path&gt;" class="s1" d="m616.9 974.9l54.8-38.9-0.5 2.4c-0.5 2.1-1.6 3.9-3.3 5.2-4.4 3.5-16.9 12.8-45.5 30.9-1.7 1.1-3.7 1.2-5.5 0.4z"/>
																	</g>
																</g>
															</g>
														</g>
													</g>
												</g>
											</g>
										</g>
									</g>
								</g>
							</g>
						</g>
						<g id="&lt;Group&gt;" style="opacity: .6">
							<g id="&lt;Group&gt;">
								<g id="&lt;Group&gt;">
									<g id="&lt;Group&gt;">
										<g id="&lt;Group&gt;">
											<g id="&lt;Group&gt;">
												<g id="&lt;Group&gt;">
													<g id="&lt;Group&gt;">
														<g id="&lt;Group&gt;">
															<g id="&lt;Group&gt;">
																<g id="&lt;Group&gt;">
																	<g id="&lt;Group&gt;">
																		<g id="&lt;Group&gt;">
																			<path id="&lt;Path&gt;" class="s4" d="m663.7 921.6c-1.7 0.7-2.6 2.7-1.9 4.4 0.8 2.2 4.2 3.1 5.7 0.7 1.3-2.2 0-5.2-2.5-5.4-0.6 0-1.2 0.1-1.6 0.5"/>
																		</g>
																	</g>
																</g>
															</g>
														</g>
													</g>
												</g>
											</g>
										</g>
									</g>
								</g>
							</g>
						</g>
						<g id="&lt;Group&gt;">
							<g id="&lt;Group&gt;">
								<g id="&lt;Group&gt;">
									<g id="&lt;Group&gt;">
										<g id="&lt;Group&gt;">
											<g id="&lt;Group&gt;">
												<g id="&lt;Group&gt;">
													<g id="&lt;Group&gt;">
														<g id="&lt;Group&gt;">
															<g id="&lt;Group&gt;">
																<g id="&lt;Group&gt;">
																	<g id="&lt;Group&gt;">
																		<g id="&lt;Group&gt;">
																			<path id="&lt;Path&gt;" class="s4" d="m636.9 950.2c-0.4 0.1-1.7-2.9-5.1-4.5-3.4-1.8-6.5-1-6.6-1.3-0.1-0.2 0.7-0.6 2-0.8 1.4-0.2 3.3 0 5.2 0.9 1.9 1 3.2 2.4 3.8 3.6 0.7 1.2 0.8 2 0.7 2.1z"/>
																		</g>
																	</g>
																</g>
															</g>
														</g>
													</g>
												</g>
											</g>
										</g>
									</g>
								</g>
							</g>
						</g>
						<g id="&lt;Group&gt;">
							<g id="&lt;Group&gt;">
								<g id="&lt;Group&gt;">
									<g id="&lt;Group&gt;">
										<g id="&lt;Group&gt;">
											<g id="&lt;Group&gt;">
												<g id="&lt;Group&gt;">
													<g id="&lt;Group&gt;">
														<g id="&lt;Group&gt;">
															<g id="&lt;Group&gt;">
																<g id="&lt;Group&gt;">
																	<g id="&lt;Group&gt;">
																		<g id="&lt;Group&gt;">
																			<path id="&lt;Path&gt;" class="s4" d="m630.8 957.9c-0.3 0.2-1.7-2-4.5-3.5-2.7-1.5-5.3-1.5-5.3-1.8-0.1-0.3 2.8-1 5.9 0.7 3.2 1.7 4.3 4.5 3.9 4.6z"/>
																		</g>
																	</g>
																</g>
															</g>
														</g>
													</g>
												</g>
											</g>
										</g>
									</g>
								</g>
							</g>
						</g>
						<g id="&lt;Group&gt;">
							<g id="&lt;Group&gt;">
								<g id="&lt;Group&gt;">
									<g id="&lt;Group&gt;">
										<g id="&lt;Group&gt;">
											<g id="&lt;Group&gt;">
												<g id="&lt;Group&gt;">
													<g id="&lt;Group&gt;">
														<g id="&lt;Group&gt;">
															<g id="&lt;Group&gt;">
																<g id="&lt;Group&gt;">
																	<g id="&lt;Group&gt;">
																		<g id="&lt;Group&gt;">
																			<path id="&lt;Path&gt;" class="s4" d="m645.3 942.5c-0.3 0.3-3.1-2.6-7.6-4.5-4.4-1.9-8.4-1.7-8.5-2.1 0-0.3 4.3-1 9 1 4.8 1.9 7.4 5.5 7.1 5.6z"/>
																		</g>
																	</g>
																</g>
															</g>
														</g>
													</g>
												</g>
											</g>
										</g>
									</g>
								</g>
							</g>
						</g>
						<g id="&lt;Group&gt;">
							<g id="&lt;Group&gt;">
								<g id="&lt;Group&gt;">
									<g id="&lt;Group&gt;">
										<g id="&lt;Group&gt;">
											<g id="&lt;Group&gt;">
												<g id="&lt;Group&gt;">
													<g id="&lt;Group&gt;">
														<g id="&lt;Group&gt;">
															<g id="&lt;Group&gt;">
																<g id="&lt;Group&gt;">
																	<g id="&lt;Group&gt;">
																		<g id="&lt;Group&gt;">
																			<path id="&lt;Path&gt;" class="s4" d="m648.3 931.9c-0.2 0.4-3.1-1.6-7.1-2.6-4-1-7.4-0.6-7.5-1-0.1-0.3 3.5-1.3 7.8-0.2 4.3 1.1 7 3.6 6.8 3.8z"/>
																		</g>
																	</g>
																</g>
															</g>
														</g>
													</g>
												</g>
											</g>
										</g>
									</g>
								</g>
							</g>
						</g>
					</g>
					<g id="&lt;Group&gt;">
						<g id="&lt;Group&gt;">
							<g id="&lt;Group&gt;">
								<g id="&lt;Group&gt;">
									<g id="&lt;Group&gt;">
										<g id="&lt;Group&gt;">
											<g id="&lt;Group&gt;">
												<g id="&lt;Group&gt;">
													<g id="&lt;Group&gt;">
														<g id="&lt;Group&gt;">
															<g id="&lt;Group&gt;">
																<g id="&lt;Group&gt;">
																	<g id="&lt;Group&gt;">
																		<g id="&lt;Group&gt;">
																			<g id="&lt;Group&gt;">
																				<g id="&lt;Group&gt;">
																					<g id="&lt;Group&gt;">
																						<path id="&lt;Path&gt;" class="s3" d="m666.3 879.3l17.4 40.3c0 0-35.1 31.3-32.6 39l79.3-31-24.5-63.9z"/>
																					</g>
																				</g>
																			</g>
																		</g>
																	</g>
																</g>
															</g>
														</g>
													</g>
												</g>
											</g>
										</g>
									</g>
								</g>
							</g>
						</g>
						<g id="&lt;Group&gt;">
							<g id="&lt;Group&gt;">
								<g id="&lt;Group&gt;">
									<g id="&lt;Group&gt;">
										<g id="&lt;Group&gt;">
											<g id="&lt;Group&gt;">
												<g id="&lt;Group&gt;">
													<g id="&lt;Group&gt;">
														<g id="&lt;Group&gt;">
															<g id="&lt;Group&gt;">
																<g id="&lt;Group&gt;">
																	<g id="&lt;Group&gt;">
																		<g id="&lt;Group&gt;">
																			<g id="&lt;Group&gt;">
																				<g id="&lt;Group&gt;">
																					<g id="&lt;Group&gt;">
																						<path id="&lt;Path&gt;" class="s1" d="m730.4 927.6l-2.3-6.2-75.4 32c0 0-3 2.9-1.6 5.2z"/>
																					</g>
																				</g>
																			</g>
																		</g>
																	</g>
																</g>
															</g>
														</g>
													</g>
												</g>
											</g>
										</g>
									</g>
								</g>
							</g>
						</g>
						<g id="&lt;Group&gt;">
							<g id="&lt;Group&gt;">
								<g id="&lt;Group&gt;">
									<g id="&lt;Group&gt;">
										<g id="&lt;Group&gt;">
											<g id="&lt;Group&gt;">
												<g id="&lt;Group&gt;">
													<g id="&lt;Group&gt;">
														<g id="&lt;Group&gt;">
															<g id="&lt;Group&gt;">
																<g id="&lt;Group&gt;">
																	<g id="&lt;Group&gt;">
																		<g id="&lt;Group&gt;">
																			<g id="&lt;Group&gt;">
																				<g id="&lt;Group&gt;">
																					<g id="&lt;Group&gt;">
																						<g id="&lt;Group&gt;">
																							<path id="&lt;Path&gt;" class="s4" d="m682.3 919.7c0.1 0.4 2.1-0.2 4.5 0.3 2.4 0.5 4.1 1.8 4.4 1.5 0.3-0.3-1.2-2.3-4.1-2.9-2.9-0.6-5.1 0.8-4.8 1.1z"/>
																						</g>
																					</g>
																				</g>
																			</g>
																		</g>
																	</g>
																</g>
															</g>
														</g>
													</g>
												</g>
											</g>
										</g>
									</g>
								</g>
							</g>
						</g>
						<g id="&lt;Group&gt;">
							<g id="&lt;Group&gt;">
								<g id="&lt;Group&gt;">
									<g id="&lt;Group&gt;">
										<g id="&lt;Group&gt;">
											<g id="&lt;Group&gt;">
												<g id="&lt;Group&gt;">
													<g id="&lt;Group&gt;">
														<g id="&lt;Group&gt;">
															<g id="&lt;Group&gt;">
																<g id="&lt;Group&gt;">
																	<g id="&lt;Group&gt;">
																		<g id="&lt;Group&gt;">
																			<g id="&lt;Group&gt;">
																				<g id="&lt;Group&gt;">
																					<g id="&lt;Group&gt;">
																						<g id="&lt;Group&gt;">
																							<path id="&lt;Path&gt;" class="s4" d="m675.3 926.4c0 0.4 2 0.4 3.9 1.6 2 1 3.1 2.7 3.4 2.5 0.4-0.1-0.2-2.5-2.7-3.8-2.4-1.4-4.7-0.7-4.6-0.3z"/>
																						</g>
																					</g>
																				</g>
																			</g>
																		</g>
																	</g>
																</g>
															</g>
														</g>
													</g>
												</g>
											</g>
										</g>
									</g>
								</g>
							</g>
						</g>
						<g id="&lt;Group&gt;">
							<g id="&lt;Group&gt;">
								<g id="&lt;Group&gt;">
									<g id="&lt;Group&gt;">
										<g id="&lt;Group&gt;">
											<g id="&lt;Group&gt;">
												<g id="&lt;Group&gt;">
													<g id="&lt;Group&gt;">
														<g id="&lt;Group&gt;">
															<g id="&lt;Group&gt;">
																<g id="&lt;Group&gt;">
																	<g id="&lt;Group&gt;">
																		<g id="&lt;Group&gt;">
																			<g id="&lt;Group&gt;">
																				<g id="&lt;Group&gt;">
																					<g id="&lt;Group&gt;">
																						<g id="&lt;Group&gt;">
																							<path id="&lt;Path&gt;" class="s4" d="m674.5 938.2c0.3 0 0.1-2.2-1.7-3.9-1.8-1.8-4-1.9-4-1.5-0.1 0.4 1.5 1.1 3 2.5 1.5 1.4 2.3 3 2.7 2.9z"/>
																						</g>
																					</g>
																				</g>
																			</g>
																		</g>
																	</g>
																</g>
															</g>
														</g>
													</g>
												</g>
											</g>
										</g>
									</g>
								</g>
							</g>
						</g>
					</g>
					<g id="&lt;Group&gt;">
						<path id="&lt;Path&gt;" class="s3" d="m791.1 696.2c0 0-4 25.6-22.9 30.5-18.9 4.9-55.2 26.8-55.2 26.8 0 0-3 51.7-10.5 77.7-7.5 26-24.4 82.6-24.4 82.6l-43.5-9.7c0 0 23.4-151.3 27.5-179.6 4.2-28.4 44.3-53.8 44.3-53.8l11.1-46.8 51.1-1.6c0 0 26.4 50.2 22.5 73.9z"/>
					</g>
					<g id="&lt;Group&gt;">
						<path id="&lt;Path&gt;" class="s3" d="m664.3 618.8c0.3 2-17.1 26.3-19.7 34.4 0 0-47.3 32.3-37.7 91.6 11.8 73.4 64 158.7 64.4 155.7l45-18.8c0 0-34-126.7-32.8-128.1 1.1-1.4 23.7-80.4 23.7-80.4l10.3-49.3z"/>
					</g>
					<g id="&lt;Group&gt;">
						<g id="&lt;Group&gt;">
							<path id="&lt;Path&gt;" class="s5" d="m739.9 657.1q0 0-1.4 0.3-1.5 0.2-4.2 1.1c-3.7 1.1-9 3.1-15.6 6.2q-4.9 2.3-10.8 5.5c-1.9 0.9-3.7 2.4-5.7 3.7q-3 2.1-6 4.6c-4 3.2-8.2 6.8-12.4 10.9-4.1 4.2-8.4 8.7-12.1 14.1-3.6 5.3-7 11.4-8.5 18.3q-0.3 1.3-0.6 2.6-0.2 1.3-0.4 2.7-0.5 2.7-0.9 5.4-0.8 5.5-1.7 11.2c-2.3 15.2-4.8 31.5-7.4 48.6-5.2 34.3-11 72.1-17.1 111.8l-0.4-0.5c3.3 0.7 6.9 1.5 10.5 2.3 11.2 2.5 22.2 5 33 7.4l-0.6 0.3c8.9-30.3 17.6-59.1 25.3-85.7 3.4-13.4 5.1-26.6 6.6-39 1.4-12.5 2.4-24.4 3.1-35.4l0.1-0.2 0.1-0.1c13.5-8 26.1-14.7 37.4-19.9 5.7-2.6 11.1-4.8 16.2-6.4q2-0.5 3.7-1.1c1.3-0.4 2.4-1 3.4-1.5 2.2-1.2 4-2.6 5.6-4.1 3.1-3 5.2-6.3 6.8-9.3 1.6-3 2.6-5.7 3.4-7.9 0.7-2.2 1.1-3.9 1.4-5q0.4-1.8 0.4-1.8c0 0-0.2 2.5-1.6 6.9-0.7 2.2-1.7 4.9-3.3 7.9-1.5 3-3.7 6.4-6.8 9.5-1.6 1.6-3.5 3-5.6 4.2-1.1 0.6-2.2 1.2-3.5 1.5q-1.8 0.7-3.7 1.3c-5.1 1.5-10.5 3.7-16.1 6.3-11.3 5.3-23.8 12-37.3 20l0.2-0.3c-0.7 11.1-1.7 23-3.1 35.5-1.4 12.5-3.1 25.7-6.5 39.2-7.6 26.6-16.3 55.4-25.2 85.7l-0.1 0.5-0.5-0.1c-10.8-2.4-21.8-4.9-33.1-7.4-3.5-0.8-7.1-1.6-10.4-2.3l-0.5-0.1 0.1-0.5c6.1-39.8 11.9-77.5 17.2-111.8 2.6-17.1 5.1-33.4 7.5-48.6q0.9-5.7 1.7-11.2 0.4-2.8 0.9-5.5 0.2-1.3 0.4-2.6 0.3-1.4 0.6-2.7c1.6-7 5-13.2 8.7-18.5 3.8-5.4 8.1-10 12.2-14.2 4.2-4.1 8.5-7.7 12.6-10.9q3-2.4 6-4.5c2-1.3 3.8-2.8 5.8-3.8q5.9-3.1 10.9-5.4c6.6-3 11.9-5 15.6-6 3.7-1.1 5.7-1.2 5.7-1.2z"/>
						</g>
					</g>
					<g id="&lt;Group&gt;">
						<g id="&lt;Group&gt;">
							<path id="&lt;Path&gt;" class="s5" d="m678 662.3c0.2-0.3 5.2 2.2 11 6 5.8 3.8 10 7.6 9.8 7.8-0.2 0.2-4.7-3.1-10.4-6.9-5.7-3.8-10.5-6.7-10.4-6.9z"/>
						</g>
					</g>
					<g id="&lt;Group&gt;">
						<g id="&lt;Group&gt;">
							<path id="&lt;Path&gt;" class="s5" d="m714.2 734.4c0.3 0 1 4.7 0.3 10.6-0.7 5.8-2.5 10.3-2.7 10.2-0.3-0.1 1-4.6 1.6-10.3 0.7-5.8 0.5-10.5 0.8-10.5z"/>
						</g>
					</g>
				</g>
				<g id="&lt;Group&gt;">
					<g id="&lt;Group&gt;">
						<path id="&lt;Path&gt;" class="s3" d="m758.7 436.5q6.1-18.6 12.1-37.2l8.9-16.9c6.5-3.7 20.1 4.4 24.6 10.3 4.6 5.9 5.4 14 4.3 21.4-0.7 4.9-2.2 10.1 0 14.6 2.5 5.1 9.1 7.5 11 12.8 1.2 3.5 0.1 7.5-2.1 10.5-2.2 3-5.3 5.2-8.4 7.2-2.8 1.8-5.7 3.7-9 4.5-3.2 0.8-6.9 0.6-9.6-1.5-0.1 4.9-4.5 9.1-9.4 9.5-4.9 0.5-9.7-2.5-12.1-6.8-2.4-4.3-2.6-9.6-1-14.3-1.4 2.5-5.1 3-7.5 1.5-2.3-1.5-3.5-4.5-3.5-7.3-0.1-2.9 0.8-5.6 1.7-8.3z"/>
					</g>
					<g id="&lt;Group&gt;">
						<g id="&lt;Group&gt;">
							<g id="&lt;Group&gt;">
								<g id="&lt;Group&gt;">
									<g id="&lt;Group&gt;">
										<g id="&lt;Group&gt;">
											<g id="&lt;Group&gt;">
												<g id="&lt;Group&gt;">
													<path id="&lt;Path&gt;" class="s3" d="m778.2 382.7c-5.9-14.8-16.8-25.6-31.9-30.6-8.5-2.9-12.7-2.2-19.4-2.4-6.7-0.3-13.3 1.3-18.6 5.3-6.3 4.9-12.2 10.7-15.4 18-3.3 7.5-6.6 15.1-8.4 23-1.9 8-2.2 16.5 0.4 24.3l18.8 9.6c10.8 3.8 21.8 7.7 33.2 8.5 11.5 0.8 23.6-1.7 32.3-9.2 12-10.5 15-31.7 9-46.5z"/>
												</g>
											</g>
										</g>
										<g id="&lt;Group&gt;">
											<path id="&lt;Path&gt;" class="s8" d="m730.3 356.9l7.2 1.4 23.1 18.8c3.8 1.3 5.9 5.4 4.8 9.2l-28.6 82.5-43.2 1.7 5.8-20.5c0 0-17.2-7.3-15.2-29.4 1-11 6-28.2 10.5-42.1 4-12.6 20.1-26.4 35.6-21.6z"/>
										</g>
										<g id="&lt;Group&gt;">
											<g id="&lt;Group&gt;">
												<g id="&lt;Group&gt;">
													<path id="&lt;Path&gt;" class="s9" d="m716.8 425.5c0.2-1.2-0.1-2.3-0.6-3.2-1.2-1.8-3.4-2.7-5.4-2-2 0.6-3.7 2.6-4.1 4.9 0.6 1.6 1.7 2.9 3.2 3.5q0.4 0.2 0.8 0.3c1.2 0.3 2.5 0.3 3.7-0.3 1.2-0.6 2.2-1.8 2.4-3.2z"/>
												</g>
											</g>
										</g>
										<g id="&lt;Group&gt;">
											<g id="&lt;Group&gt;">
												<g id="&lt;Group&gt;">
													<path id="&lt;Path&gt;" class="s3" d="m696.1 398.2c-0.4 1.4 0.4 2.9 1.9 3.4 1.5 0.5 3-0.3 3.4-1.8 0.5-1.4-0.4-2.9-1.9-3.4-1.5-0.4-3 0.3-3.4 1.8z"/>
												</g>
											</g>
										</g>
										<g id="&lt;Group&gt;">
											<g id="&lt;Group&gt;">
												<g id="&lt;Group&gt;">
													<path id="&lt;Path&gt;" class="s3" d="m697.2 386.9c0.3 0.5 2.7-0.5 5.6 0.2 3 0.7 4.7 2.8 5.2 2.5 0.2-0.1 0-0.8-0.8-1.8-0.7-0.9-2.2-1.9-4-2.4-1.8-0.4-3.5-0.2-4.6 0.3-1.1 0.5-1.5 1-1.4 1.2z"/>
												</g>
											</g>
										</g>
										<g id="&lt;Group&gt;">
											<g id="&lt;Group&gt;">
												<g id="&lt;Group&gt;">
													<path id="&lt;Path&gt;" class="s3" d="m708.7 415.4c0-0.2-1.7-1-4.6-2.1-0.7-0.3-1.4-0.6-1.4-1.1 0-0.6 0.5-1.4 1.1-2.1q1.7-2.5 3.6-5.2c5.2-7.3 9.1-13.4 8.8-13.6-0.3-0.3-4.7 5.5-9.8 12.9q-1.9 2.7-3.6 5.2c-0.5 0.8-1.2 1.6-1.1 2.8 0 0.6 0.5 1.2 0.9 1.4 0.5 0.3 0.9 0.4 1.2 0.5 3 0.9 4.8 1.4 4.9 1.3z"/>
												</g>
											</g>
										</g>
										<g id="&lt;Group&gt;">
											<g id="&lt;Group&gt;">
												<g id="&lt;Group&gt;">
													<path id="&lt;Path&gt;" class="s9" d="m699.4 450c0 0 14 4.5 30.4-0.4 0 0-11.2 13.4-32 6z"/>
												</g>
											</g>
										</g>
										<g id="&lt;Group&gt;">
											<g id="&lt;Group&gt;">
												<g id="&lt;Group&gt;">
													<path id="&lt;Path&gt;" class="s3" d="m716.8 419.6c-0.5-0.2-1.3 3-4.6 4.6-3.3 1.6-6.6 0.3-6.7 0.8-0.1 0.2 0.6 0.8 2 1.2 1.4 0.4 3.6 0.5 5.6-0.5 2-1 3.2-2.6 3.6-3.9 0.5-1.3 0.3-2.2 0.1-2.2z"/>
												</g>
											</g>
										</g>
										<g id="&lt;Group&gt;">
											<g id="&lt;Group&gt;">
												<g id="&lt;Group&gt;">
													<path id="&lt;Path&gt;" class="s3" d="m701.3 377.1c0.4 0.9 2.7 1 5.3 1.9 2.6 0.8 4.6 2.1 5.3 1.6 0.3-0.3 0.2-1-0.5-2-0.7-0.9-2.1-2-3.9-2.6-1.7-0.5-3.5-0.5-4.6-0.2-1.1 0.4-1.7 0.9-1.6 1.3z"/>
												</g>
											</g>
										</g>
										<g id="&lt;Group&gt;">
											<g id="&lt;Group&gt;">
												<g id="&lt;Group&gt;">
													<path id="&lt;Path&gt;" class="s3" d="m727 406.4c-0.3 1.5-1.9 2.3-3.4 2-1.5-0.4-2.4-1.8-2-3.3 0.3-1.4 1.8-2.3 3.4-1.9 1.5 0.3 2.4 1.8 2 3.2z"/>
												</g>
											</g>
										</g>
										<g id="&lt;Group&gt;">
											<g id="&lt;Group&gt;">
												<g id="&lt;Group&gt;">
													<path id="&lt;Path&gt;" class="s3" d="m736.6 398c-0.4 0.3-2-1.8-5-2.7-2.8-0.9-5.4 0-5.6-0.4-0.1-0.2 0.4-0.8 1.5-1.2 1.1-0.4 2.9-0.6 4.7 0 1.8 0.5 3.1 1.6 3.8 2.5 0.7 1 0.8 1.7 0.6 1.8z"/>
												</g>
											</g>
										</g>
										<g id="&lt;Group&gt;">
											<g id="&lt;Group&gt;">
												<g id="&lt;Group&gt;">
													<path id="&lt;Path&gt;" class="s3" d="m737.7 388.2c-0.7 0.5-2.8-0.8-5.4-1.6-2.7-0.9-5.1-1.1-5.5-1.9-0.1-0.4 0.5-1 1.6-1.3 1.2-0.3 3-0.3 4.8 0.2 1.9 0.6 3.3 1.7 4 2.7 0.8 0.9 0.9 1.7 0.5 1.9z"/>
												</g>
											</g>
										</g>
										<g id="&lt;Group&gt;">
											<g id="&lt;Group&gt;">
												<g id="&lt;Group&gt;">
													<path id="&lt;Path&gt;" class="s8" d="m750.8 420.3c0.4-1.5 3.2-4.8 4.8-4.7 4.4 0.5 11.8 2.7 9.2 13.3-3.6 14.5-17.4 8-17.4 7.5 0.1-0.3 2-10.6 3.4-16.1z"/>
												</g>
											</g>
										</g>
										<g id="&lt;Group&gt;">
											<g id="&lt;Group&gt;">
												<g id="&lt;Group&gt;">
													<path id="&lt;Path&gt;" class="s9" d="m752.8 432.1c0 0 0.2 0.3 0.5 0.6 0.4 0.2 1.1 0.6 1.9 0.5 1.7-0.2 3.6-2.3 4.3-4.9 0.4-1.4 0.4-2.7 0.2-3.8-0.2-1.2-0.7-2.1-1.4-2.5-0.8-0.3-1.4 0-1.7 0.4-0.3 0.3-0.3 0.6-0.3 0.6-0.1 0.1-0.3-0.3 0-0.8 0.1-0.3 0.3-0.6 0.8-0.8 0.4-0.2 0.9-0.2 1.5 0 1.1 0.3 1.8 1.6 2 2.9 0.3 1.3 0.3 2.8-0.1 4.2-0.8 2.9-3 5.3-5.2 5.4-1.1 0-1.9-0.5-2.2-1-0.4-0.4-0.4-0.8-0.3-0.8z"/>
												</g>
											</g>
										</g>
										<g id="&lt;Group&gt;">
											<g id="&lt;Group&gt;">
												<g id="&lt;Group&gt;">
													<path id="&lt;Path&gt;" class="s3" d="m756.2 415.9l-4.8 2.6c-11-19.9-29.8-66.9-28.8-64.1 0 0 12.1-1.1 23.1 4.5 11 5.7 31.2 18.4 26.6 32-4.6 13.6-16.1 25-16.1 25z"/>
												</g>
											</g>
										</g>
									</g>
								</g>
							</g>
						</g>
					</g>
				</g>
				<g id="&lt;Group&gt;">
					<g id="&lt;Group&gt;">
						<path id="&lt;Path&gt;" class="s5" d="m781.6 383.8c-0.2 0.1 1.1 2.9 2.1 7.8 0.9 4.8 1.1 11.8-1.2 19-2.4 7.2-6.7 12.8-10.3 16.2-3.7 3.4-6.4 4.8-6.3 5 0 0.1 0.7-0.3 1.9-1 1.3-0.7 2.9-1.9 4.8-3.5 3.8-3.3 8.4-9 10.8-16.4 2.4-7.4 2.1-14.6 0.9-19.5-0.5-2.4-1.2-4.4-1.7-5.7-0.6-1.3-1-1.9-1-1.9z"/>
					</g>
				</g>
				<g id="&lt;Group&gt;">
					<g id="&lt;Group&gt;">
						<path id="&lt;Path&gt;" class="s8" d="m818.2 693l21.6 5.9c0 0 17.3-1.4 20.2 1.6 3 3.1 10.5 11.9 10.5 11.9 0 0 4.6 1.2 3.5 2.7-1.2 1.5-5.1 1.9-8 1.2-2.8-0.8-21.7-6.9-21.7-6.9 0 0-1.9 5.5-6.3 4.1-4.4-1.4-13-5-15.7-5.6-2.7-0.5-21-2.6-22.1-3.9-1.1-1.3-4.4-20.3-4.4-20.3l17.6-3.8z"/>
					</g>
					<g id="&lt;Group&gt;">
						<g id="&lt;Group&gt;">
							<path id="&lt;Path&gt;" class="s9" d="m848.2 703c0.1-0.2 5.2 1.7 11.4 4.4 6.3 2.6 11.2 5 11.1 5.2-0.1 0.3-5.2-1.6-11.5-4.3-6.2-2.6-11.2-5-11-5.3z"/>
						</g>
					</g>
					<g id="&lt;Group&gt;">
						<g id="&lt;Group&gt;">
							<path id="&lt;Path&gt;" class="s9" d="m826.6 700.6c0.1-0.2 4.4 0.9 9.3 3.2 2.5 1.2 4.6 2.4 6.1 3.4 1.6 1 2.2 2 2 2.1-0.1 0.1-0.8-0.7-2.4-1.5-1.5-0.8-3.7-1.9-6.1-3-4.9-2.3-9-3.9-8.9-4.2z"/>
						</g>
					</g>
				</g>
				<g id="&lt;Group&gt;">
					<g id="&lt;Group&gt;">
						<path id="&lt;Path&gt;" class="s7" d="m680.8 466.2c0 0-22.8-0.8-35.1 7.4-12.3 8.2-55 41.3-55 41.3l-28.6-52.8-27.3 17c0 0 27.6 75.5 48.1 81.1 27.1 7.3 65.1-27.7 65.1-27.7z"/>
					</g>
					<g id="&lt;Group&gt;">
						<path id="&lt;Path&gt;" class="s8" d="m665.5 467.3l31.7-5.3 40.5-1.6 24.6 8.1-31.7 46.6-44.4 6.4z"/>
					</g>
					<g id="&lt;Group&gt;">
						<path id="&lt;Path&gt;" class="s7" d="m766.2 536.4c0 2.4-1.3 49.3 3.8 64.5 5.1 15.2 26.4 85.9 26.4 85.9l23.7-3.4-15.6-99.5c0 0-6.7-84.5-9.3-93.5-4.6-15.8-18.2-17.9-18.2-17.9z"/>
					</g>
					<g id="&lt;Group&gt;">
						<path id="&lt;Path&gt;" class="s7" d="m779.1 473.2c-1.7-0.4-32.2-9.7-32.2-9.7 0 0-17.8 31.9-42.7 28.3-21.2-3.1-22.6-27.1-22.6-27.1l-21.1 3.5c-2.1-1.1-22.3 77.8-8.8 97.2 11.1 16 11.3 19.8 11.3 19.8 2.9-0.2-13.5 44.9-10.7 50.3 25 47.9 126.8-1.2 126.8-1.2l-10-57.3z"/>
					</g>
					<g id="&lt;Group&gt;">
						<g id="&lt;Group&gt;">
							<path id="&lt;Path&gt;" class="s3" d="m776.7 499.6q0.1 0-0.1 1.3-0.2 1.6-0.5 4c-0.4 3.5-1.1 8.5-1.8 14.5-0.8 6.1-1.8 13.4-2.7 21.5-0.9 8.1-1.7 17-2.1 26.4-0.4 9.3 0 18.3 1 26.4 1.1 8 2.5 15.2 3.9 21.2 1.4 6 2.6 10.8 3.5 14.2q0.5 2.4 0.9 3.9 0.3 1.3 0.3 1.3-0.1 0-0.5-1.3-0.4-1.4-1.1-3.8c-1-3.3-2.3-8.1-3.8-14.1-1.5-6-3-13.2-4.1-21.3-1.1-8.1-1.5-17.2-1.1-26.6 0.3-9.4 1.2-18.3 2.2-26.4 0.9-8.1 2-15.4 2.8-21.5 0.9-6.1 1.7-11.1 2.2-14.5q0.5-2.4 0.7-3.9 0.3-1.3 0.3-1.3z"/>
						</g>
					</g>
					<g id="&lt;Group&gt;">
						<g id="&lt;Group&gt;">
							<path id="&lt;Path&gt;" class="s3" d="m651 508.9c0.1 0-0.1 1-0.4 2.9-0.3 1.8-0.7 4.5-1.2 7.7-0.4 3.3-1 7.2-1.2 11.6-0.3 4.4-0.4 9.2 0 14.2 0.5 5 1.3 9.7 2.6 13.9 1.3 4.2 2.7 7.9 4.3 10.8 3 5.8 5.6 9.1 5.4 9.2-0.1 0.1-0.7-0.7-1.9-2.2-0.5-0.8-1.2-1.7-1.9-2.8-0.7-1.1-1.5-2.4-2.3-3.9-1.7-2.9-3.2-6.6-4.6-10.8-1.3-4.2-2.2-9-2.6-14.1-0.4-5.1-0.4-10 0-14.4 0.3-4.4 0.9-8.3 1.5-11.6 0.6-3.3 1.1-5.9 1.5-7.7 0.5-1.8 0.7-2.8 0.8-2.8z"/>
						</g>
					</g>
					<g id="&lt;Group&gt;">
						<g id="&lt;Group&gt;">
							<path id="&lt;Path&gt;" class="s3" d="m744.5 590.9q0 0-1.2 0.4-1.2 0.4-3.5 1.1c-3 0.9-7.4 2.1-12.9 3.5-5.5 1.4-12.1 2.9-19.4 4.4q-5.5 1.1-11.6 2.1-3 0.5-6.1 1c-2.1 0.2-4.2 0.9-6.6 0.2-1.1-0.2-2.3-1.1-2.5-2.5-0.3-1.3 0.4-2.5 1.2-3.3 1.7-1.5 3.8-2.2 5.5-3.1q5.6-2.7 10.7-4.9c6.9-2.9 13.3-5.2 18.6-7 5.4-1.8 9.8-3.1 12.9-3.9q2.3-0.6 3.5-0.9 1.2-0.2 1.3-0.2 0 0.1-1.2 0.4-1.4 0.5-3.5 1.1c-3 0.9-7.4 2.3-12.7 4.2-5.3 1.8-11.6 4.2-18.5 7.2q-5.1 2.2-10.6 4.9c-1.8 0.9-3.8 1.6-5.2 3-0.7 0.7-1.2 1.5-1 2.3 0.1 0.9 0.9 1.5 1.8 1.7 1.9 0.6 4.1 0 6.1-0.3q3.1-0.4 6.1-0.9 6.1-1 11.6-2.1c7.3-1.4 13.9-2.8 19.4-4.1 5.5-1.3 9.9-2.4 13-3.2q2.2-0.5 3.5-0.9 1.2-0.3 1.3-0.2z"/>
						</g>
					</g>
				</g>
			</g>
		</g>
	</g>
</svg>