<svg version="1.2" xmlns="http://www.w3.org/2000/svg" viewBox="0 0 1000 1000" width="1000" height="1000">
	<title>4891582</title>
	<style>
		.s0 { fill: #eeeeff } 
		.s1 { fill: none;stroke: #7371fc;stroke-miterlimit:10;stroke-width: 2 } 
		.s2 { fill: #32338c } 
		.s3 { fill: #7371fc } 
		.s4 { fill: #f8ab73 } 
		.s5 { fill: #fe814b } 
		.s6 { fill: #fe642f } 
		.s7 { fill: #f8ab74 } 
		.s8 { fill: #fe632e } 
		.s9 { fill: #32328c } 
		.s10 { fill: #fe642e } 
		.s11 { opacity: .4;mix-blend-mode: multiply;fill: #f8ab74 } 
		.s12 { fill: #91c4fb } 
		.s13 { fill: #443dc3 } 
		.s14 { fill: #fefffd } 
		.s15 { fill: none;stroke: #32338c;stroke-linecap: round;stroke-linejoin: round;stroke-width: 8.1 } 
		.s16 { fill: #ffffff } 
		.s17 { fill: none;stroke: #32338c;stroke-linecap: round;stroke-linejoin: round;stroke-width: 7.8 } 
		.s18 { fill: #eeeefe } 
		.s19 { fill: none;stroke: #fe814b;stroke-linecap: round;stroke-linejoin: round;stroke-width: 6.4 } 
		.s20 { fill: none;stroke: #91c4fb;stroke-linecap: round;stroke-linejoin: round;stroke-width: 6.4 } 
		.s21 { mix-blend-mode: multiply;fill: #91c4fb } 
		.s22 { fill: #f8ab72 } 
	</style>
	<g id="BACKGROUND">
		<g id="&lt;Group&gt;">
			<path id="&lt;Path&gt;" class="s0" d="m161.8 746.4c-106.4-125.3-69.1-311-5.8-367.3 63.4-56.3 163.9-87.2 217.7-152.9 53.9-65.8 115.9-112.9 229.2-79 113.4 34 111.7 122.1 145.7 176.6 34 54.6 185.6 85 177 225-8.6 139.9-104.9 139.7-148.7 174.2-43.9 34.4-113.2 197.3-251.7 199-169.8 2-273.3-69.6-363.4-175.6z"/>
			<g id="&lt;Group&gt;">
				<g id="&lt;Group&gt;" style="opacity: .3">
					<path id="&lt;Compound Path&gt;" fill-rule="evenodd" class="s1" d="m569.6 71.9l6 20.8c5.5 1.5 10.7 3.7 15.6 6.4l19.2-10.6 17.1 17-10.6 18.9c2.7 4.8 4.9 10 6.4 15.4l21.1 5.9v24.1l-21.1 5.9c-1.5 5.4-3.7 10.6-6.4 15.3l10.6 19-17.1 17-19.2-10.6c-4.9 2.7-10.1 4.9-15.6 6.4l-6 20.8h-24.3l-6-20.8c-5.5-1.5-10.8-3.7-15.6-6.4l-19.2 10.6-17.2-17 10.7-19c-2.8-4.7-4.9-9.9-6.4-15.3l-21.2-5.9v-24.1l21.2-5.9c1.5-5.4 3.6-10.6 6.4-15.4l-10.7-18.9 17.2-17 19.2 10.6c4.8-2.7 10.1-4.9 15.6-6.4l6-20.8zm-57.7 85.8c0 24.8 20.5 44.9 45.5 44.9 25 0 45.4-20.1 45.4-44.9 0-24.7-20.4-44.8-45.4-44.8-25 0-45.5 20.1-45.5 44.8z"/>
				</g>
				<g id="&lt;Group&gt;" style="opacity: .3">
					<path id="&lt;Compound Path&gt;" fill-rule="evenodd" class="s1" d="m916.7 467.2l4 13.8c3.6 1 7.1 2.4 10.3 4.3l12.8-7.1 11.4 11.3-7.1 12.6c1.9 3.2 3.3 6.7 4.3 10.3l14.1 3.9v16l-14.1 3.9c-1 3.6-2.4 7.1-4.3 10.3l7.1 12.6-11.4 11.3-12.8-7.1c-3.2 1.8-6.7 3.3-10.3 4.3l-4 13.8h-16.2l-4-13.8c-3.7-1-7.1-2.5-10.4-4.3l-12.7 7.1-11.5-11.3 7.1-12.6c-1.8-3.2-3.2-6.7-4.2-10.3l-14.1-3.9v-16l14.1-3.9c1-3.6 2.4-7.1 4.2-10.3l-7.1-12.6 11.5-11.3 12.7 7.1c3.3-1.9 6.7-3.3 10.4-4.3l4-13.8zm-38.4 57.1c0 16.4 13.6 29.9 30.3 29.9 16.6 0 30.2-13.5 30.2-29.9 0-16.4-13.6-29.9-30.2-29.9-16.7 0-30.3 13.5-30.3 29.9z"/>
				</g>
				<g id="&lt;Group&gt;" style="opacity: .3">
					<path id="&lt;Compound Path&gt;" fill-rule="evenodd" class="s1" d="m209.6 503.7l8.7 30.2c7.9 2.1 15.5 5.2 22.5 9.1l27.8-15.2 24.8 24.5-15.5 27.4c4 6.9 7.1 14.4 9.3 22.2l30.6 8.6v34.7l-30.6 8.6c-2.2 7.8-5.3 15.3-9.3 22.2l15.5 27.4-24.8 24.5-27.8-15.2c-7 3.9-14.6 7-22.5 9.2l-8.7 30.1h-35.2l-8.7-30.1c-7.9-2.2-15.5-5.3-22.5-9.2l-27.7 15.2-24.9-24.5 15.5-27.4c-4-6.9-7.1-14.4-9.3-22.2l-30.6-8.6v-34.7l30.6-8.6c2.2-7.8 5.3-15.3 9.3-22.2l-15.5-27.4 24.9-24.5 27.7 15.2c7-3.9 14.6-7 22.5-9.1l8.7-30.2zm-83.3 124.2c0 35.7 29.5 64.8 65.7 64.8 36.2 0 65.7-29.1 65.7-64.8 0-35.8-29.5-64.9-65.7-64.9-36.2 0-65.7 29.1-65.7 64.9z"/>
				</g>
			</g>
			<g id="&lt;Group&gt;">
				<g id="&lt;Group&gt;">
					<path id="&lt;Path&gt;" class="s2" d="m487.4 890.9c4.5-10.4 13-18.7 23.7-23.2l0.4-0.1-1.5-0.7c-10-4.5-18-12.4-22.4-22.2l-0.2-0.4-1.1 2.2c-4.3 8.4-11.2 15.3-19.9 19.5l-3 1.6h0.1c10.3 4.3 18.6 12.1 23.3 21.9z"/>
					<path id="&lt;Path&gt;" class="s3" d="m517.7 905.1c2.2-5.2 6.5-9.3 11.9-11.5l0.1-0.1-0.7-0.3c-5-2.3-9-6.2-11.2-11.1l-0.1-0.3-0.6 1.1c-2.1 4.3-5.6 7.7-9.9 9.8l-1.5 0.8h0.1c5.1 2.1 9.2 6 11.6 11z"/>
				</g>
				<g id="&lt;Group&gt;">
					<path id="&lt;Path&gt;" class="s3" d="m906.1 304.1c-3.4-7.8-9.8-14-17.8-17.3l-0.2-0.1 1.1-0.5c7.5-3.3 13.4-9.2 16.7-16.6l0.2-0.3 0.8 1.6c3.2 6.3 8.4 11.5 14.9 14.7l2.3 1.1-0.2 0.1c-7.7 3.1-13.9 8.9-17.3 16.3z"/>
					<path id="&lt;Path&gt;" class="s2" d="m883.4 314.8c-1.7-3.9-4.8-7-8.8-8.7h-0.2l0.6-0.3c3.7-1.6 6.7-4.6 8.4-8.3v-0.1l0.4 0.8c1.6 3.1 4.3 5.7 7.5 7.3l1.1 0.6c-3.9 1.6-7 4.5-8.7 8.2z"/>
				</g>
				<g id="&lt;Group&gt;">
					<path id="&lt;Path&gt;" class="s3" d="m107.4 479.2c-3.4-7.7-9.7-13.9-17.8-17.3l-0.2-0.1 1.1-0.5c7.5-3.3 13.4-9.2 16.7-16.6l0.2-0.3 0.8 1.6c3.2 6.4 8.4 11.5 14.9 14.7l2.3 1.1-0.2 0.1c-7.6 3.1-13.8 9-17.3 16.3z"/>
					<path id="&lt;Path&gt;" class="s2" d="m84.8 489.9c-1.7-3.9-4.9-7-8.9-8.6l-0.1-0.1 0.5-0.2c3.7-1.7 6.7-4.7 8.4-8.3l0.1-0.2 0.4 0.8c1.6 3.2 4.2 5.7 7.4 7.3l1.1 0.6c-3.9 1.6-7 4.5-8.7 8.2z"/>
				</g>
			</g>
		</g>
	</g>
	<g id="OBJECTS">
		<g id="&lt;Group&gt;">
			<path id="&lt;Path&gt;" class="s2" d="m715.6 231.4c14.7 1.9 28.9 6.7 42.1 13.5 38.3 19.9 72.7 47.2 100.9 79.9 11.3 13.2 22.1 28.2 23.9 45.6 2 19.8-8 38.7-17.6 56.1-8.1 14.6-17.8 30.5-33.9 34.7-13.1 3.4-26.9-2.1-38.8-8.7-46.5-25.9-81.4-70.1-101.4-119.4-9.7-24-13.4-46.7-11.7-72.4 0.5-7.2-18.4-7.8-13.3-13.5 7.2-8.1 29.6-18.4 49.8-15.8z"/>
			<g id="&lt;Group&gt;">
				<path id="&lt;Path&gt;" class="s4" d="m833.3 274.6q-2.3 3.1-5 5.8c-6.4 6.1-14.2 10.5-22.4 13.8-6.1 2.5-12.5 4.4-19 4.3q-1.1 0-2.2-0.1c0.3 1.2 0.8 2.4 1.5 3.5 2.4 3.3 6.9 4.1 11 4.3 10.9 0.7 22-1.2 32.1-5.5 1.1-0.5 2.2-1 2.9-2.1 0.6-1 0.5-2.3 0.5-3.5-0.4-7 0-13.8 0.6-20.5z"/>
				<path id="&lt;Path&gt;" class="s5" d="m805.9 294.2c8.2-3.3 16-7.7 22.4-13.8q2.7-2.7 5-5.8c1.2-11.1 3.1-22 3.6-33.3-11.3-2.7-29.7 9.1-37.6 16.6-10.2 9.6-16.7 23.7-15.1 37.6q0.1 1.5 0.5 2.9 1.1 0.1 2.2 0.1c6.5 0.1 12.9-1.8 19-4.3z"/>
			</g>
			<path id="&lt;Path&gt;" class="s6" d="m882.5 190.9c6.9-9.7 13.9-19.6 18.2-30.8 4.3-11.1 5.6-23.9 1-34.9-4.6-11.1-15.9-19.7-27.8-18.7 3.7-7.6-0.9-16.1-7.1-21.9-6.3-5.8-14.8-8.4-23.3-9.7-23.8-3.7-48.2 1.3-72.3 0.3-8.9-0.4-18-1.7-25.7-6.1-7.7-4.5-13.9-12.5-13.9-21.4-3.1 6.7-6.6 14.9-6.1 22.4 0.6 7.4 4.6 15 11.5 17.9-6.9 2-14.2-2.3-18.6-7.9-4.5-5.7-6.3-13-6.8-20.2-7.6 4.8-12.9 12.8-15.7 21.3-2.6 7.8-4 16.1-2.6 24.2 1.4 8.1 5.7 15.9 12.6 20.3-3.3 0.6-6.9 0.9-9.9-0.4-0.2 4.6 2.4 8.9 5.9 11.8 3.5 2.9 7.9 4.5 12.3 5.8 15 4.5 30.8 5.7 46.1 8.7 36.3 7.1 69.9 23.9 104.4 37.2 4.8 1.9 12.8 3.4 17.8 2.1z"/>
			<g id="&lt;Group&gt;">
				<path id="&lt;Path&gt;" class="s7" d="m844.6 185.5c-5.2-18.4-2.4-38.3 3.3-56.5-18.1 17-44.8 21.3-69.5 17.9 8.2-4 15.7-9.6 21.8-16.4-24.5-1.6-49.8 4.4-74.3 2.1-2.8 8.5-4.6 17.3-5.6 25.5-2.2 17.6-0.8 35.4 2.1 52.9 3.2 19.1 8.5 38.5 20.6 53.6 12.1 15.1 32.2 25 51 20.2 7-1.8 13.3-5.4 19.2-9.6 21.7-15.4 37.4-37.9 48-62.3-7.8-7.3-13.6-17.1-16.6-27.4z"/>
				<path id="&lt;Path&gt;" class="s6" d="m800.2 130.5c-6.1 6.8-13.6 12.4-21.8 16.4 24.7 3.4 51.4-0.9 69.5-17.9-5.7 18.2-8.5 38.1-3.3 56.5 3 10.3 8.8 20.1 16.6 27.4q2.1-4.8 3.9-9.6c5.1-14 8.9-28.6 9-43.4 0.1-14.9-3.5-30-12.1-42.1-12.1-17.1-32.6-26.5-53.1-30.4-10.1-1.9-20.5-2.6-30.5-0.6-13.3 2.6-31.5 10.1-40.1 21.3-5.4 7-9.5 15.6-12.4 24.5 24.5 2.3 49.8-3.7 74.3-2.1z"/>
			</g>
			<g id="&lt;Group&gt;">
				<path id="&lt;Path&gt;" class="s4" d="m851 185.6c-2.9 7.6-2.9 16.1-1.4 24.1 1.1 6.2 3.6 12.9 9.3 15.6 4.2 2 9.4 1.2 13.4-1.1 4.1-2.3 7.2-6 9.8-9.8 4-5.8 7.2-12.3 8-19.3 0.8-6.9-1-14.4-5.8-19.5-4.7-5-12.9-8.7-19.4-5.7-6.5 3-11.4 9.1-13.9 15.7z"/>
				<g id="&lt;Group&gt;">
					<path id="&lt;Path&gt;" class="s2" d="m881.1 183c-2.1-2.6-5.5-3.6-8.6-3.3-3.1 0.3-5.9 2.1-7.9 4.5-2 2.4-3.3 5.4-4.1 8.4-0.8 3.1-1.2 6.3-1.6 9.6l-1.9-0.8c1.9-2.4 4.8-4.3 8.2-4.1 1.7 0.1 3.3 0.9 4.4 2.1 1.2 1.2 1.9 2.7 2.2 4.2 0.3 1.5 0.3 3.1-0.2 4.6-0.5 1.5-1.3 2.8-2.3 3.8-2.1 2.2-4.8 3.5-7.6 4.1 2.6-1 5.1-2.5 6.8-4.7 0.8-1.1 1.5-2.3 1.8-3.6 0.3-1.2 0.2-2.6-0.1-3.8-0.7-2.6-2.7-4.6-5.1-4.7-2.4 0-4.8 1.5-6.4 3.5l-2.4 2.9 0.4-3.8c0.4-3.2 0.8-6.6 1.7-9.8 1-3.3 2.5-6.5 4.9-9.1 2.3-2.5 5.6-4.3 9.1-4.4 3.4-0.1 7.1 1.5 8.7 4.4z"/>
				</g>
			</g>
			<g id="&lt;Group&gt;">
				<path id="&lt;Path&gt;" class="s2" d="m777.4 164.8c1.8 9.1 1.7 18.6 0.1 27.8-1.7 9.2-4.9 18.2-9.7 26.2l-0.2-0.8c1.3 0.8 2.7 1.6 4.2 2.2q2.3 0.9 4.7 1.4-2.5-0.1-4.9-0.8c-1.6-0.4-3.1-1-4.6-1.7l-0.6-0.3 0.3-0.6c4-8.3 6.9-17 8.6-26 1.8-9 2.5-18.1 2.1-27.4z"/>
			</g>
			<g id="&lt;Group&gt;">
				<path id="&lt;Path&gt;" class="s8" d="m771.2 247.2c2.1 1.4 4.3 2.3 6.6 2.5 6.3 0.6 12.2-5.1 16.3-10.5-8.3-0.6-16.8 2.4-22.9 8z"/>
				<path id="&lt;Path&gt;" class="s2" d="m775.5 236.8c-8-0.8-19.8-8-19.8-8 0 0 6.7 12.8 15.5 18.4 6.1-5.6 14.6-8.6 22.9-8 3.6-4.8 5.9-9.3 5.9-9.3 0 0-16.5 7.7-24.5 6.9z"/>
			</g>
			<path id="&lt;Path&gt;" class="s9" d="m754.3 183.4c0.2 4.3-1.8 7.8-4.6 8-2.7 0.1-5.1-3.2-5.3-7.5-0.2-4.2 1.8-7.8 4.6-7.9 2.7-0.2 5.1 3.2 5.3 7.4z"/>
			<path id="&lt;Path&gt;" class="s9" d="m809.9 184.5c0.2 4.2-1.8 7.8-4.6 7.9-2.7 0.2-5.1-3.2-5.3-7.4-0.2-4.3 1.8-7.9 4.6-8 2.7-0.1 5.1 3.2 5.3 7.5z"/>
			<g id="&lt;Group&gt;">
				<path id="&lt;Path&gt;" class="s10" d="m733.1 166.9c0.7-2.6 1.9-5.1 3.5-7.4q1.2-1.7 2.7-3.3 1.6-1.5 3.4-2.8c1.2-0.8 2.5-1.7 3.8-2.5 1.4-0.7 2.9-1.1 4.5-1 3.1 0.2 6.4 1.4 8.3 4.5l-0.3 0.9c-3 1.7-4.9 2.7-6.9 3.5-0.9 0.4-1.9 0.5-2.9 0.6-1.1 0-2.2 0.1-3.2 0.4q-1.6 0.5-3.2 1.2-1.5 0.7-3.1 1.7c-2 1.2-3.9 2.9-5.8 4.7z"/>
			</g>
			<g id="&lt;Group&gt;">
				<path id="&lt;Path&gt;" class="s10" d="m819.1 167.4c-1.8-1.8-3.8-3.5-5.8-4.7q-1.5-1-3.1-1.7-1.6-0.7-3.1-1.2c-1.1-0.3-2.2-0.4-3.2-0.4-1.1-0.1-2.1-0.2-3-0.6-2-0.8-3.9-1.8-6.9-3.5l-0.3-0.9c1.9-3.1 5.2-4.3 8.3-4.5 1.6-0.1 3.1 0.3 4.5 1 1.4 0.8 2.6 1.7 3.8 2.5q1.9 1.3 3.4 2.8 1.5 1.6 2.7 3.3c1.6 2.3 2.8 4.8 3.5 7.4z"/>
			</g>
			<g id="&lt;Group&gt;">
				<path id="&lt;Path&gt;" class="s11" d="m751.5 219.3c0 3.4-4.6 6.2-10.3 6.2-5.7 0-10.3-2.8-10.3-6.2 0-3.4 4.6-6.1 10.3-6.1 5.7 0 10.3 2.7 10.3 6.1z"/>
				<path id="&lt;Path&gt;" class="s11" d="m822.8 219.3c0 3.4-4.6 6.2-10.3 6.2-5.6 0-10.2-2.8-10.2-6.2 0-3.4 4.6-6.1 10.2-6.1 5.7 0 10.3 2.7 10.3 6.1z"/>
			</g>
			<g id="&lt;Group&gt;">
				<g id="&lt;Group&gt;">
					<path id="&lt;Path&gt;" class="s7" d="m732 48c-1.5 7-0.4 14.4 2.7 20.7 2.9 6.3 7.8 11.8 14 15.1 6.1 3.2 13.2 4.2 20.3 4.4 7 0.1 14.2-0.4 21.2-1.1 14.2-1.1 28.5-3 42.9-1.9 7.2 0.7 14.5 2.4 20.5 6.6 3 2.2 5.5 4.8 7.3 8 1.8 3.1 2.9 6.7 2.7 10.3-0.1-3.6-1.3-7-3.2-10-1.9-3-4.5-5.5-7.4-7.4-5.9-3.9-13-5.3-20-5.8-14.2-0.7-28.3 1.2-42.6 2.5-7.1 0.5-14.3 1-21.5 0.8-7.1-0.2-14.6-1.2-21.1-4.9-6.4-3.7-11.3-9.5-14.1-16.2-2.8-6.6-3.7-14.2-1.7-21.1z"/>
				</g>
				<g id="&lt;Group&gt;">
					<path id="&lt;Path&gt;" class="s7" d="m855.5 122.3c-1.2-8.2-7.5-14.8-14.8-17.9-7.5-3.2-15.9-3.3-23.8-1.9-8 1.4-15.8 4-23.7 6.3-7.9 2.2-15.9 4.2-24.1 5.4-8.2 1.1-16.5 1.3-24.8 0.2-8.1-1.2-16.5-3.5-23.2-8.7-6.7-5.1-11.5-12.4-13.5-20.5-1.8-8.1-0.9-16.8 2.8-24.2-3.2 7.5-3.9 16.1-1.7 23.9 2.1 7.8 6.9 14.8 13.4 19.5 6.5 4.6 14.5 6.9 22.5 8 8 1 16.2 0.7 24.2-0.4 8.1-1.1 16-3 23.9-5.2 7.8-2.1 15.7-4.8 23.9-6 8.2-1.2 16.9-0.9 24.5 2.6 3.8 1.8 7.2 4.4 9.7 7.7 2.6 3.2 4.4 7.1 4.7 11.2z"/>
				</g>
				<g id="&lt;Group&gt;">
					<path id="&lt;Path&gt;" class="s7" d="m847.1 118.5c-2.6-4.3-7.2-6.9-11.9-7.7-4.7-0.7-9.6 0.1-14 2-4.5 1.8-8.5 4.7-12.2 7.9-3.7 3.3-7.2 6.8-11 10.2 3.1-3.9 6.2-7.9 9.8-11.4 3.6-3.6 7.7-6.8 12.5-8.8 2.4-0.9 4.9-1.6 7.5-2 2.6-0.2 5.3-0.2 7.8 0.4 2.5 0.6 4.9 1.8 7 3.3 2 1.7 3.6 3.7 4.5 6.1z"/>
				</g>
				<g id="&lt;Group&gt;">
					<path id="&lt;Path&gt;" class="s7" d="m875.2 118.1c2.8-1 6.1-0.8 8.9 0.3 2.9 1.1 5.4 3.1 7.4 5.6 3.8 4.9 5.4 11.2 5.6 17.2 0.1 6.2-1.2 12.3-3.5 17.8q-1.8 4.2-4 8.1c-1.6 2.6-3.3 5.1-5.1 7.4 1.4-2.6 2.9-5.2 4.1-7.9q2-4 3.4-8.2c1.9-5.5 3-11.3 2.8-17.1-0.1-5.7-1.5-11.6-4.7-16.3-1.6-2.4-3.8-4.4-6.4-5.6-2.6-1.3-5.6-1.8-8.5-1.3z"/>
				</g>
				<g id="&lt;Group&gt;">
					<path id="&lt;Path&gt;" class="s7" d="m859.5 127.6c2.1-0.5 4.4 0 6.3 1 2 1 3.6 2.6 4.8 4.5 2.5 3.6 3.8 7.8 4.7 12 0.8 4.2 0.9 8.6 0.4 12.8q-0.4 3.2-1.4 6.3-0.5 1.5-1 3c-0.2 0.5-0.4 1-0.8 1.5-0.3 0.4-0.9 0.8-1.4 0.5 0.6 0.2 0.9-0.3 1.2-0.7 0.2-0.4 0.3-0.9 0.4-1.5q0.3-1.5 0.6-3c0.3-2.1 0.5-4.2 0.6-6.2 0.2-4.1 0-8.3-0.8-12.3-0.8-4-1.9-8-3.9-11.5-1-1.7-2.3-3.3-4-4.5-1.6-1.2-3.6-1.9-5.7-1.9z"/>
				</g>
			</g>
		</g>
		<g id="&lt;Group&gt;">
			<path id="&lt;Path&gt;" class="s0" d="m424.3 461.2l-250.8 32.3-35.2-272.5 250.8-32.4z"/>
			<path id="&lt;Path&gt;" class="s3" d="m389.1 188.6l-250.8 32.4-7.6-59.4 250.7-32.4z"/>
			<path id="&lt;Path&gt;" class="s12" d="m173.5 493.5l-34.1 4.4-35.2-272.5 34.1-4.4z"/>
			<path id="&lt;Path&gt;" class="s13" d="m138.3 221l-34.1 4.4-7.7-59.4 34.2-4.4z"/>
			<path id="&lt;Path&gt;" class="s14" d="m202.7 285.1l-38.3 4.9-6.7-52 38.3-5z"/>
			<path id="&lt;Path&gt;" class="s14" d="m248.2 279.2l-38.3 4.9-6.7-52 38.3-4.9z"/>
			<path id="&lt;Path&gt;" class="s14" d="m293.7 273.3l-38.3 5-6.7-52.1 38.3-4.9z"/>
			<path id="&lt;Path&gt;" class="s14" d="m339.2 267.5l-38.3 4.9-6.7-52 38.3-5z"/>
			<path id="&lt;Path&gt;" class="s14" d="m384.7 261.6l-38.3 4.9-6.8-52 38.4-4.9z"/>
			<path id="&lt;Path&gt;" class="s14" d="m210.3 343.9l-38.3 4.9-6.7-52 38.3-4.9z"/>
			<path id="&lt;Path&gt;" class="s14" d="m255.8 338l-38.3 5-6.7-52.1 38.3-4.9z"/>
			<path id="&lt;Path&gt;" class="s14" d="m301.3 332.1l-38.3 5-6.7-52 38.3-5z"/>
			<path id="&lt;Path&gt;" class="s14" d="m346.8 326.3l-38.3 4.9-6.8-52 38.4-4.9z"/>
			<path id="&lt;Path&gt;" class="s14" d="m392.3 320.4l-38.4 5-6.7-52.1 38.3-4.9z"/>
			<path id="&lt;Path&gt;" class="s14" d="m217.9 402.7l-38.3 5-6.7-52.1 38.3-4.9z"/>
			<path id="&lt;Path&gt;" class="s14" d="m263.4 396.8l-38.3 5-6.7-52 38.3-5z"/>
			<path id="&lt;Path&gt;" class="s14" d="m308.9 391l-38.3 4.9-6.7-52 38.3-5z"/>
			<path id="&lt;Path&gt;" class="s14" d="m354.4 385.1l-38.4 5-6.7-52.1 38.4-4.9z"/>
			<path id="&lt;Path&gt;" class="s14" d="m399.9 379.2l-38.4 5-6.7-52 38.3-5z"/>
			<path id="&lt;Path&gt;" class="s14" d="m225.5 461.5l-38.3 5-6.7-52 38.3-5z"/>
			<path id="&lt;Path&gt;" class="s14" d="m271 455.7l-38.3 4.9-6.7-52 38.3-5z"/>
			<path id="&lt;Path&gt;" class="s14" d="m316.5 449.8l-38.3 4.9-6.8-52 38.4-4.9z"/>
			<path id="&lt;Path&gt;" class="s14" d="m362 443.9l-38.4 5-6.7-52.1 38.3-4.9z"/>
			<path id="&lt;Path&gt;" class="s14" d="m407.4 438.1l-38.3 4.9-6.7-52 38.3-5z"/>
			<path id="&lt;Path&gt;" class="s15" d="m116.7 163.4l-2.2-16.9c-1.4-10.6 6.1-20.3 16.7-21.6l11.7-1.5c10.6-1.4 20.3 6.1 21.7 16.6l3.7 29.1c1.4 10.6-6.1 20.3-16.7 21.7"/>
			<path id="&lt;Path&gt;" class="s15" d="m150.1 159.1l-2.1-16.9c-1.4-10.6 6.1-20.3 16.7-21.7l11.7-1.5c10.6-1.3 20.2 6.1 21.6 16.7l3.8 29.1c1.3 10.6-6.1 20.3-16.7 21.6"/>
			<path id="&lt;Path&gt;" class="s15" d="m183.6 154.7l-2.2-16.8c-1.3-10.6 6.1-20.3 16.7-21.7l11.7-1.5c10.6-1.3 20.3 6.1 21.7 16.7l3.7 29.1c1.4 10.6-6.1 20.3-16.7 21.6"/>
			<path id="&lt;Path&gt;" class="s15" d="m217.1 150.4l-2.2-16.9c-1.4-10.5 6.1-20.2 16.7-21.6l11.7-1.5c10.6-1.4 20.3 6.1 21.6 16.7l3.8 29.1c1.3 10.6-6.1 20.2-16.7 21.6"/>
			<path id="&lt;Path&gt;" class="s15" d="m250.5 146.1l-2.2-16.9c-1.3-10.6 6.1-20.2 16.7-21.6l11.8-1.5c10.5-1.4 20.2 6.1 21.6 16.7l3.7 29.1c1.4 10.5-6.1 20.2-16.6 21.6"/>
			<path id="&lt;Path&gt;" class="s15" d="m284 141.8l-2.2-16.9c-1.4-10.6 6.1-20.3 16.7-21.6l11.7-1.5c10.6-1.4 20.3 6.1 21.6 16.7l3.8 29c1.4 10.6-6.1 20.3-16.7 21.7"/>
			<path id="&lt;Path&gt;" class="s15" d="m317.4 137.5l-2.2-16.9c-1.3-10.6 6.2-20.3 16.7-21.6l11.8-1.5c10.6-1.4 20.2 6.1 21.6 16.6l3.8 29.1c1.3 10.6-6.2 20.3-16.7 21.7"/>
		</g>
		<g id="&lt;Group&gt;">
			<path id="&lt;Path&gt;" class="s2" d="m803 511.7c0 169.3-137.2 306.5-306.5 306.5-169.2 0-306.4-137.2-306.4-306.5 0-169.2 137.2-306.4 306.4-306.4 169.3 0 306.5 137.2 306.5 306.4z"/>
			<path id="&lt;Path&gt;" class="s3" d="m817.4 511.7c0 169.3-137.2 306.5-306.4 306.5-169.3 0-306.5-137.2-306.5-306.5 0-169.2 137.2-306.4 306.5-306.4 169.2 0 306.4 137.2 306.4 306.4z"/>
			<g id="&lt;Group&gt;">
				<path id="&lt;Path&gt;" class="s16" d="m558.7 663.1c55.4-22.3 105.5-59.5 138.1-109.4 37.8-58.1 49.2-128.4 45.9-198.4-50.2-74.3-135.3-123.2-231.7-123.2-154.5 0-279.7 125.2-279.7 279.6 0 51.2 13.8 99.2 37.8 140.5 89.8 42.4 197.3 48.1 289.6 10.9z"/>
				<path id="&lt;Path&gt;" class="s0" d="m742.7 355.3c3.3 70-8.1 140.3-45.9 198.4-32.6 49.9-82.7 87.1-138.1 109.4-92.3 37.2-199.8 31.5-289.6-10.9 48.4 83.2 138.6 139.2 241.9 139.2 154.4 0 279.6-125.2 279.6-279.7 0-57.9-17.7-111.8-47.9-156.4z"/>
			</g>
			<path id="&lt;Path&gt;" class="s2" d="m507.9 515.4l-131.6-117.3 137.7 110z"/>
			<path id="&lt;Path&gt;" class="s2" d="m516.2 508.4l60.7 222.9-71.2-216.2z"/>
			<path id="&lt;Path&gt;" class="s5" d="m531.7 511.7c0 11.5-9.3 20.8-20.7 20.8-11.5 0-20.8-9.3-20.8-20.8 0-11.4 9.3-20.7 20.8-20.7 11.4 0 20.7 9.3 20.7 20.7z"/>
			<g id="&lt;Group&gt;">
				<path id="&lt;Path&gt;" class="s17" d="m511 232.1v59.5"/>
				<path id="&lt;Path&gt;" class="s17" d="m511 731.9v59.5"/>
				<path id="&lt;Path&gt;" class="s17" d="m790.6 511.7h-59.5"/>
				<path id="&lt;Path&gt;" class="s17" d="m290.8 511.7h-59.5"/>
			</g>
			<g id="&lt;Group&gt;">
				<path id="&lt;Path&gt;" class="s17" d="m274.9 361.8l50.2 31.9"/>
				<path id="&lt;Path&gt;" class="s17" d="m696.8 629.8l50.2 31.9"/>
				<path id="&lt;Path&gt;" class="s17" d="m660.9 275.7l-31.9 50.2"/>
				<path id="&lt;Path&gt;" class="s17" d="m392.9 697.6l-31.9 50.2"/>
			</g>
			<g id="&lt;Group&gt;">
				<path id="&lt;Path&gt;" class="s17" d="m747 361.8l-50.2 31.9"/>
				<path id="&lt;Path&gt;" class="s17" d="m325.1 629.8l-50.2 31.9"/>
				<path id="&lt;Path&gt;" class="s17" d="m361 275.7l31.9 50.2"/>
				<path id="&lt;Path&gt;" class="s17" d="m629 697.6l31.9 50.2"/>
			</g>
		</g>
		<g id="&lt;Group&gt;">
			<path id="&lt;Path&gt;" class="s7" d="m412.6 814.4l-269.8 102.2-56.3-148.3 269.9-102.3z"/>
			<path id="&lt;Path&gt;" class="s5" d="m249.6 791.3l-163.1-23 169.7 40.5 100.2-142.8z"/>
		</g>
		<g id="&lt;Group&gt;">
			<g id="&lt;Group&gt;">
				<path id="&lt;Path&gt;" class="s2" d="m826.1 957.5l-251.6-59.3 76.6-324.6 251.6 59.4z"/>
				<path id="&lt;Path&gt;" class="s12" d="m830.7 958.6l-251.6-59.3 76.6-324.6 251.6 59.4z"/>
				<path id="&lt;Path&gt;" class="s16" d="m814.6 934.9l-210.4-49.7 64.7-274.2 210.4 49.6z"/>
				<path id="&lt;Path&gt;" class="s2" d="m827.3 578.8l-75.3-17.7c-12.1-2.9-24.2 4.6-27.1 16.7l-2.9 12.6 119.1 28.1 3-12.6c2.8-12.1-4.7-24.2-16.8-27.1z"/>
				<g id="&lt;Group&gt;">
					<path id="&lt;Path&gt;" class="s18" d="m718.9 665.4c-2.6 11.2-13.8 18.1-25 15.4-11.1-2.6-18.1-13.8-15.4-25 2.6-11.1 13.8-18.1 25-15.4 11.2 2.6 18.1 13.8 15.4 25z"/>
					<path id="&lt;Path&gt;" class="s19" d="m689 651.8l8.7 14.1 25-15.5"/>
					<g id="&lt;Group&gt;">
						<path id="&lt;Path&gt;" class="s20" d="m739.2 656.8l114.5 27.1"/>
						<path id="&lt;Path&gt;" class="s20" d="m736.2 669.5l114.5 27"/>
						<path id="&lt;Path&gt;" class="s20" d="m733.2 682.1l114.5 27"/>
					</g>
				</g>
				<g id="&lt;Group&gt;">
					<path id="&lt;Path&gt;" class="s18" d="m703.7 729.8c-2.6 11.2-13.8 18.1-25 15.4-11.1-2.6-18.1-13.8-15.4-25 2.6-11.1 13.8-18.1 25-15.4 11.2 2.6 18.1 13.8 15.4 25z"/>
					<path id="&lt;Path&gt;" class="s19" d="m673.8 716.2l8.7 14.1 25-15.5"/>
					<g id="&lt;Group&gt;">
						<path id="&lt;Path&gt;" class="s20" d="m724 721.2l114.5 27"/>
						<path id="&lt;Path&gt;" class="s20" d="m721 733.9l114.5 27"/>
						<path id="&lt;Path&gt;" class="s20" d="m718 746.5l114.5 27"/>
					</g>
				</g>
				<g id="&lt;Group&gt;">
					<path id="&lt;Path&gt;" class="s18" d="m688.5 794.2c-2.6 11.2-13.8 18.1-25 15.4-11.1-2.6-18.1-13.8-15.4-25 2.6-11.1 13.8-18.1 25-15.4 11.2 2.6 18.1 13.8 15.4 25z"/>
					<path id="&lt;Path&gt;" class="s19" d="m658.6 780.6l8.7 14.1 25-15.5"/>
					<g id="&lt;Group&gt;">
						<path id="&lt;Path&gt;" class="s20" d="m708.8 785.6l114.5 27"/>
						<path id="&lt;Path&gt;" class="s20" d="m705.8 798.3l114.5 27"/>
						<path id="&lt;Path&gt;" class="s20" d="m702.8 810.9l114.5 27"/>
					</g>
				</g>
				<path id="&lt;Path&gt;" class="s21" d="m854.6 641.6l-155.1-36.6c-4.9-1.1-7.9-6-6.8-10.9l2.4-10.1 172.9 40.8-2.4 10.1c-1.2 4.9-6.1 7.9-11 6.7z"/>
			</g>
			<g id="&lt;Group&gt;">
				<path id="&lt;Path&gt;" class="s18" d="m673.8 858.7c-2.6 11.2-13.8 18.1-25 15.4-11.2-2.6-18.1-13.8-15.5-25 2.7-11.1 13.9-18 25.1-15.4 11.1 2.6 18 13.8 15.4 25z"/>
				<path id="&lt;Path&gt;" class="s19" d="m643.9 845.1l8.7 14.1 24.9-15.5"/>
				<g id="&lt;Group&gt;">
					<path id="&lt;Path&gt;" class="s20" d="m694.1 850.1l114.5 27.1"/>
					<path id="&lt;Path&gt;" class="s20" d="m691.1 862.8l114.5 27"/>
					<path id="&lt;Path&gt;" class="s20" d="m688.1 875.4l114.5 27"/>
				</g>
			</g>
		</g>
		<g id="&lt;Group&gt;">
			<g id="&lt;Group&gt;">
				<path id="&lt;Path&gt;" class="s16" d="m833.3 338.5c-2.7 6.6-6 12.9-9.5 19.1-3.5 6.1-7.2 12.2-11.5 17.9 2.7-6.6 6.1-12.8 9.6-19 3.5-6.2 7.2-12.2 11.4-18z"/>
			</g>
			<g id="&lt;Group&gt;">
				<path id="&lt;Path&gt;" class="s2" d="m862.8 430.2c0 0-20.2 31.7-40.1 55.2-20 23.6-48.2 50.1-48.2 50.1l-150.7-63.1 22.2-51.6 110.3 34.1 63.5-90z"/>
				<g id="&lt;Group&gt;">
					<path id="&lt;Path&gt;" class="s22" d="m622.2 410.8l23.8 10-15.6 36.3-15.5-5.2-34.1 1.4-10-5c-3.6-1.9-5-6.4-3-10l2.7-4.9-2.4-1.9c-3.5-2.7-3.7-7.8-0.6-10.8l2.7-2.6-3.7-5c-2.6-3.6-1.4-8.6 2.5-10.7l3.7-2-1.2-6.6c-0.7-3.7 1.7-7.4 5.4-8.3 4.8-1.1 9.9-0.1 13.9 2.7z"/>
					<path id="&lt;Path&gt;" class="s22" d="m622.6 413.2c-7.2-15.5-14.6-31.4-15.9-48.4 0-0.8-0.1-1.8-0.8-2.2-0.4-0.3-0.9-0.4-1.4-0.4-4 0-7.7 2.9-9.1 6.7-1.4 3.7-0.9 8 0.8 11.6 0.4 0.8 0.8 1.6 0.8 2.5 0 0.8-0.4 1.5-0.8 2.1q-1.9 3.3-3.8 6.7c7.9 9.5 18.5 17.3 30.2 21.4z"/>
					<g id="&lt;Group&gt;">
						<path id="&lt;Path&gt;" class="s2" d="m608.8 402.9c-1.4-0.9-2.8-1.9-4.1-2.9-1.4-0.9-2.7-2-4-3.1-1.2-1-2.5-2.1-3.7-3.3-1.3-1.1-2.5-2.3-3.6-3.5 1.4 0.9 2.8 1.9 4.1 2.9 1.4 1 2.7 2 4 3.1 1.2 1.1 2.5 2.1 3.7 3.3 1.3 1.1 2.5 2.3 3.6 3.5z"/>
					</g>
				</g>
				<g id="&lt;Group&gt;">
					<path id="&lt;Path&gt;" class="s7" d="m601 199.6l36.4 14.1c4.8 1.8 7.7 6.6 7.2 11.6l-1.8 18.6-12.6 20.7c0 0-5.2-1.5-3.4-7.3 1.9-5.7 8.1-21.3 8.1-21.3v-10.9c0 0-6 25.3-11.7 30-5.7 4.7-26.3-4.5-31.9-9.1-2.7-2.2 2.1-9.3 2.8-20 0.7-11.2-2.5-25.9 6.9-26.4z"/>
					<g id="&lt;Group&gt;">
						<path id="&lt;Path&gt;" class="s2" d="m624.3 208.1c0.6 4.2 0.7 8.5 0.4 12.7-0.2 4.3-1 8.5-2.1 12.6-1.2 4.1-2.6 8.1-4.5 11.9-1.9 3.8-4.2 7.5-6.8 10.8 2.2-3.6 4.3-7.3 6-11.1 1.7-3.9 3.2-7.8 4.2-11.9 1.2-4 1.9-8.2 2.4-12.4 0.5-4.1 0.6-8.4 0.4-12.6z"/>
					</g>
					<g id="&lt;Group&gt;">
						<path id="&lt;Path&gt;" class="s2" d="m610.4 203.3c0.4 4.1 0.4 8.3 0.1 12.4-0.4 4.2-1.1 8.3-2 12.3-1 4.1-2.3 8.1-3.9 11.9q-1.2 2.9-2.6 5.6c-0.5 0.9-1 1.9-1.5 2.8-0.6 0.8-1.3 1.7-2.3 2 0.9-0.4 1.5-1.3 2-2.2 0.5-0.9 0.9-1.9 1.3-2.8q1.2-2.8 2.3-5.7c1.4-3.9 2.7-7.8 3.6-11.8 1-4 1.7-8.1 2.2-12.1 0.5-4.1 0.8-8.3 0.8-12.4z"/>
					</g>
				</g>
			</g>
		</g>
	</g>
</svg>