<svg version="1.2" xmlns="http://www.w3.org/2000/svg" viewBox="0 0 786 746" width="786" height="746">
	<title>6230543</title>
	<style>
		.s0 { fill: #ebebeb } 
		.s1 { fill: #f0f0f0 } 
		.s2 { fill: #fafafa } 
		.s3 { fill: #e6e6e6 } 
		.s4 { fill: #e0e0e0 } 
		.s5 { fill: #f5f5f5 } 
		.s6 { fill: #263238 } 
		.s7 { fill: #ffffff } 
		.s8 { opacity: .7;fill: #ffffff } 
		.s9 { fill: #407bff } 
		.s10 { opacity: .4;fill: #ffffff } 
		.s11 { opacity: .5;fill: #ffffff } 
		.s12 { fill: #000000 } 
		.s13 { opacity: .2;fill: #ffffff } 
		.s14 { opacity: .3;fill: #ffffff } 
		.s15 { fill: #dbb178 } 
		.s16 { opacity: .6;fill: #ffffff } 
		.s17 { opacity: .2;fill: #000000 } 
		.s18 { opacity: .9;fill: #ffffff } 
		.s19 { opacity: .1;fill: #000000 } 
		.s20 { opacity: .5;fill: #000000 } 
		.s21 { fill: #c0854b } 
		.s22 { fill: #a02724 } 
	</style>
	<g id="Background Complete">
		<path id="&lt;Path&gt;" class="s0" d="m723.6 687h66.2v0.5h-66.2z"/>
		<path id="&lt;Path&gt;" class="s0" d="m535.1 692.4h17.3v0.5h-17.3z"/>
		<path id="&lt;Path&gt;" class="s0" d="m683.2 668.4h38.4v0.5h-38.4z"/>
		<path id="&lt;Path&gt;" class="s0" d="m-5.1 671.8h86.4v0.5h-86.4z"/>
		<path id="&lt;Path&gt;" class="s0" d="m99.1 671.8h12.7v0.5h-12.7z"/>
		<path id="&lt;Path&gt;" class="s0" d="m152.9 680.2h187.4v0.5h-187.4z"/>
		<g id="&lt;Group&gt;">
			<path id="&lt;Compound Path&gt;" fill-rule="evenodd" class="s0" d="m366.8 565.6h-386.2c-6.3 0-11.4-5.1-11.4-11.4v-542.9c0-6.3 5.1-11.4 11.4-11.4h386.2c6.3 0 11.4 5.1 11.4 11.4v542.9c0 6.3-5.1 11.4-11.4 11.4zm-386.2-565.2c-6 0-10.9 4.9-10.9 10.9v542.9c0 6 4.9 10.9 10.9 10.9h386.2c6 0 10.9-4.9 10.9-10.9v-542.9c0-6-4.9-10.9-10.9-10.9z"/>
			<path id="&lt;Compound Path&gt;" fill-rule="evenodd" class="s0" d="m799.4 565.6h-386.2c-6.3 0-11.4-5.1-11.4-11.4v-542.9c0-6.3 5.1-11.4 11.4-11.4h386.2c6.3 0 11.4 5.1 11.4 11.4v542.9c0 6.3-5.1 11.4-11.4 11.4zm-386.2-565.2c-6 0-10.9 4.9-10.9 10.9v542.9c0 6 4.9 10.9 10.9 10.9h386.2c6 0 10.9-4.9 10.9-10.9v-542.9c0-6-4.9-10.9-10.9-10.9z"/>
		</g>
		<path id="&lt;Path&gt;" class="s0" d="m890 655.3h-1000v-0.5h1000z"/>
		<g id="&lt;Group&gt;">
			<g id="&lt;Group&gt;">
				<path id="&lt;Path&gt;" class="s1" d="m698.8 188.2h-53.8c-17 0-30.8-13.8-30.8-30.9v-53.8c0-17 13.8-30.8 30.8-30.8h53.8c17.1 0 30.9 13.8 30.9 30.8v53.8c0 17.1-13.8 30.9-30.9 30.9z"/>
				<g id="&lt;Group&gt;">
					<path id="&lt;Path&gt;" class="s2" d="m686.3 114.1c0 9.8-5 17.8-14.8 17.8-9.9 0-14.9-8-14.9-17.8 0-9.8 5-17.8 14.9-17.8 9.8 0 14.8 8 14.8 17.8z"/>
					<path id="&lt;Path&gt;" class="s2" d="m671.5 164.6h27.4v-16.4c0-9-12.3-16.3-27.4-16.3-15.2 0-27.5 7.3-27.5 16.3v16.4z"/>
				</g>
			</g>
			<g id="&lt;Group&gt;">
				<path id="&lt;Path&gt;" class="s3" d="m193 192.1h-37.6c-11.9 0-21.5-9.7-21.5-21.6v-37.5c0-12 9.6-21.6 21.5-21.6h37.6c11.9 0 21.5 9.6 21.5 21.6v37.5c0 11.9-9.6 21.6-21.5 21.6z"/>
				<g id="&lt;Group&gt;">
					<path id="&lt;Compound Path&gt;" class="s2" d="m172.6 156.1q1.4-2.1 4.1-4.6 2.1-1.8 3-3.1 0.9-1.2 0.9-2.8 0-2.3-1.8-3.6-1.8-1.3-4.7-1.3-2.9 0-5.1 1.2-2.3 1.2-3.8 3.3l-7.4-4.3q2.6-3.9 6.9-6 4.4-2.2 10.4-2.2 7 0 11.3 3 4.2 3 4.2 8.3 0 2.5-0.8 4.4-0.9 1.9-2 3.2-1.2 1.3-3.1 3-2.3 2-3.3 3.4-1.1 1.4-1.1 3.3h-9.2q0-3.1 1.5-5.2zm-1 18.9q-1.7-1.6-1.7-3.9 0-2.3 1.7-3.9 1.6-1.5 4.2-1.5 2.5 0 4.2 1.5 1.6 1.6 1.6 3.9 0 2.3-1.7 3.9-1.6 1.7-4.1 1.7-2.5 0-4.2-1.7z"/>
				</g>
			</g>
			<path id="&lt;Path&gt;" class="s0" d="m722.3 450h-29c-9.2 0-16.7-7.5-16.7-16.7v-29c0-9.2 7.5-16.7 16.7-16.7h29c9.2 0 16.7 7.5 16.7 16.7v29c0 9.2-7.5 16.7-16.7 16.7z"/>
			<g id="&lt;Group&gt;">
				<path id="&lt;Compound Path&gt;" class="s2" d="m706.5 422.2q1.1-1.6 3.3-3.6 1.5-1.4 2.3-2.4 0.7-0.9 0.7-2.1 0-1.8-1.4-2.8-1.4-1-3.7-1-2.2 0-4 0.9-1.7 0.9-2.9 2.6l-5.7-3.4q2-3 5.4-4.7 3.4-1.6 8-1.6 5.4 0 8.7 2.3 3.3 2.3 3.3 6.4 0 2-0.7 3.4-0.6 1.5-1.5 2.5-0.9 1-2.4 2.3-1.7 1.6-2.6 2.7-0.8 1-0.8 2.5h-7.1q0-2.4 1.1-4zm-0.7 14.6q-1.3-1.2-1.3-3 0-1.8 1.2-3 1.3-1.2 3.3-1.2 2 0 3.3 1.2 1.2 1.2 1.2 3 0 1.8-1.3 3-1.3 1.3-3.2 1.3-1.9 0-3.2-1.3z"/>
			</g>
			<g id="&lt;Group&gt;">
				<path id="&lt;Path&gt;" class="s0" d="m124.2 313.1h-37.5c-11.9 0-21.6-9.7-21.6-21.6v-37.5c0-12 9.7-21.6 21.6-21.6h37.5c11.9 0 21.6 9.6 21.6 21.6v37.5c0 11.9-9.7 21.6-21.6 21.6z"/>
				<path id="&lt;Compound Path&gt;" fill-rule="evenodd" class="s2" d="m123.7 268.2c0 10-8.2 34.2-18.3 34.2-10 0-18.2-24.2-18.2-34.2 0-10.1 8.2-18.3 18.2-18.3 10.1 0 18.3 8.2 18.3 18.3zm-12.8 0c0-3.1-2.4-5.5-5.5-5.5-3 0-5.5 2.4-5.5 5.5 0 3 2.5 5.5 5.5 5.5 3.1 0 5.5-2.5 5.5-5.5z"/>
			</g>
			<path id="&lt;Compound Path&gt;" fill-rule="evenodd" class="s0" d="m107.9 383.6q-0.7 3.1-2 6l4.2 3.9c-1.8 3.3-4 6.4-6.6 9l-5-2.7q-2.3 2.1-5.1 3.7l1.1 5.5c-3.3 1.7-6.9 2.9-10.7 3.5l-2.4-5.1q-1.5 0.2-3.1 0.2-1.6 0-3.1-0.2l-2.5 5.1c-3.7-0.6-7.3-1.8-10.6-3.5l1-5.5q-2.7-1.6-5-3.7l-5 2.7c-2.6-2.6-4.9-5.7-6.6-9l4.1-3.9q-1.2-2.9-1.9-6l-5.6-0.7q-0.4-2.8-0.5-5.6 0.1-2.9 0.5-5.6l5.6-0.7q0.7-3.1 1.9-6l-4.1-3.9c1.7-3.3 4-6.4 6.6-9l5 2.7q2.3-2.1 5-3.7l-1-5.6c3.3-1.6 6.9-2.8 10.6-3.4l2.5 5.1q1.5-0.2 3.1-0.2 1.6 0 3.1 0.2l2.4-5.1c3.8 0.6 7.4 1.8 10.7 3.4l-1.1 5.6q2.8 1.6 5.1 3.7l5-2.7c2.6 2.6 4.8 5.7 6.6 9l-4.2 3.9q1.3 2.9 2 6l5.6 0.7q0.4 2.7 0.4 5.6 0 2.8-0.4 5.6zm-17.2-6.3c0-6.9-5.5-12.5-12.4-12.5-6.9 0-12.4 5.6-12.4 12.5 0 6.8 5.5 12.4 12.4 12.4 6.9 0 12.4-5.6 12.4-12.4z"/>
			<path id="&lt;Compound Path&gt;" fill-rule="evenodd" class="s4" d="m128.7 423.5q-0.3 1.5-0.9 2.9l2 2c-0.8 1.7-2 3.2-3.3 4.5l-2.5-1.3q-1.1 1-2.5 1.8l0.5 2.8c-1.6 0.8-3.4 1.4-5.3 1.7l-1.2-2.5q-0.8 0-1.6 0-0.8 0-1.5 0l-1.2 2.5c-1.9-0.3-3.7-0.9-5.4-1.7l0.6-2.8q-1.4-0.8-2.6-1.8l-2.5 1.3c-1.3-1.3-2.4-2.8-3.3-4.5l2.1-2q-0.6-1.4-1-2.9l-2.8-0.4q-0.2-1.4-0.2-2.8 0-1.4 0.2-2.8l2.8-0.3q0.4-1.6 1-3l-2.1-2c0.9-1.6 2-3.2 3.3-4.5l2.5 1.4q1.2-1.1 2.6-1.9l-0.6-2.8c1.7-0.8 3.5-1.4 5.4-1.7l1.2 2.6q0.7-0.1 1.5-0.1 0.8 0 1.6 0.1l1.2-2.6c1.9 0.3 3.7 0.9 5.3 1.7l-0.5 2.8q1.4 0.8 2.5 1.9l2.5-1.4c1.3 1.3 2.5 2.9 3.3 4.5l-2 2q0.6 1.4 0.9 3l2.8 0.3q0.2 1.4 0.3 2.8-0.1 1.4-0.3 2.8zm-8.5-3.2c0-3.4-2.8-6.2-6.3-6.2-3.4 0-6.2 2.8-6.2 6.2 0 3.5 2.8 6.3 6.2 6.3 3.5 0 6.3-2.8 6.3-6.3z"/>
			<path id="&lt;Compound Path&gt;" fill-rule="evenodd" class="s1" d="m747.2 381q-1.3 0.9-2.7 1.4v2.9c-1.8 0.6-3.6 0.9-5.5 0.9l-0.8-2.8q-1.6-0.1-3.1-0.5l-1.6 2.4c-1.7-0.6-3.4-1.4-5-2.6l1-2.6q-0.6-0.5-1.2-1.1-0.5-0.5-1-1.1l-2.7 0.9c-1.1-1.5-2-3.2-2.5-5l2.3-1.6q-0.4-1.5-0.5-3.1l-2.7-0.8c0-1.8 0.3-3.7 0.9-5.5l2.8 0.1q0.6-1.5 1.4-2.8l-1.7-2.2q0.8-1.2 1.8-2.2 1-1 2.1-1.8l2.3 1.7q1.3-0.8 2.8-1.4l-0.1-2.8c1.8-0.6 3.7-0.9 5.5-0.9l0.8 2.7q1.6 0.1 3.1 0.5l1.6-2.3c1.8 0.6 3.5 1.4 5 2.5l-0.9 2.7q0.6 0.5 1.1 1 0.6 0.6 1.1 1.2l2.6-0.9c1.2 1.5 2 3.2 2.6 4.9l-2.4 1.6q0.4 1.6 0.5 3.1l2.7 0.8c0 1.9-0.3 3.8-0.8 5.6l-2.9-0.1q-0.5 1.4-1.4 2.8l1.7 2.2q-0.8 1.1-1.8 2.1-1 1-2.1 1.9zm-3.8-8.3c2.4-2.5 2.4-6.4 0-8.8-2.5-2.5-6.4-2.5-8.8 0-2.5 2.4-2.5 6.3 0 8.8 2.4 2.4 6.3 2.4 8.8 0z"/>
		</g>
	</g>
	<g id="Shadow">
		<path id="&lt;Path&gt; 1 " class="s5" d="m777.8 714.8c0 12.5-173.6 22.6-387.8 22.6-214.2 0-387.8-10.1-387.8-22.6 0-12.5 173.6-22.7 387.8-22.7 214.2 0 387.8 10.2 387.8 22.7z"/>
	</g>
	<g id="Graphic">
		<g id="&lt;Group&gt;">
			<g id="&lt;Group&gt;">
				<g id="&lt;Group&gt;">
					<path id="&lt;Path&gt;" class="s6" d="m461.1 117.5v-31.1l15.3-2.2v31.2z"/>
					<path id="&lt;Path&gt;" class="s6" d="m410.2 134.9l-11.5-18.3 9.8-7 11.4 18.3z"/>
					<path id="&lt;Path&gt;" class="s6" d="m517.6 114.1l11.5-21.5 9.7 4.3-11.4 21.5z"/>
				</g>
				<g id="&lt;Group&gt;" style="opacity: .5">
					<path id="&lt;Path&gt;" class="s7" d="m461.1 117.5v-31.1l15.3-2.2v31.2z"/>
					<path id="&lt;Path&gt;" class="s7" d="m410.2 134.9l-11.5-18.3 9.8-7 11.4 18.3z"/>
					<path id="&lt;Path&gt;" class="s7" d="m517.6 114.1l11.5-21.5 9.7 4.3-11.4 21.5z"/>
				</g>
				<path id="&lt;Path&gt;" class="s6" d="m478.6 89.2l-19.7 2.8c-3.1 0.4-5.7-1.8-5.7-5 0-3.1 2.6-6.1 5.7-6.5l19.7-2.8c3.2-0.4 5.8 1.8 5.8 5 0 3.1-2.6 6.1-5.8 6.5z"/>
				<path id="&lt;Path&gt;" class="s6" d="m411.7 109.1l-14.6 10.5c-1.5 1-3.4 0.8-4.2-0.5-0.8-1.4-0.3-3.3 1.1-4.4l14.6-10.4c1.5-1.1 3.3-0.9 4.2 0.5 0.8 1.3 0.3 3.3-1.1 4.3z"/>
				<path id="&lt;Path&gt;" class="s6" d="m540.5 99.4l-14.6-6.3c-1.5-0.7-2-2.5-1.1-4.1 0.8-1.5 2.7-2.3 4.1-1.7l14.6 6.4c1.5 0.7 2 2.4 1.1 4-0.8 1.6-2.7 2.4-4.1 1.7z"/>
				<path id="&lt;Path&gt;" class="s8" d="m478.6 89.2l-19.7 2.8c-3.1 0.4-5.7-1.8-5.7-5 0-3.1 2.6-6.1 5.7-6.5l19.7-2.8c3.2-0.4 5.8 1.8 5.8 5 0 3.1-2.6 6.1-5.8 6.5z"/>
				<path id="&lt;Path&gt;" class="s8" d="m411.7 109.1l-14.6 10.5c-1.5 1-3.4 0.8-4.2-0.5-0.8-1.4-0.3-3.3 1.1-4.4l14.6-10.4c1.5-1.1 3.3-0.9 4.2 0.5 0.8 1.3 0.3 3.3-1.1 4.3z"/>
				<path id="&lt;Path&gt;" class="s8" d="m540.5 99.4l-14.6-6.3c-1.5-0.7-2-2.5-1.1-4.1 0.8-1.5 2.7-2.3 4.1-1.7l14.6 6.4c1.5 0.7 2 2.4 1.1 4-0.8 1.6-2.7 2.4-4.1 1.7z"/>
			</g>
			<path id="&lt;Path&gt;" class="s9" d="m468.8 312.6c-53.3 7.5-96.5-29.6-96.5-82.9 0-53.2 43.2-102.5 96.5-110 53.2-7.5 96.4 29.6 96.4 82.9l13.2-1.8c0-60.6-49.1-102.7-109.6-94.2-60.6 8.5-109.6 64.4-109.6 125 0 60.5 49 102.7 109.6 94.2z"/>
			<g id="&lt;Group&gt;">
				<g id="&lt;Group&gt;">
					<g id="&lt;Group&gt;">
						<path id="&lt;Path&gt;" class="s6" d="m426.1 299.5l-2.8-1.5 7.2-13.5 2.8 1.5z"/>
					</g>
					<g id="&lt;Group&gt;">
						<path id="&lt;Path&gt;" class="s6" d="m507.1 147.8l-2.9-1.5 7.2-13.4 2.9 1.5z"/>
					</g>
				</g>
				<g id="&lt;Group&gt;">
					<path id="&lt;Path&gt;" class="s6" d="m404.2 189.7l-12.4-5.4 1.3-3 12.4 5.5z"/>
				</g>
				<g id="&lt;Group&gt;">
					<path id="&lt;Path&gt;" class="s6" d="m430.5 158.3l-7.2-11.4 2.7-1.7 7.2 11.4z"/>
				</g>
				<g id="&lt;Group&gt;">
					<g id="&lt;Group&gt;">
						<path id="&lt;Path&gt;" class="s6" d="m393.4 272.3l-1.9-2.6 12.5-9 1.8 2.6z"/>
					</g>
					<g id="&lt;Group&gt;">
						<path id="&lt;Path&gt;" class="s6" d="m533.6 171.6l-1.9-2.6 12.5-9 1.9 2.6z"/>
					</g>
				</g>
				<g id="&lt;Group&gt;">
					<path id="&lt;Path&gt;" class="s6" d="m381.1 231.7l-0.9-6.3 19.2-2.7 0.9 6.3z"/>
				</g>
				<g id="&lt;Group&gt;">
					<path id="&lt;Path&gt;" class="s6" d="m472 147.2h-6.4v-19.2h6.4z"/>
				</g>
				<g id="&lt;Group&gt;">
					<path id="&lt;Path&gt;" class="s6" d="m472 304.3h-6.4v-19.2h6.4z"/>
				</g>
			</g>
			<g id="&lt;Group&gt;">
				<path id="&lt;Path&gt;" class="s9" d="m443.9 195.4c-1.6 1.7-1.6 4.3 0 5.6l21.5 18.4 5.6-6.4-21.5-18.4c-1.5-1.4-4-1-5.6 0.8z"/>
				<path id="&lt;Path&gt;" class="s10" d="m443.9 195.4c-1.6 1.7-1.6 4.3 0 5.6l21.5 18.4 5.6-6.4-21.5-18.4c-1.5-1.4-4-1-5.6 0.8z"/>
			</g>
			<path id="&lt;Path&gt;" class="s9" d="m587.8 197.8l-16.1 21.5-16-17z"/>
			<g id="&lt;Group&gt;">
				<path id="&lt;Compound Path&gt;" class="s6" d="m510.6 294.5l25-3.5-2.2 11.5-45.1 6.4 1.8-9.2 27.1-25.1q4.9-4.7 6.9-7.6 1.9-3 1.9-6 0-3-2.3-4.5-2.2-1.4-6.5-0.8-3.6 0.5-6.9 2.6-3.3 2-5.8 5.4l-9.2-5.5q3.6-5.5 10-9.3 6.4-3.8 14-4.9 6.2-0.9 10.9 0.5 4.7 1.4 7.3 4.7 2.6 3.3 2.6 7.9 0 5.5-3.1 10.8-3 5.2-10.6 12.2z"/>
				<path id="&lt;Compound Path&gt;" class="s6" d="m595.2 281.4l-9.8 1.3-2.5 12.9-13.4 1.9 2.5-12.9-32 4.5 1.8-9.5 35-42.7 15.1-2.1-32.7 40.4 15.7-2.2 2.2-11.5 12.8-1.8-2.2 11.5 9.8-1.4z"/>
				<path id="&lt;Compound Path&gt;" class="s6" d="m634.4 216.8l12.5-1.8-43.7 86.2-12.4 1.8z"/>
				<path id="&lt;Compound Path&gt;" class="s6" d="m691.1 220.9l-1.7 9.1-31.8 55.1-15.3 2.1 30.5-52.5-19.3 2.7-2 9.9-12.2 1.8 4.2-21.5z"/>
				<path id="&lt;Compound Path&gt;" class="s6" d="m495.1 368.1q-3.3-0.5-5.4-1.7l3-6q2.1 1.3 4.8 1.7 2.6 0.5 5.4 0.1 3-0.4 4.7-1.6 1.7-1.2 1.7-2.9 0-1.4-1.3-1.9-1.4-0.6-4.4-1-3-0.5-4.9-1-2-0.6-3.4-2-1.3-1.5-1.3-4.2 0-3.1 1.7-5.8 1.8-2.6 5-4.3 3.2-1.8 7.4-2.4 3.2-0.4 6-0.1 2.8 0.3 4.8 1.3l-2.7 5.9q-1.8-1-3.9-1.3-2.2-0.3-4.6 0-3 0.5-4.8 1.8-1.8 1.3-1.8 3 0 1 0.8 1.6 0.7 0.6 1.9 0.8 1.2 0.3 3.2 0.6 3 0.4 4.9 0.9 1.9 0.6 3.3 1.9 1.3 1.4 1.3 4 0 3.2-1.7 5.8-1.8 2.6-5.1 4.4-3.2 1.8-7.5 2.4-3.7 0.5-7.1 0z"/>
				<path id="&lt;Compound Path&gt;" class="s6" d="m531.9 338.1l-1.4 6.9 14.5-2-1.1 5.7-14.5 2.1-1.4 7.4 16.9-2.4-1.2 5.9-24 3.4 6.2-31.9 23.5-3.3-1.2 5.9z"/>
				<path id="&lt;Compound Path&gt;" fill-rule="evenodd" class="s6" d="m578.1 342.9q-2.4 3.4-6.5 5.3l5.4 8.8-7.6 1.1-4.9-8-6.1 0.8-1.7 9-7.3 1 6.2-31.9 12.7-1.8q5.8-0.8 8.9 1.3 3.2 2.1 3.2 6.6 0 4.4-2.3 7.8zm-6.9-1.1q2-1.9 2-5 0-2.2-1.5-3.1-1.5-0.9-4.3-0.5l-5.7 0.8-2.2 11.1 6.1-0.9q3.6-0.5 5.6-2.4z"/>
				<path id="&lt;Compound Path&gt;" class="s6" d="m618.1 320.2l-19.6 33.8-7.1 1-7.2-30 7.4-1.1 5 21.5 14-24.2z"/>
				<path id="&lt;Compound Path&gt;" class="s6" d="m620.7 319.8l7.2-1-6.2 31.9-7.2 1.1z"/>
				<path id="&lt;Compound Path&gt;" class="s6" d="m637.2 347.4q-3.5-1.2-5.4-4-1.8-2.8-1.8-6.8 0-5.2 2.4-9.8 2.4-4.6 6.8-7.7 4.4-3 10.1-3.8 4.1-0.6 7.3 0.4 3.2 0.9 4.9 3.4l-5.2 5q-2.5-3.3-7.5-2.6-3.4 0.5-6 2.4-2.7 2-4.1 4.9-1.4 3-1.4 6.4 0 3.6 2.2 5.3 2.3 1.8 6.5 1.2 4.9-0.6 8.2-4.7l4.3 3.7q-4.7 6.1-13.2 7.3-4.6 0.6-8.1-0.6z"/>
				<path id="&lt;Compound Path&gt;" class="s6" d="m673.7 318.2l-1.3 6.9 14.4-2-1.1 5.7-14.5 2-1.4 7.4 17-2.4-1.2 6-24.1 3.3 6.2-31.9 23.5-3.3-1.2 6z"/>
			</g>
			<path id="&lt;Path&gt;" class="s9" d="m505.3 173.9c-1.5-1.4-4.1-1-5.6 0.8l-29.1 33.1c-2.9-0.4-6.1 0.7-8.4 3.3-3.3 3.8-3.3 9.1 0 11.9 3.3 2.9 8.7 2.1 12-1.7 2.2-2.5 2.9-5.9 2-8.6l29.1-33.2c1.6-1.8 1.6-4.3 0-5.6z"/>
		</g>
	</g>
	<g id="Speech bubble">
		<g id="&lt;Group&gt;">
			<path id="&lt;Path&gt;" class="s9" d="m282.9 178.9c-21.3 0-38.7 12.7-38.7 28.2 0 11.3 9.2 21.1 22.4 25.5-1.4 6.6-3.9 12.8-7.2 18.5 9.9-1.5 18.3-7.5 23.1-15.8q0.2 0 0.4 0c21.4 0 38.7-12.6 38.7-28.2 0-15.5-17.3-28.2-38.7-28.2z"/>
			<path id="&lt;Path&gt;" class="s8" d="m282.9 178.9c-21.3 0-38.7 12.7-38.7 28.2 0 11.3 9.2 21.1 22.4 25.5-1.4 6.6-3.9 12.8-7.2 18.5 9.9-1.5 18.3-7.5 23.1-15.8q0.2 0 0.4 0c21.4 0 38.7-12.6 38.7-28.2 0-15.5-17.3-28.2-38.7-28.2z"/>
			<g id="&lt;Group&gt;">
				<path id="&lt;Path&gt;" class="s6" d="m269.8 208.6c0 2.2-1.8 3.9-3.9 3.9-2.2 0-4-1.7-4-3.9 0-2.2 1.8-3.9 4-3.9 2.1 0 3.9 1.7 3.9 3.9z"/>
				<path id="&lt;Path&gt;" class="s6" d="m286.6 208.6c0 2.2-1.7 3.9-3.9 3.9-2.2 0-4-1.7-4-3.9 0-2.2 1.8-3.9 4-3.9 2.2 0 3.9 1.7 3.9 3.9z"/>
				<path id="&lt;Path&gt;" class="s6" d="m303.4 208.6c0 2.2-1.7 3.9-3.9 3.9-2.2 0-4-1.7-4-3.9 0-2.2 1.8-3.9 4-3.9 2.2 0 3.9 1.7 3.9 3.9z"/>
			</g>
		</g>
	</g>
	<g id="Chair">
		<g id="&lt;Group&gt;">
			<g id="&lt;Group&gt;">
				<g id="&lt;Group&gt;">
					<path id="&lt;Path&gt;" class="s6" d="m225.7 611.6h-13.1v-86.3h13.1z"/>
					<path id="&lt;Path&gt;" class="s11" d="m225.7 611.6h-13.1v-86.3h13.1z"/>
				</g>
				<path id="&lt;Path&gt;" class="s6" d="m259.1 676.3l-30.8-5.6v-61.8c0-1.9-1.5-3.4-3.4-3.4h-11.4c-1.9 0-3.5 1.5-3.5 3.4v61.8l-30.8 5.6c-4.4 0.8-7.7 4.7-7.7 9.2l47.7-4.3 47.6 4.3c0-4.5-3.3-8.4-7.7-9.2z"/>
				<g id="&lt;Group&gt;">
					<path id="&lt;Path&gt;" class="s9" d="m181.5 694.8c0 5.6-4.4 10-10 10-5.5 0-10-4.4-10-10 0-5.5 4.5-10 10-10 5.6 0 10 4.5 10 10z"/>
					<path id="&lt;Path&gt;" class="s9" d="m276.8 694.8c0 5.6-4.5 10-10 10-5.5 0-10-4.4-10-10 0-5.5 4.5-10 10-10 5.5 0 10 4.5 10 10z"/>
				</g>
				<path id="&lt;Path&gt;" class="s9" d="m227 694.8c0 5.6-2.3 10-7.8 10-5.6 0-7.8-4.4-7.8-10 0-5.5 2.2-10 7.8-10 5.5 0 7.8 4.5 7.8 10z"/>
				<g id="&lt;Group&gt;" style="opacity: .5">
					<path id="&lt;Path&gt;" class="s12" d="m228.6 670.8v11.3l3.7 0.3v-10.9z"/>
					<path id="&lt;Path&gt;" class="s12" d="m206.1 671.4v11l3.7-0.3v-11.3z"/>
				</g>
			</g>
			<g id="&lt;Group&gt;">
				<path id="&lt;Path&gt;" class="s6" d="m133.4 446.6c-3.6 0-6.2 3.2-5.6 6.7l12.2 65.7c1.2 6.2 6.5 10.7 12.8 10.7h59.8 72.7 59.8c4.7 0 8.6-3.9 8.6-8.7 0-6.7-5.5-12.2-12.3-12.2h-59.7-50c-6 0-11.2-4.1-12.6-9.9l-9.8-39.7c-1.9-7.4-8.5-12.6-16.2-12.6z"/>
				<path id="&lt;Path&gt;" class="s6" d="m159.3 498.9l-9.8-39.7c-1.8-7.4-8.5-12.6-16.1-12.6-3.6 0-6.2 3.2-5.6 6.7l12.2 65.7c1.2 6.2 6.5 10.7 12.8 10.7h132.5c4.8 0 8.6-3.9 8.6-8.7 0-6.7-5.5-12.2-12.2-12.2h-109.7c-6 0-11.2-4.1-12.7-9.9z"/>
				<path id="&lt;Path&gt;" class="s13" d="m159.3 498.9l-9.8-39.7c-1.8-7.4-8.5-12.6-16.1-12.6-3.6 0-6.2 3.2-5.6 6.7l12.2 65.7c1.2 6.2 6.5 10.7 12.8 10.7h132.5c4.8 0 8.6-3.9 8.6-8.7 0-6.7-5.5-12.2-12.2-12.2h-109.7c-6 0-11.2-4.1-12.7-9.9z"/>
			</g>
		</g>
	</g>
	<g id="Plant">
		<g id="&lt;Group&gt;">
			<g id="&lt;Group&gt;">
				<path id="&lt;Path&gt;" class="s9" d="m634 610.1c0 0 0.2-26.7-9.5-23.2-9.7 3.5 9.5 23.2 9.5 23.2z"/>
				<path id="&lt;Path&gt;" class="s9" d="m644.4 585.4c0 0 12.9-21.4 1.3-24.4-11.6-3.1-1.3 24.4-1.3 24.4z"/>
				<path id="&lt;Path&gt;" class="s9" d="m695.3 570.3c0 0 26.8-1.4 20.7-11.4-6-10-20.7 11.4-20.7 11.4z"/>
				<path id="&lt;Path&gt;" class="s9" d="m653 577.4c0 0 28.1-6.3 22.8 9.4-5.3 15.7-22.8-9.4-22.8-9.4z"/>
				<g id="&lt;Group&gt;">
					<path id="&lt;Path&gt;" class="s9" d="m632.7 634.2c0 0-10.8-24.2-16.8-15.6-6 8.6 16.8 15.6 16.8 15.6z"/>
					<path id="&lt;Path&gt;" class="s9" d="m663.2 572.4c0 0 28.5-7.5 19.7-18.1-8.9-10.5-19.7 18.1-19.7 18.1z"/>
					<path id="&lt;Path&gt;" class="s9" d="m684.8 569.4c0 0 22.5 11.1 12.1 18.3-10.4 7.3-12.1-18.3-12.1-18.3z"/>
					<path id="&lt;Path&gt;" class="s9" d="m636.8 599.4c0 0 15.6-18.8 20.5-5.2 4.8 13.7-20.5 5.2-20.5 5.2z"/>
				</g>
				<g id="&lt;Group&gt;" style="opacity: .4">
					<path id="&lt;Path&gt;" class="s7" d="m632.7 634.2c0 0-10.8-24.2-16.8-15.6-6 8.6 16.8 15.6 16.8 15.6z"/>
					<path id="&lt;Path&gt;" class="s7" d="m663.2 572.4c0 0 28.5-7.5 19.7-18.1-8.9-10.5-19.7 18.1-19.7 18.1z"/>
					<path id="&lt;Path&gt;" class="s7" d="m684.8 569.4c0 0 22.5 11.1 12.1 18.3-10.4 7.3-12.1-18.3-12.1-18.3z"/>
					<path id="&lt;Path&gt;" class="s7" d="m636.8 599.4c0 0 15.6-18.8 20.5-5.2 4.8 13.7-20.5 5.2-20.5 5.2z"/>
				</g>
				<path id="&lt;Path&gt;" class="s9" d="m632.5 623.8c0 0 11.2-24.1 20.3-11.9 9 12.1-20.3 11.9-20.3 11.9z"/>
				<g id="&lt;Group&gt;">
					<path id="&lt;Path&gt;" class="s9" d="m632.7 649c-3.2-15.2-3.1-32.4 1.4-47.3 9.2-29.9 37.3-37 65.7-32.5 2.3 0.4 1.3 3.8-1 3.4-15.1-2.4-32.1-2.6-45.1 6.5-9.4 6.6-14.7 17-17.3 28-3.1 13.1-3 27.8-0.2 41 0.4 2.3-3 3.1-3.5 0.9z"/>
				</g>
				<g id="&lt;Group&gt;" style="opacity: .3">
					<path id="&lt;Path&gt;" class="s12" d="m632.7 649c-3.2-15.2-3.1-32.4 1.4-47.3 9.2-29.9 37.3-37 65.7-32.5 2.3 0.4 1.3 3.8-1 3.4-15.1-2.4-32.1-2.6-45.1 6.5-9.4 6.6-14.7 17-17.3 28-3.1 13.1-3 27.8-0.2 41 0.4 2.3-3 3.1-3.5 0.9z"/>
				</g>
			</g>
			<g id="&lt;Group&gt;">
				<path id="&lt;Path&gt;" class="s9" d="m610.5 602c0 0-13.9-32.7-23.1-24.2-9.2 8.6 23.1 24.2 23.1 24.2z"/>
				<path id="&lt;Path&gt;" class="s9" d="m609.3 567.3c0 0 3.3-31.6-11.6-30.3-14.9 1.4 11.6 30.3 11.6 30.3z"/>
				<path id="&lt;Path&gt;" class="s9" d="m659.2 526.7c0 0 29.7-13.3 17.5-22.9-12.2-9.5-17.5 22.9-17.5 22.9z"/>
				<path id="&lt;Path&gt;" class="s9" d="m614.8 553.8c0 0 28.6-19.9 30.9 1.5 2.4 21.5-30.9-1.5-30.9-1.5z"/>
				<g id="&lt;Group&gt;">
					<path id="&lt;Path&gt;" class="s9" d="m621.9 631.9c0 0-25.2-24.8-27.5-11.7-2.2 13.1 27.5 11.7 27.5 11.7z"/>
					<path id="&lt;Path&gt;" class="s9" d="m623.7 543.2c0 0 28.5-21.5 12.8-30.5-15.7-8.9-12.8 30.5-12.8 30.5z"/>
					<path id="&lt;Path&gt;" class="s9" d="m646.7 530.3c0 0 31.6 3.6 23.6 17-8 13.3-23.6-17-23.6-17z"/>
					<path id="&lt;Path&gt;" class="s9" d="m608 587.6c0 0 7.8-29.7 20.6-15.1 12.7 14.5-20.6 15.1-20.6 15.1z"/>
				</g>
				<g id="&lt;Group&gt;" style="opacity: .4">
					<path id="&lt;Path&gt;" class="s7" d="m621.9 631.9c0 0-25.2-24.8-27.5-11.7-2.2 13.1 27.5 11.7 27.5 11.7z"/>
					<path id="&lt;Path&gt;" class="s7" d="m623.7 543.2c0 0 28.5-21.5 12.8-30.5-15.7-8.9-12.8 30.5-12.8 30.5z"/>
					<path id="&lt;Path&gt;" class="s7" d="m646.7 530.3c0 0 31.6 3.6 23.6 17-8 13.3-23.6-17-23.6-17z"/>
					<path id="&lt;Path&gt;" class="s7" d="m608 587.6c0 0 7.8-29.7 20.6-15.1 12.7 14.5-20.6 15.1-20.6 15.1z"/>
				</g>
				<path id="&lt;Path&gt;" class="s9" d="m616.1 619.2c0 0 0-34.1 16.7-23.3 16.7 10.8-16.7 23.3-16.7 23.3z"/>
				<g id="&lt;Group&gt;">
					<path id="&lt;Path&gt;" class="s9" d="m629.7 649.8c-11.7-17.1-20.8-38-23.5-58.1-5.5-40.5 22.7-61.4 57.5-68.3 2.8-0.5 3.4 4.1 0.7 4.6-18.4 3.7-37.9 10.8-47.9 27.6-7.3 12.1-7.8 27.2-4.9 41.6 3.5 17.3 11.4 35.2 21.6 50.1 1.7 2.5-1.8 5.1-3.5 2.5z"/>
				</g>
				<g id="&lt;Group&gt;" style="opacity: .3">
					<path id="&lt;Path&gt;" class="s12" d="m629.7 649.8c-11.7-17.1-20.8-38-23.5-58.1-5.5-40.5 22.7-61.4 57.5-68.3 2.8-0.5 3.4 4.1 0.7 4.6-18.4 3.7-37.9 10.8-47.9 27.6-7.3 12.1-7.8 27.2-4.9 41.6 3.5 17.3 11.4 35.2 21.6 50.1 1.7 2.5-1.8 5.1-3.5 2.5z"/>
				</g>
			</g>
			<g id="&lt;Group&gt;">
				<path id="&lt;Path&gt;" class="s9" d="m607.1 610.6c0 0 6.7-22.2 13.8-16.8 7.1 5.4-13.8 16.8-13.8 16.8z"/>
				<path id="&lt;Path&gt;" class="s9" d="m604.8 587.5c0 0-5.1-21 5.3-20.5 10.4 0.4-5.3 20.5-5.3 20.5z"/>
				<path id="&lt;Path&gt;" class="s9" d="m566.6 561.9c0 0-21.7-8-14.1-14.7 7.5-6.8 14.1 14.7 14.1 14.7z"/>
				<path id="&lt;Path&gt;" class="s9" d="m599.8 578.6c0 0-21.6-12.4-21.2 2 0.3 14.3 21.2-2 21.2-2z"/>
				<g id="&lt;Group&gt;">
					<path id="&lt;Path&gt;" class="s9" d="m602 630.8c0 0 15.1-17.2 17.9-8.5 2.7 8.6-17.9 8.5-17.9 8.5z"/>
					<path id="&lt;Path&gt;" class="s9" d="m592.7 571.9c0 0-21.7-13.6-11.6-20 10-6.4 11.6 20 11.6 20z"/>
					<path id="&lt;Path&gt;" class="s9" d="m575.6 563.9c0 0-21.5 3.4-14.8 12 6.8 8.6 14.8-12 14.8-12z"/>
					<path id="&lt;Path&gt;" class="s9" d="m607.5 601c0 0-8-19.6-15.5-9.5-7.5 10 15.5 9.5 15.5 9.5z"/>
				</g>
				<g id="&lt;Group&gt;" style="opacity: .4">
					<path id="&lt;Path&gt;" class="s7" d="m602 630.8c0 0 15.1-17.2 17.9-8.5 2.7 8.6-17.9 8.5-17.9 8.5z"/>
					<path id="&lt;Path&gt;" class="s7" d="m592.7 571.9c0 0-21.7-13.6-11.6-20 10-6.4 11.6 20 11.6 20z"/>
					<path id="&lt;Path&gt;" class="s7" d="m575.6 563.9c0 0-21.5 3.4-14.8 12 6.8 8.6 14.8-12 14.8-12z"/>
					<path id="&lt;Path&gt;" class="s7" d="m607.5 601c0 0-8-19.6-15.5-9.5-7.5 10 15.5 9.5 15.5 9.5z"/>
				</g>
				<path id="&lt;Path&gt;" class="s9" d="m604.8 622.2c0 0-3.1-22.7-13.7-15-10.5 7.7 13.7 15 13.7 15z"/>
				<g id="&lt;Group&gt;">
					<path id="&lt;Path&gt;" class="s9" d="m598.2 643c6.5-11.7 10.9-25.9 10.9-39.4 0.2-27.1-21.2-40.2-45.9-43.8-1.9-0.2-2 2.8 0 3.1 13.1 1.9 27.2 6.1 35.6 17 6.1 7.8 7.8 17.8 7.1 27.5-0.8 11.7-4.7 23.8-10.4 34-0.9 1.7 1.7 3.4 2.7 1.6z"/>
				</g>
				<g id="&lt;Group&gt;" style="opacity: .3">
					<path id="&lt;Path&gt;" class="s12" d="m598.2 643c6.5-11.7 10.9-25.9 10.9-39.4 0.2-27.1-21.2-40.2-45.9-43.8-1.9-0.2-2 2.8 0 3.1 13.1 1.9 27.2 6.1 35.6 17 6.1 7.8 7.8 17.8 7.1 27.5-0.8 11.7-4.7 23.8-10.4 34-0.9 1.7 1.7 3.4 2.7 1.6z"/>
				</g>
			</g>
			<path id="&lt;Path&gt;" class="s9" d="m660.4 637.4l-7.7 58.4c-1 7.5-7.4 13.1-15 13.1h-48.2c-7.5 0-13.9-5.6-14.9-13.1l-7.8-58.4z"/>
			<path id="&lt;Path&gt;" class="s14" d="m660.4 637.4l-7.7 58.4c-1 7.5-7.4 13.1-15 13.1h-48.2c-7.5 0-13.9-5.6-14.9-13.1l-7.8-58.4z"/>
		</g>
	</g>
	<g id="Character">
		<g id="&lt;Group&gt;">
			<path id="&lt;Path&gt;" class="s6" d="m240.6 258.5c0 0 21.8 6.5 11.6 22.7l-9.5-13.8z"/>
			<path id="&lt;Path&gt;" class="s15" d="m319.4 341.9l9.5-14 9.5 3 1.7 3.8-11.8 16.8z"/>
			<path id="&lt;Path&gt;" class="s9" d="m333.5 345.6c-9.5 15-24.6 36.8-30.4 35.5-16.9-3.7-40.2-19.8-52.1-37.4-3.7-5.5-2.6-12.9 2.5-17.1v-0.1c5.5-4.5 13.5-3.6 18 1.8q0.3 0.4 0.6 0.8c10.6 15.2 24 29.6 26.2 30.8 2.6 1.5 9.3-4.8 23.4-22.7z"/>
			<path id="&lt;Path&gt;" class="s16" d="m333.5 345.6c-9.5 15-24.6 36.8-30.4 35.5-16.9-3.7-40.2-19.8-52.1-37.4-3.7-5.5-2.6-12.9 2.5-17.1v-0.1c5.5-4.5 13.5-3.6 18 1.8q0.3 0.4 0.6 0.8c10.6 15.2 24 29.6 26.2 30.8 2.6 1.5 9.3-4.8 23.4-22.7z"/>
			<path id="&lt;Path&gt;" class="s15" d="m333.7 333.5l18.9 3.7-8.8-15.9c0 0-11.4 0.1-14.9 6.6z"/>
			<path id="&lt;Path&gt;" class="s17" d="m279 370.2c-13.7-9.3-15.5-31.3-15.5-31.3l-7.8-3.6-3.6 9.9c6.7 9.4 16.6 18.3 26.9 25z"/>
			<path id="&lt;Path&gt;" class="s15" d="m366 330.4l-8.1-12.9-14.1 3.8 8.8 15.9z"/>
			<path id="&lt;Path&gt;" class="s9" d="m261 418.3l-67 4.4c0 0-0.5-18-2.8-34.6q-1.1-8.7-3.5-17.1c-1.7-5.7-3.9-12.1-6.6-19.6q-0.5-1.3-1-2.8c-0.9-2.3-1.8-4.7-2.8-7.2v-0.2c-2-5.1 0.6-10.8 5.8-12.7q0.7-0.3 1.4-0.5 6.4-1.3 12.9-2.4l3.8-0.5q15-2.3 30.3-2.7c5.2 0 10.8 0.1 15.6 0.3l4 0.2c5.1 0.3 8.6 0.7 8.6 0.7 0 0 2.2 0.4 3.5 12.2 0 0.6 0.1 1.2 0.2 1.9q0.3 3.7 0.4 9.2c0.1 15.2-0.7 40.6-2.8 71.4z"/>
			<path id="&lt;Path&gt;" class="s16" d="m261 418.3l-67 4.4c0 0-0.5-18-2.8-34.6q-1.1-8.7-3.5-17.1c-1.7-5.7-3.9-12.1-6.6-19.6q-0.5-1.3-1-2.8c-0.9-2.3-1.8-4.7-2.8-7.2v-0.2c-2-5.1 0.6-10.8 5.8-12.7q0.7-0.3 1.4-0.5 6.4-1.3 12.9-2.4l3.8-0.5q15-2.3 30.3-2.7c5.2 0 10.8 0.1 15.6 0.3l4 0.2c5.1 0.3 8.6 0.7 8.6 0.7 0 0 2.2 0.4 3.5 12.2 0 0.6 0.1 1.2 0.2 1.9q0.3 3.7 0.4 9.2c0.1 15.2-0.7 40.6-2.8 71.4z"/>
			<path id="&lt;Path&gt;" class="s9" d="m203.5 324.8l16.7 22.2 12-10.2 15.6 7.5-8.5-21.8c-2.6-0.1-5.3-0.1-7.8-0.1q-14.1 0.4-28 2.4z"/>
			<path id="&lt;Path&gt;" class="s18" d="m203.5 324.8l16.7 22.2 12-10.2 15.6 7.5-8.5-21.8c-2.6-0.1-5.3-0.1-7.8-0.1q-14.1 0.4-28 2.4z"/>
			<path id="&lt;Path&gt;" class="s15" d="m351.5 687.1h-14.3l6.5-107.6h26.7z"/>
			<path id="&lt;Path&gt;" class="s6" d="m335.6 685.8c-0.1-1.4 16.9-2.7 16.9-2.7 0 0 11.8 9.2 22.2 10.1 10.4 1 5.7 7.8-5.6 9.4l-27.9 3.9c-8 1.2-3.9-6.4-5.6-20.7z"/>
			<path id="&lt;Compound Path&gt;" fill-rule="evenodd" class="s9" d="m361 686.4q-3.2-0.2-6.3-1.3-0.2 0-0.3-0.1 0-0.2 0-0.4c0-0.2 1-4.4 3.2-5.6 0.6-0.4 1.4-0.5 2.2-0.3 1 0.3 1.3 0.9 1.3 1.3 0 0.9-0.8 1.9-1.9 2.7 1.1-0.3 2.3-0.3 3.4 0 0.5 0.2 0.9 0.6 1.2 1.1 0.3 0.6 0.2 1.4-0.2 2-0.8 0.5-1.7 0.7-2.6 0.6zm-4.5-1.8c2.5 0.6 5.5 1.1 6.2 0.3 0.1-0.1 0.1-0.4 0-0.8-0.1-0.2-0.3-0.4-0.6-0.5-1.9-0.2-3.9 0.1-5.6 1zm2.3-5q-0.5 0-0.9 0.2c-1.1 1-1.9 2.3-2.3 3.8 2.2-1.3 4.4-2.9 4.4-3.5 0-0.2-0.2-0.3-0.6-0.5q-0.3 0-0.6 0z"/>
			<path id="&lt;Path&gt;" class="s17" d="m342.6 598.3l24.4 0.8 3.4-19.6h-26.7z"/>
			<path id="&lt;Path&gt;" class="s15" d="m283 689l-13.6-1.9 21.6-119.1 27 7.7z"/>
			<path id="&lt;Path&gt;" class="s6" d="m267.6 685.2c0-1.4 17 0 17 0 0 0 10.4 10.8 20.5 13.2 10.2 2.5 4.4 8.6-6.9 8.4l-28.2-0.3c-8.1-0.1-2.9-6.9-2.4-21.3z"/>
			<path id="&lt;Compound Path&gt;" fill-rule="evenodd" class="s9" d="m293.6 689.7c-2.5-0.3-4.9-1.1-7.1-2.2l-0.2-0.1q0-0.1 0-0.2-0.1-0.2 0-0.4c0-0.1 1.6-4.1 3.9-5.1 0.7-0.3 1.5-0.3 2.2 0 1 0.5 1.2 1.1 1.2 1.5 0 0.9-1.1 1.7-2.4 2.4 1.2-0.1 2.4 0 3.5 0.5 0.4 0.3 0.8 0.7 0.9 1.2 0.3 0.7 0.1 1.5-0.5 1.9-0.4 0.4-1 0.5-1.5 0.5zm-5.3-2.6c2.4 1.1 5.3 2 6 1.3 0.2-0.1 0.2-0.4 0-0.8q-0.1-0.3-0.4-0.5c-1.9-0.5-3.8-0.5-5.6 0zm2.8-4.6q-0.4 0-0.7 0.2c-1.2 0.8-2.2 2-2.8 3.3 2.4-0.9 4.7-2.2 4.8-2.8 0-0.1-0.2-0.3-0.6-0.5q-0.3-0.1-0.6-0.2z"/>
			<path id="&lt;Path&gt;" class="s17" d="m318 575.7l-27-7.7-4.3 23.4 25 4.6z"/>
			<path id="&lt;Path&gt;" class="s9" d="m336.7 588.7l34.3 1.8c8.7-40.4 17.5-85 15.8-94.8-3.3-18.7-28.8-37.8-127.6-53.9l-46.1 69.1c0 0 67.3-3.1 128.6-3.1 0 0-3.4 38.4-5 80.9z"/>
			<path id="&lt;Path&gt;" class="s19" d="m336.7 588.7l34.3 1.8c8.7-40.4 17.5-85 15.8-94.8-3.3-18.7-28.8-37.8-127.6-53.9l-46.1 69.1c0 0 67.3-3.1 128.6-3.1 0 0-3.4 38.4-5 80.9z"/>
			<path id="&lt;Path&gt;" class="s9" d="m334.4 583.4l1 8.9 37.6 1.3 1.8-8.2z"/>
			<path id="&lt;Path&gt;" class="s15" d="m237.3 322.4q-3 0-5.8 0-12.5 0.4-24.9 1.9c3.6 4.3 14.8 11 22.3 11 10.5 0 8.2-7.8 8.4-12.9z"/>
			<path id="&lt;Path&gt;" class="s9" d="m283.3 581.8l35.1 5.7c14.2-39.9 28.5-82.3 28.2-91.9-0.4-19-4.6-28.9-73.5-44.2 0 0-3.6-5.4-12.1-33l-67 4.4c0 0-30.6 56.4-6.9 80.4 5.2 5.4 15.5 7.8 26 7.7 0 0 24.2 0.1 84-2.7 0 0-7 34.1-13.8 73.6z"/>
			<path id="&lt;Path&gt;" class="s9" d="m281.9 575.7l40.7 6.8-3.9 8.6-36.9-6.1z"/>
			<path id="&lt;Path&gt;" class="s19" d="m334.4 583.4l1 8.9 37.6 1.3 1.8-8.2z"/>
			<path id="&lt;Path&gt;" class="s15" d="m232.2 316.6c-0.8 5-0.6 10 0.6 14.9l-18.4-2.7c-1.7-0.3-2.7-2.1-2-3.6 2.5-5.8 3.5-17.3 4.2-22.6 0.3-3.2 0.4-6.1 0.5-8.1 0-2.1 0-2.8 0-2.8l8.2 3.7 13.4 6.2c-3.1 4.5-5.3 9.7-6.5 15z"/>
			<path id="&lt;Path&gt;" class="s17" d="m238.7 301.6c-3.1 4.5-5.3 9.6-6.6 15-6.7-2.6-12.2-7.6-15.6-14 0.4-3.2 0.5-6.1 0.5-8.1 2.9 0.3 5.7 0.6 8.3 0.9z"/>
			<g id="&lt;Group&gt;">
				<path id="&lt;Path&gt;" class="s9" d="m239.7 288.4c-0.5 6.2 2.6 11.1 7 11.1 4.4 0 8.4-4.9 9-11.1 0.5-6.1-2.6-11.1-7-11.1-4.5 0-8.5 5-9 11.1z"/>
				<path id="&lt;Path&gt;" class="s20" d="m238.9 288.4c-0.5 6.2 2.6 11.1 7 11.1 4.4 0 8.4-4.9 9-11.1 0.5-6.1-2.6-11.1-7-11.1-4.4 0-8.5 5-9 11.1z"/>
			</g>
			<path id="&lt;Path&gt;" class="s15" d="m208.1 277.6c3.3 15.1 4.5 24 13.3 30.9 13.4 10.3 31.1 1.2 32.4-14.4 1.2-14-4.3-36.3-20.2-40.5-15.6-4.2-28.7 9-25.5 24z"/>
			<path id="&lt;Path&gt;" class="s15" d="m204.7 293.3c2.7 3.3 6.4 5.2 9.5 5.7 4.8 0.8 5.8-3.6 3.4-7.8-2.1-3.8-7.2-8.9-11.5-7.7-4.1 1.1-4.5 6.1-1.4 9.8z"/>
			<path id="&lt;Path&gt;" class="s6" d="m231.9 279.1c0.2 1.3 1 2.2 1.8 2.1 0.8-0.1 1.3-1.2 1.1-2.4-0.2-1.3-1-2.2-1.8-2.1-0.8 0.1-1.3 1.2-1.1 2.4z"/>
			<path id="&lt;Path&gt;" class="s6" d="m245.9 277.5c0.2 1.2 1 2.1 1.8 2 0.8-0.1 1.3-1.2 1.1-2.4-0.2-1.2-1-2.1-1.8-2.1-0.8 0.1-1.3 1.2-1.1 2.5z"/>
			<path id="&lt;Path&gt;" class="s21" d="m241.5 278.6c0 0 4 6.8 7.6 9.9-1.9 2.3-5.8 1.8-5.8 1.8z"/>
			<path id="&lt;Path&gt;" class="s6" d="m226.9 275.1q-0.2 0-0.4-0.1c-0.4-0.2-0.5-0.6-0.3-1 2-3.5 5.4-3.7 5.5-3.7 0.4 0 0.7 0.3 0.8 0.7 0 0.4-0.3 0.8-0.7 0.8-0.2 0-2.8 0.2-4.3 3-0.1 0.2-0.4 0.3-0.6 0.3z"/>
			<path id="&lt;Path&gt;" class="s6" d="m251.2 271.9c-0.3 0-0.5-0.1-0.6-0.3-1.9-2.7-4.6-2.8-4.7-2.8-0.4 0-0.7-0.3-0.7-0.7 0-0.4 0.3-0.7 0.7-0.7q0 0 0 0c0.2 0 3.6 0 5.9 3.4 0.2 0.3 0.1 0.8-0.2 1q-0.2 0.1-0.4 0.1z"/>
			<path id="&lt;Path&gt;" class="s6" d="m211.1 297.4c0 0 9.5-9.8 4.9-33.8 0 0 7.7 6.6 25.5 1.7 0 0-10.5 1.1-15.4-3.9 0 0 9.9 4.6 25.8 0 0 0-2.8-16.1-20.1-16.9 0 0 5.6-4.7 10.9-3.8 0 0-5.4-4.7-19.3 4.4l-5.4 2.2c0 0-15.5-5.6-24 7.5-6.8 10.4-3.4 42.9 17.1 42.6z"/>
			<g id="&lt;Group&gt;">
				<path id="&lt;Path&gt;" class="s6" d="m246.1 293c0 0-4.8-1.2-18.4-1.5 1.5 4.1 4.4 7.5 11.4 7.6 7 0.1 7-6.1 7-6.1z"/>
				<path id="&lt;Path&gt;" class="s22" d="m235.9 295.8c3.4 0.1 5.8 0.9 7.6 2.2-1 0.7-2.5 1.1-4.4 1.1-3.4 0-5.8-0.8-7.6-2.1 1-0.7 2.5-1.2 4.4-1.2z"/>
				<path id="&lt;Path&gt;" class="s7" d="m245.5 292.9c-0.4 0.8-0.8 1.7-2.2 2-2.8 0.1-10.1-0.9-12-1.3-1.3-0.3-2.3-0.7-3-2.1 10.5 0.3 15.6 1.1 17.2 1.4z"/>
			</g>
			<g id="&lt;Group&gt;">
				<path id="&lt;Path&gt;" class="s9" d="m203.7 282.8v-16.1c0-10.1 6.6-18.6 15.8-21.3l5.4-0.9c-9.4 2.8-16.2 11.5-16.2 21.8v16.5z"/>
				<path id="&lt;Path&gt;" class="s9" d="m216.2 290.6c0.5 6.2-2.6 11.1-7 11.1-4.4 0-8.4-4.9-8.9-11.1-0.6-6.1 2.6-11.1 7-11.1 4.4 0 8.4 5 8.9 11.1z"/>
				<path id="&lt;Path&gt;" class="s20" d="m216.2 290.6c0.5 6.2-2.6 11.1-7 11.1-4.4 0-8.4-4.9-8.9-11.1-0.6-6.1 2.6-11.1 7-11.1 4.4 0 8.4 5 8.9 11.1z"/>
				<path id="&lt;Path&gt;" class="s9" d="m213.5 290.6c0.6 6.2-2.6 11.1-7 11.1-4.4 0-8.4-4.9-8.9-11.1-0.6-6.1 2.6-11.1 7-11.1 4.4 0 8.4 5 8.9 11.1z"/>
				<path id="&lt;Path&gt;" class="s14" d="m208 292.3l-0.4-3.3h0.6c-0.8-3.2-3-5.5-5.5-5.5-2.4 0-4.2 2.3-4.5 5.5h0.4l0.4 3.3h-0.5c0.8 3.1 3 5.5 5.5 5.5 2.4 0 4.3-2.4 4.5-5.5z"/>
			</g>
			<g id="&lt;Group&gt;">
				<g id="&lt;Group&gt;">
					<g id="&lt;Group&gt;">
						<path id="&lt;Path&gt;" class="s15" d="m179.3 292l8.7-17.2 7 16.7c0 0-7 9-14.3 7.7z"/>
						<path id="&lt;Path&gt;" class="s15" d="m201.6 268.5l5.1 14.3-11.7 8.7-7-16.7z"/>
					</g>
					<path id="&lt;Path&gt;" class="s15" d="m181.5 310.5l8.5-14.1-0.9-5.8-7.4-2.6-10.6 16.4z"/>
				</g>
				<path id="&lt;Path&gt;" class="s9" d="m187.6 301.7l-15.3 33.8c0 0 7.4-6.7 11.6-7.7 6.5-1.5 26.3 4.5 6.3 26.2 0 0-39.8 24.9-47.9 15.2-6.3-7.4 20.5-52.9 32.8-72.8z"/>
				<path id="&lt;Path&gt;" class="s16" d="m187.6 301.7l-15.3 33.8c0 0 7.4-6.7 11.6-7.7 6.5-1.5 26.3 4.5 6.3 26.2 0 0-39.8 24.9-47.9 15.2-6.3-7.4 20.5-52.9 32.8-72.8z"/>
				<path id="&lt;Path&gt;" class="s17" d="m172.3 335.5l-4.4 13.2 12.6-19.4c-3.9 2.3-8.2 6.2-8.2 6.2z"/>
			</g>
			<g id="&lt;Group&gt;">
				<g id="&lt;Group&gt;">
					<g id="&lt;Group&gt;">
						<path id="&lt;Path&gt;" class="s9" d="m229.7 305.5c-2 0-3.8 0-5-0.3-3.3-0.7-12-5.5-12.4-5.7l0.8-1.4c0.1 0 8.9 4.8 12 5.5 3 0.7 12.7 0 12.8 0l0.1 1.6c-0.3 0.1-4.5 0.3-8.3 0.3z"/>
					</g>
					<path id="&lt;Path&gt;" class="s9" d="m231.5 305.9l8-0.6c0 0-0.3-2.5-4-2.4-3.7 0.1-4 3-4 3z"/>
				</g>
				<g id="&lt;Group&gt;" style="opacity: .5">
					<g id="&lt;Group&gt;">
						<path id="&lt;Path&gt;" class="s12" d="m229.7 305.5c-2 0-3.8 0-5-0.3-3.3-0.7-12-5.5-12.4-5.7l0.8-1.4c0.1 0 8.9 4.8 12 5.5 3 0.7 12.7 0 12.8 0l0.1 1.6c-0.3 0.1-4.5 0.3-8.3 0.3z"/>
					</g>
					<path id="&lt;Path&gt;" class="s12" d="m231.5 305.9l8-0.6c0 0-0.3-2.5-4-2.4-3.7 0.1-4 3-4 3z"/>
				</g>
			</g>
		</g>
	</g>
	<g id="Desk">
		<g id="&lt;Group&gt;">
			<g id="&lt;Group&gt;">
				<g id="&lt;Group&gt;">
					<path id="&lt;Path&gt;" class="s9" d="m550.1 707.1c-1.6 0.2-3.1-1.2-3.3-3.2l-20-231.6c-0.4-4.4-3.6-7.8-7.4-7.8h-94.5c-3.8 0-7 3.4-7.4 7.8l-20 231.6c-0.2 2-1.7 3.4-3.3 3.2-1.7-0.2-2.9-2-2.8-3.9l20-231.6c0.7-8.1 6.5-14.2 13.5-14.2h94.5c7 0 12.7 6.1 13.4 14.2l20 231.6c0.2 1.9-1 3.7-2.7 3.9z"/>
				</g>
				<g id="&lt;Group&gt;" style="opacity: .4">
					<path id="&lt;Path&gt;" class="s12" d="m550.1 707.1c-1.6 0.2-3.1-1.2-3.3-3.2l-20-231.6c-0.4-4.4-3.6-7.8-7.4-7.8h-94.5c-3.8 0-7 3.4-7.4 7.8l-20 231.6c-0.2 2-1.7 3.4-3.3 3.2-1.7-0.2-2.9-2-2.8-3.9l20-231.6c0.7-8.1 6.5-14.2 13.5-14.2h94.5c7 0 12.7 6.1 13.4 14.2l20 231.6c0.2 1.9-1 3.7-2.7 3.9z"/>
				</g>
				<path id="&lt;Path&gt;" class="s6" d="m548.8 468.8h-256.8c-2.3 0-4.1-1.8-4.1-4.1v-13.1c0-2.3 1.8-4.1 4.1-4.1h256.8c2.2 0 4.1 1.8 4.1 4.1v13.1c0 2.3-1.9 4.1-4.1 4.1z"/>
				<path id="&lt;Path&gt;" class="s13" d="m548.8 468.8h-112.2v-21.3h112.2c2.2 0 4.1 1.8 4.1 4.1v13.1c0 2.3-1.9 4.1-4.1 4.1z"/>
				<g id="&lt;Group&gt;">
					<g id="&lt;Group&gt;">
						<path id="&lt;Path&gt;" class="s9" d="m446.6 707.1c-1.6 0.2-3.1-1.2-3.3-3.2l-20-231.6c-0.4-4.4-3.6-7.8-7.4-7.8h-94.5c-3.8 0-7 3.4-7.4 7.8l-20 231.6c-0.2 2-1.7 3.4-3.3 3.2-1.7-0.2-2.9-2-2.8-3.9l20-231.6c0.7-8.1 6.5-14.2 13.5-14.2h94.5c7 0 12.7 6.1 13.4 14.2l20 231.6c0.2 1.9-1 3.7-2.7 3.9z"/>
					</g>
					<g id="&lt;Group&gt;" style="opacity: .4">
						<path id="&lt;Path&gt;" class="s12" d="m446.6 707.1c-1.6 0.2-3.1-1.2-3.3-3.2l-20-231.6c-0.4-4.4-3.6-7.8-7.4-7.8h-94.5c-3.8 0-7 3.4-7.4 7.8l-20 231.6c-0.2 2-1.7 3.4-3.3 3.2-1.7-0.2-2.9-2-2.8-3.9l20-231.6c0.7-8.1 6.5-14.2 13.5-14.2h94.5c7 0 12.7 6.1 13.4 14.2l20 231.6c0.2 1.9-1 3.7-2.7 3.9z"/>
					</g>
				</g>
			</g>
			<g id="&lt;Group&gt;">
				<g id="&lt;Group&gt;">
					<path id="&lt;Path&gt;" class="s6" d="m443.3 447.5h-67.1c-2 0-3.5-1.6-3.5-3.5v-7h74.1v7c0 1.9-1.6 3.5-3.5 3.5z"/>
					<path id="&lt;Path&gt;" class="s13" d="m443.3 447.5h-67.1c-2 0-3.5-1.6-3.5-3.5v-7h74.1v7c0 1.9-1.6 3.5-3.5 3.5z"/>
				</g>
				<g id="&lt;Group&gt;">
					<path id="&lt;Path&gt;" class="s6" d="m390.8 447.5h-67.1c-1.9 0-3.5-1.6-3.5-3.5v-7h74.1v7c0 1.9-1.5 3.5-3.5 3.5z"/>
					<path id="&lt;Path&gt;" class="s16" d="m390.8 447.5h-67.1c-1.9 0-3.5-1.6-3.5-3.5v-7h74.1v7c0 1.9-1.5 3.5-3.5 3.5z"/>
					<path id="&lt;Path&gt;" class="s6" d="m385.8 443.5h-6.9v-2.5h6.9z"/>
					<path id="&lt;Path&gt;" class="s6" d="m374.8 443.5h-6.9v-2.5h6.9z"/>
				</g>
				<g id="&lt;Group&gt;">
					<path id="&lt;Path&gt;" class="s6" d="m451.9 447.5h3.6c2 0 3.7-1.5 4.1-3.5l12-73.8c0.4-2.5-1.6-4.8-4.1-4.8l-57.6-0.1-15.6 82.1h3.6z"/>
					<path id="&lt;Path&gt;" class="s16" d="m451.9 447.5h3.6c2 0 3.7-1.5 4.1-3.5l12-73.8c0.4-2.5-1.6-4.8-4.1-4.8l-57.6-0.1-15.6 82.1h3.6z"/>
					<path id="&lt;Path&gt;" class="s17" d="m395.3 442.2l-1 5.2h3.6l54 0.1h3.6c2 0 3.7-1.5 4.1-3.5l0.2-1.7z"/>
					<path id="&lt;Path&gt;" class="s6" d="m394.4 447.5h3.6c2 0 3.7-1.5 4-3.5l11.9-73.8c0.4-2.6-1.5-4.8-4.1-4.8z"/>
					<path id="&lt;Path&gt;" class="s14" d="m394.4 447.5h3.6c2 0 3.7-1.5 4-3.5l11.9-73.8c0.4-2.6-1.5-4.8-4.1-4.8z"/>
				</g>
			</g>
		</g>
	</g>
</svg>