<svg version="1.2" xmlns="http://www.w3.org/2000/svg" viewBox="0 0 1000 1000" width="1000" height="1000">
	<title>2672290</title>
	<style>
		.s0 { fill: #e0d5f8 } 
		.s1 { fill: #9c78ed } 
		.s2 { fill: #7846d1 } 
		.s3 { fill: #5b23a9 } 
		.s4 { fill: #403657 } 
		.s5 { fill: #ffa681 } 
		.s6 { fill: #ffffff } 
		.s7 { fill: #f97853 } 
		.s8 { fill: #ea5143 } 
		.s9 { fill: #6020bd } 
		.s10 { fill: #1a0b42 } 
		.s11 { fill: #614c6e } 
	</style>
	<g id="OBJECTS">
		<g id="&lt;Group&gt;">
			<path id="&lt;Path&gt;" class="s0" d="m436.8 331c-30.8-111.5-169.3-147.5-248.7-64.1q-1.7 1.8-3.4 3.6c-113.8 123.8-60 428.6 177.5 505.9 237.5 77.3 484.6-63.8 498.5-190 13.8-126.1-95.7-165.7-265.8-130.5-96.1 20-139-55.5-158.1-124.9z"/>
			<path id="&lt;Path&gt;" class="s0" d="m634.4 350.1c-31.8 5.1-40.6 33.3-16.1 53.3 8.1 6.6 19.7 12 36.2 14.8 62.9 10.4 96.2-17.4 71-53.5-15.5-22.2-59.6-19.8-91.1-14.6z"/>
			<path id="&lt;Path&gt;" class="s0" d="m142.5 577.9c-15.6-28.1-45.1-26.9-55.6 2.9-3.4 9.9-4.7 22.7-1.7 39.1 11.4 62.7 48.9 84.7 74.3 48.8 15.7-22.1-1.5-62.8-17-90.8z"/>
			<path id="&lt;Path&gt;" class="s0" d="m883.1 601.1c-3 15.3 9.7 26.2 24 20.3 4.8-2 9.5-5.7 13.8-12.4 16.2-25.2 8-46.8-14.6-44.6-13.9 1.4-20.3 21.5-23.2 36.7z"/>
			<path id="&lt;Path&gt;" class="s0" d="m802.7 439.4c15.3 3.2 26.4-9.3 20.7-23.8-1.9-4.7-5.6-9.6-12.1-13.9-24.9-16.7-46.7-8.8-44.8 13.8 1.1 13.9 21.1 20.7 36.2 23.9z"/>
			<path id="&lt;Path&gt;" class="s0" d="m431.5 275.4c12.1 9.8 27.6 3.8 29.2-11.6 0.6-5.1-0.5-11.1-4.3-18-14.4-26.2-37.4-29.2-46.1-8.3-5.4 12.9 9.2 28.1 21.2 37.9z"/>
		</g>
		<g id="&lt;Group&gt;">
			<g id="&lt;Group&gt;">
				<path id="&lt;Path&gt;" class="s1" d="m915.1 825.7c5.3 0.9 10.7-0.5 14.4-4.4 2.4-2.5 4-5.6 4-8.6q0-0.1 0-0.1c-0.1-21.4 26.2-20 34.6-46.1 8.4-26.2-24.9-28.4-43.9-12.2-13.7 11.6-30.1-4.6-50 8.9-17.3 11.7-7.7 40.7-36 31.6-9-2.9-17.1-0.1-24 5-7.8 5.9-13 14.2-15.1 23.2l2.3 1.6c55.8 34.3 81-4.3 113.7 1.1z"/>
				<g id="&lt;Group&gt;">
					<path id="&lt;Path&gt;" class="s2" d="m859.8 824.6l74-47.5c1-0.7 1.3-2 0.7-3-0.7-1-2-1.3-3-0.6l-79.6 51.1z"/>
				</g>
			</g>
			<g id="&lt;Group&gt;">
				<g id="&lt;Group&gt;">
					<path id="&lt;Path&gt;" class="s3" d="m855.8 683.1c-3.2-46.6-3.7-95.4-0.2-127.8 4.5-42.4 14.8-71.8 30.5-87.6 1-1.1 2.7-1.1 3.7 0 1.1 1 1.1 2.7 0 3.7-27.4 27.6-37.2 101.7-28.5 214.5z"/>
				</g>
				<path id="&lt;Path&gt;" class="s2" d="m862.8 517.9c0 0-22.4-0.1-20.8-39.3 0 0 34.2 9.7 20.8 39.3z"/>
				<path id="&lt;Path&gt;" class="s2" d="m860.9 538.1c0 0-1.2-22.3 38.1-22.9 0 0-7.9 34.6-38.1 22.9z"/>
				<path id="&lt;Path&gt;" class="s2" d="m878 483c0 0-8.6-20.6 28.2-34.3 0 0 4.2 35.3-28.2 34.3z"/>
				<path id="&lt;Path&gt;" class="s2" d="m855.9 578.6c0 0-21 7.5-32.8-30 0 0 35.4-2.4 32.8 30z"/>
				<path id="&lt;Path&gt;" class="s2" d="m857.1 599.4c0 0-5-21.7 33.5-29.1 0 0-1.7 35.5-33.5 29.1z"/>
				<path id="&lt;Path&gt;" class="s2" d="m855.9 628.2c0 0-20.9 7.9-33.3-29.4 0 0 35.3-3 33.3 29.4z"/>
			</g>
			<g id="&lt;Group&gt;">
				<path id="&lt;Path&gt;" class="s2" d="m208 787l-6.1-0.2-3.2-0.2-9.2-0.3c0 0-84.5-143.4-31.5-190.2 16.3-14.4 44.7-2.5 38.4 63.7-5.8 61.4 11.6 127.2 11.6 127.2z"/>
				<g id="&lt;Group&gt;">
					<path id="&lt;Path&gt;" class="s3" d="m201.9 786.8l-3.2-0.2c-14.8-34.7-22.2-72-25.9-98.2-4.4-31.1-4.6-53.7-4.6-54 0-0.8 0.6-1.4 1.4-1.4 0.8 0 1.5 0.6 1.5 1.4 0 0.3 0.2 22.7 4.6 53.6 3.7 26.3 11.2 64 26.2 98.8z"/>
				</g>
			</g>
			<g id="&lt;Group&gt;">
				<path id="&lt;Path&gt;" class="s1" d="m224.7 815.7l-8.2 3.1-4.4 1.6-12.4 4.6c0 0-192.8-144.5-148.1-236.5 13.7-28.3 58.4-28.2 86.9 63.7 26.3 85.2 86.2 163.5 86.2 163.5z"/>
				<g id="&lt;Group&gt;">
					<path id="&lt;Path&gt;" class="s2" d="m216.5 818.8l-4.4 1.6c-39.1-38.2-69.8-83.9-89.4-116.9-23.1-39.1-36-69.1-36.1-69.4-0.5-1.1 0-2.4 1.1-2.8 1.1-0.5 2.3 0 2.8 1.1 0.1 0.3 12.9 30.2 35.9 69.1 19.7 33.1 50.7 79.2 90.1 117.3z"/>
				</g>
			</g>
			<g id="&lt;Group&gt;">
				<path id="&lt;Path&gt;" class="s2" d="m883.7 823.9c-0.1-3.3-0.5-6.7-1.2-10-6.9-31.7 11.9-37.7 36.8-47.7 24.9-10.1 27.8-39.8 10.2-64.6-17.6-24.7 14-44.6 2.4-81.8-11.7-37.2-52.1-12.5-61 21.8-6.3 24.7-38.7 19.4-50.6 51.4-10.4 27.8 24.4 53.4-15.8 66.2-12.9 4-20 13.9-23.7 25.4-4.3 13.4-3.5 27.2 1.4 39.3z"/>
				<g id="&lt;Group&gt;">
					<path id="&lt;Path&gt;" class="s3" d="m834.5 823.9l66.3-163.7c0.6-1.6-0.1-3.3-1.7-4-1.5-0.6-3.3 0.2-3.9 1.7l-67.3 166z"/>
				</g>
			</g>
		</g>
		<g id="&lt;Group&gt;">
			<path id="&lt;Path&gt;" class="s4" d="m281.8 328.9c0 0 1.4-29.5-16.5-35.2-27.9-8.8-35.7 5.7-40 15.3-5.5 12.2-3.2 36.3 13.5 38.6 24.8 3.5 41.5-10.5 43-18.7z"/>
			<g id="&lt;Group&gt;">
				<path id="&lt;Path&gt;" class="s4" d="m299.8 427.5c14.5 0 27.1-10.2 30-24.4 2.2-10.2 4.3-19.3 4.3-24.4v-0.1q0.2-2.4 0.2-4.8c0.2-23.3-14.2-65.8-64.6-59 0 0-41.9 4.8-46.6 45.7 0 0-2 18.8-3.3 32.5q-0.1 0.4-0.1 0.7c-1.9 18.1 12.3 33.8 30.5 33.8z"/>
			</g>
			<g id="&lt;Group&gt;">
				<g id="&lt;Group&gt;">
					<path id="&lt;Path&gt;" class="s2" d="m359.7 476.1c0 0 8.9 70.6 19.1 106.9 0 0 14.5-6.7 33.4-15.9 20.6-9.9 50.1-28 50.1-28l7.5 18c0 0-76.3 72-101.6 76.1-25.3 4-40.8-86.5-40.8-86.5z"/>
					<path id="&lt;Path&gt;" class="s5" d="m460.7 541.2c0 0-2.1-10 2.4-16.8 4.5-6.8 11.4-19.5 19.4-22.2 6.7-2.2-3.2 9.1-3.5 16.3 0 0 10-1.2 17.2-3.6 6.4-2 18.9-4.6 24.7-5.8 1.6-0.3 2.6 1.7 1.4 2.8-2 1.7-6.1 3.9-14.7 6 0 0 20.9-4 23.1-0.8 2.1 3.2-24.1 7.7-24.1 7.7 0 0 20.4-1.2 20.9 1.9 0.3 2-20.8 6.4-20.8 6.4 0 0 19.3 0.6 14.6 3.6-1.3 0.9-38.6 5.1-51.5 20.4 0 0-8.8-9-9.1-15.9z"/>
				</g>
			</g>
			<g id="&lt;Group&gt;">
				<g id="&lt;Group&gt;">
					<path id="&lt;Path&gt;" class="s2" d="m231.1 462.2c0 0-42.7 12.6-79.5 20.8 0 0-0.9-15.9-1.9-36.9-1-22.8 0.8-57.4 0.8-57.4l-19.3 2c0 0-27.1 101.3-18.6 125.5 8.4 24.2 115.5-9.7 115.5-9.7z"/>
					<path id="&lt;Path&gt;" class="s5" d="m149.4 391.1c0 0 9.9-3 13.7-10.1 3.8-7.2 14.4-21.7 7.9-27-2.4-2-4.1 6.5-10.3 10.2 0 0-3.7-9.4-5-16.8-1.2-6.6-4.9-18.8-6.7-24.5-0.5-1.6-2.7-1.5-3.1 0.1-0.6 2.6-0.5 7.2 1.8 15.8 0 0-6.5-20.3-10.3-20.7-3.9-0.4 4.7 24.8 4.7 24.8 0 0-8.7-18.5-11.7-17.4-1.9 0.6 4.2 21.3 4.2 21.3 0 0-9.6-16.7-10-11.1-0.2 1.6 13.9 36.3 6.6 55 0 0 12 3.4 18.2 0.4z"/>
				</g>
			</g>
			<g id="&lt;Group&gt;">
				<g id="&lt;Group&gt;">
					<path id="&lt;Path&gt;" class="s1" d="m358.1 749.9l0.3 1.5c-33.2 22.5-157.5 7.1-157.5 7.1q0.3-3.9 0.8-8.1 0.6-4.8 1.5-9.8c1.5-9.1 3.5-18.9 5.7-28.9q1.1-4.8 2.3-9.6c2.2-9.6 4.6-19.4 6.9-28.9q1.1-4.9 2.2-9.7c1.1-4.4 2.1-8.8 3-13 1.2-5.7 2.3-11.1 3.2-16.2q1-5.1 1.6-9.8 0.7-5 1-9.3c-2-7.3-3.8-14.5-5.5-21.4q-1.3-5.3-2.6-10.4c-2.5-10.9-4.7-21.4-6.7-31.1q-1.1-5.3-2-10.3c-2.2-11.5-3.9-21.9-5.4-31-0.5-3.6-1-7-1.5-10.2q-0.7-5.2-1.3-9.6c-1.6-12.9-2.2-20.2-2.2-20.2q0.4-0.3 0.9-0.7c3.8-2.6 9.7-5.2 16.2-7.4 6.9-2.4 14.6-4.4 21.3-6.1q1.6-0.3 3-0.7c8.9-2 15.5-3.2 15.5-3.2 30.2 6.3 38.8 2.2 38.8 2.2l15.3 4.5 1.8 0.7 11.2 3.9 0.4 0.1 20 7.1 13.4 4.7-5.2 23.9-2.3 10.4-6.8 31.5-2.2 10.4-6.8 31.4-2.3 10.3-5.6 26 1.1 4.9 2.2 9.6 3.5 15.4 3.2 13.8 2.2 9.6 6.5 28.9 2.2 9.6 6.5 28.5z"/>
					<path id="&lt;Path&gt;" class="s5" d="m314.7 460.3c-3.2 18.8-12.4 37.8-31.3 39.8-23 2.5-34.9-26.3-40.1-44 8.9-2 18.1-4.1 18.1-4.1 30.1 6.3 35.9 2.5 35.9 2.5l15.6 5.1z"/>
					<g id="&lt;Group&gt;">
						<path id="&lt;Path&gt;" class="s6" d="m281 484.3c-24 0-29.8-29.7-29.8-30-0.1-0.7 0.3-1.3 0.9-1.4 0.7-0.1 1.3 0.3 1.4 0.9 0.2 1.2 5.7 29.3 28.9 28.1 20.4-1.1 21.6-23.6 21.6-24.6 0-0.6 0.6-1.2 1.2-1.1 0.7 0 1.2 0.5 1.2 1.2 0 0.3-1.3 25.7-23.9 26.8q-0.7 0.1-1.5 0.1z"/>
					</g>
					<path id="&lt;Path&gt;" class="s2" d="m237.9 476.1c0 3.2-2.6 5.9-5.9 5.9-3.2 0-5.9-2.7-5.9-5.9 0-3.3 2.7-5.9 5.9-5.9 3.3 0 5.9 2.6 5.9 5.9z"/>
					<path id="&lt;Path&gt;" class="s2" d="m226.1 504.7c0 3.3-2.6 5.9-5.8 5.9-3.3 0-5.9-2.6-5.9-5.9 0-3.2 2.6-5.8 5.9-5.8 3.2 0 5.8 2.6 5.8 5.8z"/>
					<path id="&lt;Path&gt;" class="s2" d="m263.6 518.3c0 3.2-2.6 5.8-5.9 5.8-3.2 0-5.8-2.6-5.8-5.8 0-3.3 2.6-5.9 5.8-5.9 3.3 0 5.9 2.6 5.9 5.9z"/>
					<path id="&lt;Path&gt;" class="s2" d="m237.5 534.3c1.2 3-0.3 6.4-3.3 7.6-3 1.2-6.4-0.3-7.6-3.3-1.2-3 0.2-6.4 3.2-7.6 3-1.2 6.5 0.3 7.7 3.3z"/>
					<path id="&lt;Path&gt;" class="s2" d="m288.3 545.1c0 3.3-2.6 5.9-5.8 5.9-3.3 0-5.9-2.6-5.9-5.9 0-3.2 2.6-5.9 5.9-5.9 3.2 0 5.8 2.7 5.8 5.9z"/>
					<path id="&lt;Path&gt;" class="s2" d="m325.8 557.2c0 3.3-2.6 5.9-5.9 5.9-3.2 0-5.9-2.6-5.9-5.9 0-3.2 2.7-5.9 5.9-5.9 3.3 0 5.9 2.7 5.9 5.9z"/>
					<path id="&lt;Path&gt;" class="s2" d="m333.3 482c0 3.2-2.6 5.8-5.9 5.8-3.2 0-5.8-2.6-5.8-5.8 0-3.3 2.6-5.9 5.8-5.9 3.3 0 5.9 2.6 5.9 5.9z"/>
					<path id="&lt;Path&gt;" class="s2" d="m290.7 582.6c0 3.2-2.6 5.9-5.8 5.9-3.3 0-5.9-2.7-5.9-5.9 0-3.2 2.6-5.9 5.9-5.9 3.2 0 5.8 2.7 5.8 5.9z"/>
					<path id="&lt;Path&gt;" class="s2" d="m254.6 600.8c0 3.2-2.7 5.9-5.9 5.9-3.2 0-5.9-2.7-5.9-5.9 0-3.2 2.7-5.9 5.9-5.9 3.2 0 5.9 2.7 5.9 5.9z"/>
					<path id="&lt;Path&gt;" class="s2" d="m250.3 567.7c0 3.2-2.6 5.8-5.8 5.8-3.3 0-5.9-2.6-5.9-5.8 0-3.3 2.6-5.9 5.9-5.9 3.2 0 5.8 2.6 5.8 5.9z"/>
					<path id="&lt;Path&gt;" class="s2" d="m308.2 519.8c0 3.2-2.7 5.9-5.9 5.9-3.2 0-5.9-2.7-5.9-5.9 0-3.2 2.7-5.9 5.9-5.9 3.2 0 5.9 2.7 5.9 5.9z"/>
					<path id="&lt;Path&gt;" class="s2" d="m340.6 512.4c0 3.2-2.6 5.9-5.8 5.9-3.3 0-5.9-2.7-5.9-5.9 0-3.2 2.6-5.9 5.9-5.9 3.2 0 5.8 2.7 5.8 5.9z"/>
					<path id="&lt;Path&gt;" class="s2" d="m319.9 592.3c0 3.3-2.6 5.9-5.9 5.9-3.2 0-5.8-2.6-5.8-5.9 0-3.2 2.6-5.9 5.8-5.9 3.3 0 5.9 2.7 5.9 5.9z"/>
					<path id="&lt;Path&gt;" class="s2" d="m321.5 638.8c0 3.2-2.6 5.8-5.9 5.8-3.2 0-5.8-2.6-5.8-5.8 0-3.3 2.6-5.9 5.8-5.9 3.3 0 5.9 2.6 5.9 5.9z"/>
					<path id="&lt;Path&gt;" class="s2" d="m291.6 619.4c1.2 3-0.2 6.4-3.3 7.6-3 1.2-6.4-0.3-7.6-3.3-1.2-3 0.3-6.4 3.3-7.6 3-1.2 6.4 0.3 7.6 3.3z"/>
					<path id="&lt;Path&gt;" class="s2" d="m251.7 636.6c1.2 3-0.3 6.4-3.3 7.6-3 1.2-6.4-0.3-7.6-3.3-1.3-3 0.2-6.4 3.2-7.6 3-1.2 6.5 0.3 7.7 3.3z"/>
				</g>
				<path id="&lt;Path&gt;" class="s1" d="m370.5 823.9l-1.2-7.3-4.7-28.4-1.6-9.7-4.6-27.1-8.2 0.3-109 5-40.3 1.8-2.6 21.1-1.2 9.8-3.6 29.1-0.7 5.4z"/>
				<g id="&lt;Group&gt;">
					<g id="&lt;Group&gt;">
						<path id="&lt;Path&gt;" class="s4" d="m370.5 823.9l-1.1-6.6-0.1-0.7-0.8-4.7-0.8-4.6-3.1-19.1-1-5.6-0.7-4.1-0.1-0.6-4.1-24.8-0.2-1.7-0.4-1.5-0.3-1.4-1.9-8.2-3.6-16-1.1-4.5-1.8-8-2.2-9.6-1.5-6.6-1-4.6-4-17.7-1.5-6.4-0.7-3.2-0.3-1.4-2.9-12.5c-44.3 13.1-91.2 5.4-112 0.7-0.9 4.2-1.9 8.6-3 13q-0.3 1.5-0.7 2.9-0.5 2.3-1.1 4.6c-0.1 0.8-0.3 1.5-0.5 2.2-1.7 7.3-3.5 14.7-5.2 22-0.4 1.5-0.7 3.1-1.1 4.5-0.2 0.8-0.4 1.6-0.6 2.4-0.7 3.2-1.4 6.4-2.2 9.6q-1.4 6.3-2.6 12.4c-0.3 1.5-0.7 3-0.9 4.4q-1.3 6.2-2.3 12.1c-0.5 3.3-1 6.6-1.3 9.8-0.2 0.9-0.3 1.9-0.4 2.8-0.2 1.6-0.3 3.1-0.5 4.7 0 0.2 0 0.4 0 0.6l-2.6 21.1-0.4 3.3-0.6 4.6-0.2 1.9-2.9 23.1-0.5 4.6-0.2 1.5-0.7 5.3z"/>
					</g>
				</g>
			</g>
			<g id="&lt;Group&gt;">
				<g id="&lt;Group&gt;">
					<g id="&lt;Group&gt;">
						<path id="&lt;Path&gt;" class="s7" d="m316.9 381.4c0 0 7.2-9.1 12.6-1.6 5.3 7.6-2.2 29.9-15.3 24.4z"/>
						<g id="&lt;Group&gt;">
							<path id="&lt;Path&gt;" class="s8" d="m317 397.3c0.5 0 0.9-0.3 1.1-0.7 2-6.9 9.5-9.7 9.6-9.7 0.6-0.2 0.9-0.9 0.6-1.4-0.2-0.5-0.8-0.8-1.4-0.6-0.3 0.1-8.6 3.2-11 11.1-0.1 0.6 0.2 1.1 0.8 1.3q0.2 0 0.3 0z"/>
						</g>
						<g id="&lt;Group&gt;">
							<path id="&lt;Path&gt;" class="s8" d="m324.6 393.9q0.3 0 0.6-0.2c0.5-0.3 0.7-1 0.3-1.5 0 0-1.4-2-4.1-3.1-0.6-0.3-1.3 0-1.5 0.5-0.3 0.5 0 1.1 0.6 1.4 2.1 0.9 3.1 2.4 3.2 2.4 0.2 0.3 0.5 0.5 0.9 0.5z"/>
						</g>
						<g id="&lt;Group&gt;">
							<path id="&lt;Path&gt;" class="s6" d="m313.7 404.1c-1.3 1.4-2 3.2-2 5.2 0 4.3 3.5 7.8 7.8 7.8 4.3 0 7.8-3.5 7.8-7.8 0-2.5-1.2-4.7-3-6.1-0.9-0.8-1.9-1.3-3.1-1.5q-0.3-0.8 0.3-1.5c1.5 0.3 2.8 1 3.9 1.9 2.1 1.7 3.4 4.3 3.4 7.2 0 5.1-4.2 9.3-9.3 9.3-5.1 0-9.3-4.2-9.3-9.3 0-2.2 0.8-4.3 2.1-5.9q0.7 0.4 1.4 0.7z"/>
						</g>
					</g>
					<path id="&lt;Path&gt;" class="s5" d="m261.4 428v27.4c0 0 12.7 9.8 22.6 10.7 9.9 0.8 13.3-10.9 13.3-10.9v-25.4z"/>
					<path id="&lt;Path&gt;" class="s7" d="m261.4 430.7v10.9c6.6 7.4 18.4 10 35.9 7.5v-16.7z"/>
					<path id="&lt;Path&gt;" class="s5" d="m321.3 391.8c-0.4 2.6-0.7 5.3-1.2 8-3.2 17.8-14.4 37-28.6 40.2-30.7 7-43.4-17.1-48.3-34.9-0.6-2 0.5-4.2 0-6.6-1-5.5-3.2-11.8-3.7-18-0.4-4.3-0.6-8.5-0.8-12.4-0.5-10.8 5.7-20.7 15.5-24.6 14.1-5.6 35.5-10 55.8 1.9 7.5 4.4 12.2 12.5 12.4 21.4 0.1 6.8-0.1 15.7-1.1 25z"/>
					<g id="&lt;Group&gt;">
						<path id="&lt;Path&gt;" class="s7" d="m282.4 405.6c-0.6 0-1.1-0.5-1.2-1-0.1-0.7 0.3-1.3 1-1.4l4.1-0.7-5.7-15c-0.2-0.6 0.1-1.3 0.7-1.5 0.6-0.3 1.3 0 1.5 0.7l6.7 17.7-6.9 1.1q-0.1 0.1-0.2 0.1z"/>
					</g>
					<g id="&lt;Group&gt;">
						<path id="&lt;Path&gt;" class="s4" d="m297 385.7c0 2.6 1.4 4.7 3.1 4.7 1.6 0 3-2.1 3-4.7 0-2.6-1.4-4.8-3-4.8-1.7 0-3.1 2.2-3.1 4.8z"/>
					</g>
					<g id="&lt;Group&gt;">
						<path id="&lt;Path&gt;" class="s4" d="m263.6 385.7c0 2.6 1.4 4.7 3.1 4.7 1.6 0 3-2.1 3-4.7 0-2.6-1.4-4.8-3-4.8-1.7 0-3.1 2.2-3.1 4.8z"/>
					</g>
					<g id="&lt;Group&gt;">
						<path id="&lt;Path&gt;" class="s4" d="m308.9 373.2c-2.4-0.4-7.3-1.2-12.5-1-1.4 0-2.5 1-2.3 2.1v0.1c0.1 0.8 1.1 1.4 2.2 1.4 3.5-0.3 12.9-0.3 17.2 1 0.1-0.6-0.3-1.3-0.9-1.8-0.9-0.9-2.2-1.5-3.7-1.8z"/>
					</g>
					<g id="&lt;Group&gt;">
						<path id="&lt;Path&gt;" class="s4" d="m260.4 373.8c2.4-0.5 7.3-1.4 12.5-1.2 1.4 0 2.5 1 2.3 2.1-0.1 0.9-1 1.5-2.1 1.4-3.6-0.2-12.9 0-17.3 1.4-0.1-0.7 0.3-1.3 0.9-1.9 0.9-0.9 2.2-1.5 3.7-1.8z"/>
					</g>
					<path id="&lt;Path&gt;" class="s6" d="m297 412.7c-0.9 4.1-3.8 11.8-13.7 11.8-9.9 0-12.7-7-13.6-11.8z"/>
					<g id="&lt;Group&gt;">
						<path id="&lt;Path&gt;" class="s7" d="m283.5 431.7c2.8 0 5.3-1.5 5.4-1.6 0.6-0.3 0.8-1.1 0.4-1.6-0.3-0.6-1-0.7-1.6-0.4 0 0-2.1 1.3-4.2 1.3-2.4 0-4.5-1.3-4.5-1.3-0.6-0.3-1.3-0.2-1.6 0.4-0.4 0.6-0.2 1.3 0.4 1.6 0.1 0.1 2.6 1.6 5.7 1.6z"/>
					</g>
					<path id="&lt;Path&gt;" class="s4" d="m322.5 389q-0.4 0.4-0.8-0.3c-4.1-7.1-0.3-21.4-12.3-26.9-9.1-4.1-12.4-12.7-12.4-12.7-2.1 3.6-7.5 6.9-7.5 6.9 0 0-13.8 8.2-28.1 13.7-4.3 1.6-7.3 3.3-9.4 4.7q0.2 0.1 0.2 0.1c0 0-4 6.4-1 16.5 2.9 10-0.9 26.5-7.3 30.3 0.1-0.3 4.9-11.7 2.2-21-1.6-5.4-1.6-13.9-3.1-19-1.6-1.1-5.4-3-6.7-3.8-0.4-4.4-0.7-8.7-0.8-12.6-0.6-11 6-21.2 16.3-25.1 14.9-5.7 37.5-10.3 58.9 1.9 7.9 4.5 12.8 12.7 13 21.8 0.1 6.9-0.1 16-1.2 25.5z"/>
				</g>
				<g id="&lt;Group&gt;">
					<path id="&lt;Path&gt;" class="s5" d="m243 381.3c0 0-8.3-10.1-13.3-2.8-4.9 7.3 2.4 29.8 14.5 24.5z"/>
					<g id="&lt;Group&gt;">
						<path id="&lt;Path&gt;" class="s6" d="m243.4 403.4c0.8 1.6 1.1 3.6 0.7 5.5-1.1 4.2-5.3 6.7-9.5 5.7-4.2-1.1-6.7-5.3-5.7-9.5 0.6-2.4 2.3-4.3 4.4-5.2 1-0.5 2.2-0.7 3.4-0.7 0.2-0.5 0.3-0.9 0.1-1.5-1.6-0.1-3 0.3-4.4 0.9-2.4 1.2-4.3 3.4-5 6.1-1.2 5 1.8 10.1 6.8 11.3 5 1.3 10.1-1.8 11.3-6.7 0.6-2.2 0.3-4.3-0.6-6.2q-0.8 0.1-1.5 0.3z"/>
					</g>
					<g id="&lt;Group&gt;">
						<path id="&lt;Path&gt;" class="s7" d="m241.2 395.5c-0.4 0-0.8-0.3-1-0.8-1.8-6.6-8.8-9.3-8.8-9.4-0.6-0.2-0.8-0.8-0.6-1.3 0.2-0.5 0.8-0.8 1.3-0.6 0.3 0.1 7.9 3.1 10.1 10.8 0.2 0.5-0.2 1.1-0.7 1.3q-0.1 0-0.3 0z"/>
					</g>
					<g id="&lt;Group&gt;">
						<g id="&lt;Group&gt;">
							<path id="&lt;Path&gt;" class="s7" d="m234.2 392.1q-0.3 0-0.5-0.1c-0.5-0.3-0.6-1-0.3-1.4 0-0.1 1.2-2 3.8-3.1 0.5-0.3 1.1 0 1.4 0.5 0.2 0.5 0 1.1-0.6 1.3-1.9 0.9-2.9 2.3-2.9 2.4-0.2 0.3-0.5 0.4-0.9 0.4z"/>
						</g>
					</g>
				</g>
			</g>
		</g>
		<g id="&lt;Group&gt;">
			<path id="&lt;Path&gt;" class="s5" d="m686.8 602.1c-19.5 14-50 23.6-50 23.6l-6.2-22.5-4.9-17.5-3.5-12.4h-34.9c1.9 6.5 3.8 13.2 5.8 19.8 2.5 8.5 5 16.9 7.4 24.5 3.4 10.8 6.5 20.3 9 27.1q0.9 2.4 2.1 5.2c4.6 12.6 8.4 26.3 26.2 17.7 15.7-7.6 37-18 47.7-25z"/>
			<g id="&lt;Group&gt;">
				<path id="&lt;Path&gt;" class="s7" d="m593.1 593.1c2.5 8.5 5 16.9 7.4 24.5 14.3-1.5 24.2-8.6 30.1-14.4l-4.9-17.5z"/>
				<path id="&lt;Path&gt;" class="s9" d="m585.7 470.5c0 0 36.5 87 52.1 115.2 0 0-21.9 18.7-43.4 19.2 0 0-12.3-95.5-8.7-134.4z"/>
			</g>
			<g id="&lt;Group&gt;">
				<g id="&lt;Group&gt;">
					<g id="&lt;Group&gt;">
						<path id="&lt;Path&gt;" class="s1" d="m500.3 823.9c0.4-6 0.7-11.8 1-17.2 1.3-22 2.1-36.9 2.1-36.9l-8.6-0.4-4.8-0.2-58.5-2.6c0 0-1 16.7-2.3 41.3-0.2 5.1-0.5 10.4-0.8 16z"/>
					</g>
				</g>
				<path id="&lt;Path&gt;" class="s2" d="m494.8 769.4l8.6 0.4c0 0-0.8 14.9-2.1 36.9-22.4 1.9-47 2.6-72.1 1.2 1.3-24.6 2.3-41.3 2.3-41.3l58.5 2.6z"/>
				<g id="&lt;Group&gt;">
					<path id="&lt;Path&gt;" class="s2" d="m491.8 823.9c1.3-23.4 2.4-43.5 3-54.5l-4.8-0.2c-0.6 11-1.7 31.2-3.1 54.7z"/>
				</g>
			</g>
			<g id="&lt;Group&gt;">
				<g id="&lt;Group&gt;">
					<g id="&lt;Group&gt;">
						<path id="&lt;Path&gt;" class="s1" d="m519.1 823.9h71.9c-0.3-5.6-0.5-10.9-0.8-16-1.3-24.6-2.3-41.3-2.3-41.3l-58.5 2.6-4.8 0.2-8.6 0.4c0 0 0.8 14.9 2.1 36.9 0.3 5.4 0.7 11.2 1 17.2z"/>
					</g>
				</g>
				<path id="&lt;Path&gt;" class="s2" d="m524.6 769.4l-8.6 0.4c0 0 0.8 14.9 2.1 36.9 22.5 1.9 47 2.6 72.1 1.2-1.3-24.6-2.3-41.3-2.3-41.3l-58.5 2.6z"/>
				<g id="&lt;Group&gt;">
					<path id="&lt;Path&gt;" class="s2" d="m532.5 823.9c-1.4-23.5-2.5-43.7-3.1-54.7l-4.8 0.2c0.6 11 1.7 31.1 3 54.5z"/>
				</g>
			</g>
			<g id="&lt;Group&gt;">
				<g id="&lt;Group&gt;">
					<g id="&lt;Group&gt;">
						<g id="&lt;Group&gt;">
							<path id="&lt;Path&gt;" class="s2" d="m418.8 724.9q0 1.8 0 3.5c0.1 21.4 0.2 38 0.3 46.1q31 8.4 61.9 10.9 1.4 0.1 2.8 0.2 0.8 0.1 1.6 0.1 1.6 0.1 3.3 0.2 1.8 0.1 3.7 0.2 21 1 42.1-0.7 4.3-0.4 8.5-0.9 0.3 0 0.6 0 1.1-0.1 2.2-0.3 0.6-0.1 1.3-0.1 24.5-3 49-9.6c0.1-3.7 0.1-9.2 0.1-16.1q0-1.9 0-3.9v-0.1c0-9.8-0.1-22.1-0.2-36q0-1.8 0-3.6c-0.1-9.3-0.2-19.2-0.3-29.5q0-1.8-0.1-3.6c-0.1-10.6-0.3-21.6-0.4-32.8q-0.2-10.2-0.4-20.6-0.2-10.5-0.5-20.9 0-2.3-0.1-4.6c-1.6-65.7-4.4-126.1-8.9-132.8-3.2-4.6-10.5-10.1-19.1-15.7q-1.5-1-3.1-2c-3.7-2.3-33.5-12.4-37.2-14.6l-31.5-2.2c-0.2 0.1-30.3 10.3-30.5 10.4q-1.9 1.1-3.9 2.2c-11.1 6.4-22.1 13.2-28.5 19q-1.3 1.3-2.4 2.5-0.9 1-1.5 1.9-0.5 0.8-1.1 2.8c-3.8 13.8-5.8 68.2-6.8 127.3q-0.1 6.4-0.2 12.8 0 2.8 0 5.6-0.1 2-0.1 3.9 0 1 0 2-0.1 4.8-0.1 9.6-0.1 3.5-0.1 7.1c-0.3 29.8-0.4 58.7-0.4 82.3z"/>
						</g>
					</g>
				</g>
			</g>
			<g id="&lt;Group&gt;">
				<g id="&lt;Group&gt;">
					<path id="&lt;Path&gt;" class="s5" d="m362.6 809.4c-0.8 8.4 9.4 3.8 6.5-13.2-2.8-17 5.4-32.4 8.9-32 3.5 0.6-2.9 18.6 0.2 25.1 3.1 6.6 7.2-6.1 11.3-13.8 4.2-8 3.9-25.4 2-37.8-1.9-12.4 20.6-87.8 20.7-109.7l2.8-9.3 10-33.9 15.7-53.2c0 0-9.4-40.2-25.3-36.7 0 0-8.4 28-17.4 59.6-1.5 5.3-3 10.8-4.6 16.3-6.4 22.9-12.4 45.5-15.2 58.9-7.4 35.5-7.9 109.1-7.9 109.1 0 0-13.1 27.1-13.4 39.1-0.3 12.8 6.4 23.1 5.7 31.5z"/>
					<path id="&lt;Path&gt;" class="s7" d="m393.4 570.8l21.6 47.9 10-33.9-27-30.3c-1.5 5.3-3 10.8-4.6 16.3z"/>
				</g>
				<g id="&lt;Group&gt;">
					<path id="&lt;Path&gt;" class="s2" d="m392.4 556.5c9.4 16.2 19 32.3 28.6 48.4 3.1-10.6 6.4-20.7 9.4-30q0.1 0 0.1-0.1 1.8-5.5 3.5-10.7 0.1-0.1 0.1-0.2 0.6-1.8 1.2-3.5c4.5-13.8 8.1-24.8 9.1-31.2 2.7-17.2-4.7-50.9-15.2-57.6-0.3 0.6-1.1-1.2-1.6-0.1-1.8 4.3-10 14.7-14 25q-0.8 1.9-1.6 4c-5.9 15-13 34.6-19.6 56z"/>
				</g>
			</g>
			<g id="&lt;Group&gt;">
				<g id="&lt;Group&gt;">
					<g id="&lt;Group&gt;">
						<path id="&lt;Path&gt;" class="s9" d="m508.7 467c13.7 0 23.3-12.5 23.7-13 0.5-0.7 0.4-1.8-0.3-2.5-0.7-0.6-1.7-0.5-2.3 0.3-0.1 0.2-9.1 11.7-21.1 11.7-11.8 0-19.1-13.1-19.2-13.2-0.4-0.8-1.4-1.1-2.2-0.6-0.8 0.5-1.1 1.5-0.6 2.4 0.3 0.6 8.2 14.9 22 14.9z"/>
					</g>
				</g>
				<g id="&lt;Group&gt;">
					<path id="&lt;Path&gt;" class="s9" d="m566.3 586.1q0.4 0 0.8-0.2c0.8-0.4 1.1-1.5 0.7-2.4l-5.9-12.5c-0.4-0.9-1.4-1.3-2.3-0.8-0.8 0.4-1.1 1.5-0.7 2.4l6 12.5c0.2 0.6 0.8 1 1.4 1z"/>
				</g>
				<g id="&lt;Group&gt;">
					<path id="&lt;Path&gt;" class="s9" d="m578.7 575.8q0.3 0.2 0.8 0.3c0.9 0.1 1.7-0.7 1.7-1.6l1.2-14.1c0.1-0.9-0.6-1.8-1.5-1.9-0.9-0.1-1.7 0.7-1.8 1.6l-1.2 14c0 0.7 0.3 1.4 0.8 1.7z"/>
				</g>
				<g id="&lt;Group&gt;">
					<path id="&lt;Path&gt;" class="s9" d="m546.8 554.1c0.8 0 1.5-0.6 1.6-1.5l2.2-13.9c0.1-1-0.5-1.9-1.4-2-0.9-0.2-1.7 0.5-1.9 1.4l-2.1 13.9c-0.2 1 0.4 1.9 1.3 2q0.2 0.1 0.3 0.1z"/>
				</g>
				<g id="&lt;Group&gt;">
					<path id="&lt;Path&gt;" class="s9" d="m493.4 559.2q0.5 0 0.9-0.2c0.7-0.5 1-1.6 0.5-2.4l-6.7-12.1c-0.4-0.9-1.4-1.2-2.2-0.7-0.8 0.5-1.1 1.6-0.6 2.5l6.7 12.1c0.3 0.5 0.8 0.8 1.4 0.8z"/>
				</g>
				<g id="&lt;Group&gt;">
					<path id="&lt;Path&gt;" class="s9" d="m559 505q0.5 0 0.9-0.3l11-7.7c0.8-0.5 1-1.6 0.5-2.4-0.5-0.8-1.5-1.1-2.3-0.5l-11 7.6c-0.8 0.5-1 1.6-0.5 2.4 0.3 0.6 0.9 0.9 1.4 0.9z"/>
				</g>
				<g id="&lt;Group&gt;">
					<path id="&lt;Path&gt;" class="s9" d="m509.8 617.8q0.4 0 0.7-0.2c0.8-0.4 1.2-1.5 0.7-2.4l-5.9-12.5c-0.4-0.9-1.4-1.3-2.2-0.8-0.8 0.4-1.2 1.5-0.8 2.4l6 12.5c0.3 0.6 0.9 1 1.5 1z"/>
				</g>
				<g id="&lt;Group&gt;">
					<path id="&lt;Path&gt;" class="s9" d="m535.9 514.4c0.5 0 1.1-0.3 1.4-0.8 0.5-0.9 0.2-2-0.5-2.5l-11.2-7.4c-0.8-0.6-1.8-0.3-2.3 0.5-0.5 0.9-0.2 1.9 0.5 2.5l11.2 7.4q0.4 0.3 0.9 0.3z"/>
				</g>
				<g id="&lt;Group&gt;">
					<path id="&lt;Path&gt;" class="s9" d="m562.4 462.2q0 0.5 0.2 0.9c0.3 0.6 0.8 0.9 1.3 1 1 0 1.7-0.7 1.8-1.7l0.5-8q-1.5-1.1-3.2-2.1z"/>
				</g>
				<g id="&lt;Group&gt;">
					<path id="&lt;Path&gt;" class="s9" d="m577.3 539.2c0.5 0 1.1-0.3 1.4-0.8 0.5-0.8 0.2-1.9-0.5-2.4l-11.2-7.5c-0.8-0.5-1.8-0.3-2.3 0.6-0.5 0.8-0.2 1.9 0.5 2.4l11.2 7.5q0.4 0.2 0.9 0.2z"/>
				</g>
				<g id="&lt;Group&gt;">
					<path id="&lt;Path&gt;" class="s9" d="m488.3 478q0.5 0 0.9-0.3c0.8-0.6 1-1.7 0.5-2.5l-6.4-10.3c-0.5-0.8-1.5-1.1-2.3-0.5-0.7 0.5-0.9 1.6-0.4 2.4l6.3 10.4c0.4 0.5 0.9 0.8 1.4 0.8z"/>
				</g>
				<g id="&lt;Group&gt;">
					<path id="&lt;Path&gt;" class="s9" d="m482.6 656.3c0.5 0 0.9-0.2 1.2-0.6l9.1-10.1c0.7-0.7 0.6-1.8 0-2.5-0.7-0.7-1.7-0.7-2.4 0l-9.1 10.2c-0.6 0.7-0.6 1.8 0.1 2.5 0.3 0.3 0.7 0.5 1.1 0.5z"/>
				</g>
				<g id="&lt;Group&gt;">
					<path id="&lt;Path&gt;" class="s9" d="m516.1 654.2c0.4 0 0.9-0.2 1.2-0.6l9.1-10.1c0.7-0.7 0.6-1.8 0-2.5-0.7-0.7-1.7-0.7-2.4 0l-9.1 10.2c-0.6 0.7-0.6 1.8 0.1 2.5 0.3 0.3 0.7 0.5 1.1 0.5z"/>
				</g>
				<g id="&lt;Group&gt;">
					<path id="&lt;Path&gt;" class="s9" d="m540.2 722.8c0.1-0.4 0.1-0.9-0.1-1.4l-5.7-12.7c-0.4-0.9-1.3-1.2-2.2-0.8-0.8 0.4-1.1 1.5-0.7 2.4l5.6 12.7c0.4 0.8 1.4 1.2 2.3 0.8 0.4-0.2 0.6-0.6 0.8-1z"/>
				</g>
				<g id="&lt;Group&gt;">
					<path id="&lt;Path&gt;" class="s9" d="m444.1 764.7c0.1-0.4 0.1-0.9-0.1-1.4l-5.7-12.7c-0.4-0.9-1.4-1.2-2.2-0.8-0.8 0.4-1.2 1.5-0.8 2.3l5.7 12.7c0.4 0.9 1.4 1.3 2.2 0.9 0.4-0.2 0.7-0.6 0.9-1z"/>
				</g>
				<g id="&lt;Group&gt;">
					<path id="&lt;Path&gt;" class="s9" d="m485.4 785.7q1.6 0.1 3.3 0.2l1.1-7.9c0.2-1-0.4-1.9-1.3-2-1-0.2-1.8 0.5-1.9 1.5z"/>
				</g>
				<g id="&lt;Group&gt;">
					<path id="&lt;Path&gt;" class="s9" d="m472.1 761.8c0.4-0.3 0.6-0.7 0.7-1.2l2-13.9c0.2-0.9-0.4-1.8-1.3-2-0.9-0.1-1.8 0.5-1.9 1.5l-2.1 13.9c-0.1 1 0.5 1.9 1.4 2 0.5 0.1 0.9 0 1.2-0.3z"/>
				</g>
				<g id="&lt;Group&gt;">
					<path id="&lt;Path&gt;" class="s9" d="m552.1 645.5q0.5 0.1 0.9-0.2c0.8-0.5 1-1.6 0.6-2.4l-6.6-12.2c-0.5-0.8-1.5-1.1-2.3-0.6-0.8 0.4-1.1 1.5-0.6 2.4l6.6 12.2c0.3 0.5 0.9 0.8 1.4 0.8z"/>
				</g>
				<g id="&lt;Group&gt;">
					<path id="&lt;Path&gt;" class="s9" d="m532.8 615.1c0.6 0 1.2-0.3 1.5-1l6-12.5c0.4-0.8 0.1-1.9-0.7-2.4-0.8-0.4-1.8-0.1-2.3 0.8l-6 12.5c-0.4 0.9-0.1 2 0.7 2.4q0.4 0.2 0.8 0.2z"/>
				</g>
				<g id="&lt;Group&gt;">
					<path id="&lt;Path&gt;" class="s9" d="m585.2 613.3q0.3 0.3 0.6 0.5c0.6 0.2 1.2 0.1 1.7-0.3l6.8-6.1q0-2.3-0.1-4.6l-8.8 8c-0.7 0.6-0.8 1.7-0.2 2.5z"/>
				</g>
				<g id="&lt;Group&gt;">
					<path id="&lt;Path&gt;" class="s9" d="m532.9 482.4c0.6 0 1.1-0.3 1.4-1l6.1-12.5c0.4-0.8 0.1-1.9-0.7-2.4-0.9-0.4-1.9-0.1-2.3 0.8l-6 12.5c-0.4 0.9-0.1 2 0.7 2.4q0.4 0.2 0.8 0.2z"/>
				</g>
				<g id="&lt;Group&gt;">
					<path id="&lt;Path&gt;" class="s9" d="m494.2 528.2q0.1 0 0.3 0c0.9-0.2 1.5-1.1 1.3-2.1l-2.5-13.8c-0.1-1-1-1.6-1.9-1.4-0.9 0.2-1.5 1.1-1.3 2.1l2.5 13.8c0.1 0.8 0.8 1.4 1.6 1.4z"/>
				</g>
				<g id="&lt;Group&gt;">
					<path id="&lt;Path&gt;" class="s9" d="m515.7 540.4q0.2 0 0.3-0.1c0.9-0.2 1.5-1.1 1.4-2.1l-2.5-13.8c-0.2-0.9-1.1-1.6-2-1.4-0.9 0.2-1.5 1.1-1.3 2.1l2.5 13.8c0.1 0.9 0.8 1.5 1.6 1.5z"/>
				</g>
				<g id="&lt;Group&gt;">
					<path id="&lt;Path&gt;" class="s9" d="m500.3 494.8c0.5 0 1.1-0.3 1.4-0.9l7.1-11.8c0.4-0.9 0.2-2-0.6-2.5-0.7-0.5-1.8-0.3-2.2 0.6l-7.1 11.8c-0.5 0.9-0.3 2 0.5 2.5q0.4 0.3 0.9 0.3z"/>
				</g>
				<g id="&lt;Group&gt;">
					<path id="&lt;Path&gt;" class="s9" d="m565 617.3c0.4-0.5 0.6-1.3 0.3-2l-5.7-12.7c-0.4-0.9-1.4-1.2-2.2-0.8-0.8 0.4-1.2 1.5-0.8 2.3l5.7 12.7c0.4 0.9 1.4 1.3 2.2 0.9q0.3-0.2 0.5-0.4z"/>
				</g>
				<g id="&lt;Group&gt;">
					<path id="&lt;Path&gt;" class="s9" d="m522.3 580.4c0.7 0 1.3-0.4 1.6-1.1l4.8-13.1c0.3-0.9-0.1-1.9-1-2.3-0.8-0.3-1.8 0.1-2.1 1l-4.8 13.1c-0.3 0.9 0.1 2 0.9 2.3q0.3 0.1 0.6 0.1z"/>
				</g>
				<g id="&lt;Group&gt;">
					<path id="&lt;Path&gt;" class="s9" d="m469.6 661.4q0.4 0 0.8-0.2c0.8-0.4 1.1-1.5 0.7-2.4l-5.9-12.5c-0.4-0.9-1.4-1.3-2.3-0.8-0.8 0.4-1.1 1.5-0.7 2.4l6 12.5c0.2 0.6 0.8 1 1.4 1z"/>
				</g>
				<g id="&lt;Group&gt;">
					<path id="&lt;Path&gt;" class="s9" d="m557 751.7q0 0.4 0.2 0.8c0.4 0.8 1.4 1.2 2.2 0.7l11.7-6.5c0.8-0.4 1.1-1.5 0.7-2.4-0.4-0.8-1.4-1.2-2.3-0.7l-11.6 6.5c-0.6 0.3-0.9 0.9-0.9 1.6z"/>
				</g>
				<g id="&lt;Group&gt;">
					<path id="&lt;Path&gt;" class="s9" d="m588.7 759.7q0 0.4 0.2 0.8c0.4 0.9 1.4 1.2 2.2 0.8l5.1-2.9q0-1.9 0-3.9l-6.6 3.6c-0.6 0.3-0.9 1-0.9 1.6z"/>
				</g>
				<g id="&lt;Group&gt;">
					<path id="&lt;Path&gt;" class="s9" d="m539.6 775.4l4 9.1q1.1-0.1 2.2-0.3 0.6 0 1.3-0.1l-4.5-10.2c-0.4-0.9-1.4-1.3-2.2-0.9-0.8 0.4-1.2 1.5-0.8 2.4z"/>
				</g>
				<g id="&lt;Group&gt;">
					<path id="&lt;Path&gt;" class="s9" d="m448.1 629.4c0.8 0 1.5-0.6 1.6-1.5l2.2-13.9c0.1-1-0.5-1.9-1.4-2-0.9-0.2-1.8 0.5-1.9 1.4l-2.2 13.9c-0.1 1 0.5 1.9 1.4 2q0.1 0.1 0.3 0.1z"/>
				</g>
				<g id="&lt;Group&gt;">
					<path id="&lt;Path&gt;" class="s9" d="m446.7 526.9q0.4 0 0.8-0.2c0.8-0.5 1.1-1.6 0.6-2.5l-6.7-12.1c-0.4-0.8-1.5-1.1-2.2-0.6-0.8 0.5-1.1 1.6-0.6 2.4l6.7 12.1c0.3 0.6 0.8 0.9 1.4 0.9z"/>
				</g>
				<g id="&lt;Group&gt;">
					<path id="&lt;Path&gt;" class="s9" d="m468.3 576.1q0.4 0 0.9-0.2l11-7.7c0.8-0.5 1-1.6 0.5-2.4-0.5-0.9-1.5-1.1-2.3-0.6l-11 7.7c-0.8 0.5-1 1.6-0.5 2.4 0.3 0.6 0.8 0.8 1.4 0.8z"/>
				</g>
				<g id="&lt;Group&gt;">
					<path id="&lt;Path&gt;" class="s9" d="m585.3 658.7q0.3 0 0.7-0.2c0.8-0.4 1.1-1.5 0.7-2.4l-5.9-12.5c-0.4-0.9-1.4-1.3-2.2-0.8-0.9 0.4-1.2 1.5-0.8 2.4l6 12.5c0.3 0.6 0.8 1 1.5 1z"/>
				</g>
				<g id="&lt;Group&gt;">
					<path id="&lt;Path&gt;" class="s9" d="m449.4 595.2c0.6 0 1.1-0.3 1.4-0.8 0.5-0.8 0.3-1.9-0.5-2.5l-11.1-7.4c-0.8-0.5-1.8-0.3-2.3 0.5-0.5 0.9-0.3 2 0.5 2.5l11.2 7.4q0.4 0.3 0.8 0.3z"/>
				</g>
				<g id="&lt;Group&gt;">
					<path id="&lt;Path&gt;" class="s9" d="m476.2 613c0.4 0.4 1 0.6 1.5 0.4 0.9-0.3 1.4-1.2 1.2-2.2l-3.5-13.6c-0.2-0.9-1.1-1.5-2-1.2-0.9 0.2-1.4 1.2-1.2 2.2l3.5 13.5q0.1 0.5 0.5 0.9z"/>
				</g>
				<g id="&lt;Group&gt;">
					<path id="&lt;Path&gt;" class="s9" d="m429.1 469.6l2.9 4.7c0.3 0.5 0.8 0.8 1.4 0.8q0.4 0 0.9-0.3c0.7-0.5 1-1.6 0.5-2.4l-3.3-5.3q-1.3 1.3-2.4 2.5z"/>
				</g>
				<g id="&lt;Group&gt;">
					<path id="&lt;Path&gt;" class="s9" d="m416.5 500.5l3 5c0.4 0.5 0.9 0.8 1.4 0.8q0.5 0 0.9-0.3c0.8-0.6 1-1.7 0.5-2.5l-4.3-7q-0.8 1.9-1.5 4z"/>
				</g>
				<g id="&lt;Group&gt;">
					<path id="&lt;Path&gt;" class="s9" d="m559.9 702.5c0.4 0 0.9-0.1 1.2-0.5l9.1-10.2c0.7-0.7 0.6-1.8 0-2.5-0.7-0.6-1.7-0.6-2.4 0.1l-9.1 10.1c-0.6 0.8-0.6 1.9 0.1 2.6 0.3 0.3 0.7 0.4 1.1 0.4z"/>
				</g>
				<g id="&lt;Group&gt;">
					<path id="&lt;Path&gt;" class="s9" d="m499.3 738c0.4 0 0.8-0.1 1.2-0.5l9.1-10.2c0.6-0.7 0.6-1.8-0.1-2.5-0.6-0.6-1.7-0.6-2.3 0.1l-9.1 10.1c-0.7 0.7-0.6 1.9 0 2.5 0.3 0.4 0.8 0.5 1.2 0.5z"/>
				</g>
				<g id="&lt;Group&gt;">
					<path id="&lt;Path&gt;" class="s9" d="m482.4 723.9c0.3-0.3 0.4-0.8 0.4-1.3l-1.7-14c-0.1-0.9-0.9-1.6-1.8-1.5-0.9 0.1-1.6 1-1.5 2l1.7 13.9c0.1 1 0.9 1.7 1.8 1.6 0.5-0.1 0.9-0.3 1.1-0.7z"/>
				</g>
				<g id="&lt;Group&gt;">
					<path id="&lt;Path&gt;" class="s9" d="m517 763.3c0.4 0 0.8-0.2 1.1-0.5l9.2-10.2c0.6-0.7 0.6-1.8-0.1-2.5-0.6-0.7-1.7-0.7-2.3 0l-9.1 10.2c-0.7 0.7-0.7 1.8 0 2.5 0.3 0.3 0.7 0.5 1.2 0.5z"/>
				</g>
				<g id="&lt;Group&gt;">
					<path id="&lt;Path&gt;" class="s9" d="m418.8 724.9q0 1.8 0 3.5l10.3 1c0.9 0.1 1.8-0.7 1.8-1.7 0.1-0.9-0.6-1.8-1.5-1.9z"/>
				</g>
				<g id="&lt;Group&gt;">
					<path id="&lt;Path&gt;" class="s9" d="m539.3 681.2c0.5 0 0.9-0.2 1.2-0.6l9.1-10.1c0.7-0.7 0.6-1.8 0-2.5-0.7-0.7-1.7-0.7-2.4 0l-9.1 10.2c-0.6 0.7-0.6 1.8 0.1 2.5 0.3 0.3 0.7 0.5 1.1 0.5z"/>
				</g>
				<g id="&lt;Group&gt;">
					<path id="&lt;Path&gt;" class="s9" d="m495.5 676.8c0 0.4 0.2 0.9 0.6 1.2l10 9.1c0.7 0.6 1.8 0.5 2.4-0.2 0.6-0.8 0.5-1.9-0.2-2.5l-10.1-9.1c-0.7-0.6-1.7-0.5-2.3 0.2-0.3 0.4-0.5 0.8-0.4 1.3z"/>
				</g>
				<g id="&lt;Group&gt;">
					<path id="&lt;Path&gt;" class="s9" d="m447.5 726.6q0.4 0 0.8-0.2c0.8-0.5 1.1-1.6 0.6-2.5l-6.6-12.1c-0.4-0.9-1.4-1.2-2.2-0.7-0.8 0.5-1.1 1.6-0.6 2.4l6.5 12.2c0.4 0.6 0.9 0.9 1.5 0.9z"/>
				</g>
				<g id="&lt;Group&gt;">
					<path id="&lt;Path&gt;" class="s9" d="m436.1 690.4c0.6 0 1.2-0.3 1.4-1l6.1-12.5c0.4-0.8 0.1-1.9-0.7-2.4-0.8-0.4-1.8-0.1-2.3 0.8l-6 12.5c-0.4 0.9-0.1 2 0.7 2.4q0.4 0.2 0.8 0.2z"/>
				</g>
				<g id="&lt;Group&gt;">
					<path id="&lt;Path&gt;" class="s9" d="m454.1 548.4c0.6 0 1.2-0.4 1.4-1l6.1-12.5c0.4-0.9 0.1-1.9-0.7-2.4-0.8-0.4-1.8-0.1-2.3 0.8l-6 12.5c-0.4 0.9-0.1 1.9 0.7 2.4q0.4 0.2 0.8 0.2z"/>
				</g>
				<g id="&lt;Group&gt;">
					<path id="&lt;Path&gt;" class="s9" d="m447.5 495.9q0.1 0 0.3 0c0.9-0.2 1.5-1.2 1.3-2.1l-2.5-13.8c-0.2-1-1-1.6-1.9-1.4-0.9 0.1-1.5 1.1-1.3 2l2.5 13.9c0.1 0.8 0.8 1.4 1.6 1.4z"/>
				</g>
				<g id="&lt;Group&gt;">
					<path id="&lt;Path&gt;" class="s9" d="m417.2 543.6q0.1 0 0.3-0.1c0.9-0.1 1.5-1.1 1.3-2l-2.5-13.8c-0.2-1-1-1.6-1.9-1.5-0.9 0.2-1.5 1.2-1.3 2.1l2.5 13.8c0.1 0.9 0.8 1.5 1.6 1.5z"/>
				</g>
				<g id="&lt;Group&gt;">
					<path id="&lt;Path&gt;" class="s9" d="m469 508q0.2 0 0.3 0c0.9-0.2 1.5-1.1 1.3-2.1l-2.5-13.8c-0.1-1-1-1.6-1.9-1.4-0.9 0.2-1.5 1.1-1.3 2.1l2.5 13.8c0.1 0.8 0.8 1.4 1.6 1.4z"/>
				</g>
				<g id="&lt;Group&gt;">
					<path id="&lt;Path&gt;" class="s9" d="m459.1 459.9q0.5 0.1 1-0.1c0.5-0.2 0.9-0.6 1-1.2l2.8-12.7q-1.9 1.1-3.9 2.2l-2.1 9.7c-0.2 0.9 0.3 1.9 1.2 2.1z"/>
				</g>
				<g id="&lt;Group&gt;">
					<path id="&lt;Path&gt;" class="s9" d="m421.2 564.9c0.5 0 1.1-0.2 1.4-0.8l7-11.9c0.5-0.8 0.3-1.9-0.5-2.4-0.7-0.5-1.8-0.3-2.3 0.5l-7 11.9c-0.5 0.9-0.3 1.9 0.5 2.5q0.4 0.2 0.9 0.2z"/>
				</g>
				<g id="&lt;Group&gt;">
					<path id="&lt;Path&gt;" class="s9" d="m468.3 692.6c0.4-0.5 0.6-1.3 0.3-2l-5.7-12.7c-0.4-0.9-1.4-1.2-2.2-0.8-0.8 0.4-1.2 1.5-0.8 2.3l5.7 12.7c0.4 0.9 1.4 1.3 2.2 0.9q0.3-0.2 0.5-0.4z"/>
				</g>
				<g id="&lt;Group&gt;">
					<path id="&lt;Path&gt;" class="s9" d="m584.9 716.5l11.1 1.9q0-1.8 0-3.6l-10.5-1.8c-0.9-0.2-1.8 0.5-1.9 1.4-0.2 1 0.4 1.9 1.3 2.1z"/>
				</g>
				<g id="&lt;Group&gt;">
					<path id="&lt;Path&gt;" class="s9" d="m588.3 684l7.4 1.3q0-1.8-0.1-3.6l-6.8-1.2c-0.9-0.1-1.7 0.5-1.9 1.5-0.1 1 0.5 1.9 1.4 2z"/>
				</g>
				<g id="&lt;Group&gt;">
					<path id="&lt;Path&gt;" class="s9" d="m425.6 655.7c0.7 0 1.3-0.4 1.6-1.1l4.8-13.1c0.3-0.9-0.1-1.9-1-2.3-0.8-0.3-1.8 0.1-2.1 1l-4.8 13.1c-0.4 0.9 0.1 2 0.9 2.3q0.3 0.1 0.6 0.1z"/>
				</g>
			</g>
			<g id="&lt;Group&gt;">
				<g id="&lt;Group&gt;">
					<g id="&lt;Group&gt;">
						<path id="&lt;Path&gt;" class="s9" d="m419.5 614.4c3.1-12.9 7.1-27.2 10.9-39.5q0.1 0 0.1-0.1c1.2-3.8 2.4-7.4 3.5-10.7q0.1-0.1 0.1-0.2 0.5-1.5 1.1-3 0.1-0.3 0.1-0.5c0-0.6-0.4-1.2-1-1.4-0.8-0.3-1.6 0.1-1.9 0.9-3.9 10.8-8.6 26.4-12.7 41.7q-0.1 6.4-0.2 12.8z"/>
					</g>
				</g>
			</g>
			<g id="&lt;Group&gt;">
				<path id="&lt;Path&gt;" class="s4" d="m467.1 366c0 0-11.6-12.7-7.2-27.5 4.4-14.8 16.3-14.7 16.3-14.7 0 0 6.9-15.7 18.8-16.2 11.8-0.6 23-21.6 33.8-15.9 10.7 5.7-1.2 18.2-1.2 18.2 0 0 18.5-19.5 24.6-13.8 6 5.7-8.5 21.1-8.5 21.1 0 0 15.5-10.9 20.6-6.8 5.1 4.2-12.1 22.1-12.1 22.1 0 0 11.1 20.1-0.1 29.1z"/>
				<g id="&lt;Group&gt;">
					<path id="&lt;Path&gt;" class="s7" d="m547.8 370.3c0 0 7.3-9.9 12.8-1.7 5.5 8.1-2.2 32.1-15.7 26.3z"/>
					<g id="&lt;Group&gt;">
						<path id="&lt;Path&gt;" class="s8" d="m547.9 387.4c0.5 0 0.9-0.3 1-0.8 2.1-7.4 9.8-10.4 9.9-10.5 0.6-0.2 0.9-0.8 0.7-1.4-0.3-0.6-0.9-0.9-1.5-0.7-0.4 0.2-8.8 3.4-11.2 12-0.2 0.6 0.1 1.2 0.7 1.4q0.2 0 0.4 0z"/>
					</g>
					<g id="&lt;Group&gt;">
						<path id="&lt;Path&gt;" class="s8" d="m555.6 383.7q0.3 0 0.6-0.2c0.6-0.3 0.7-1 0.4-1.6-0.1 0-1.4-2.1-4.3-3.4-0.6-0.2-1.2 0-1.5 0.6-0.2 0.6 0 1.2 0.6 1.5 2.2 1 3.3 2.6 3.3 2.6 0.2 0.3 0.5 0.5 0.9 0.5z"/>
					</g>
				</g>
				<g id="&lt;Group&gt;">
					<path id="&lt;Path&gt;" class="s7" d="m471.7 370.3c0 0-7.4-9.9-12.9-1.7-5.5 8.1 2.3 32.1 15.7 26.3z"/>
					<g id="&lt;Group&gt;">
						<path id="&lt;Path&gt;" class="s8" d="m471.6 387.4c-0.5 0-1-0.3-1.1-0.8-2.1-7.4-9.8-10.4-9.9-10.5-0.6-0.2-0.9-0.8-0.6-1.4 0.2-0.6 0.8-0.9 1.4-0.7 0.4 0.2 8.9 3.4 11.3 12 0.1 0.6-0.2 1.2-0.8 1.4q-0.2 0-0.3 0z"/>
					</g>
					<g id="&lt;Group&gt;">
						<g id="&lt;Group&gt;">
							<path id="&lt;Path&gt;" class="s8" d="m463.8 383.7q-0.3 0-0.6-0.2c-0.5-0.3-0.7-1-0.3-1.6 0 0 1.4-2.1 4.2-3.4 0.6-0.2 1.3 0 1.5 0.6 0.3 0.6 0 1.2-0.6 1.5-2.2 1-3.2 2.6-3.2 2.6-0.3 0.3-0.6 0.5-1 0.5z"/>
						</g>
					</g>
				</g>
				<path id="&lt;Path&gt;" class="s5" d="m491.5 415.3v23.9c0 0 7.2 12.2 16.8 13 9.6 0.8 18.2-10.5 18.2-10.5v-24.8z"/>
				<path id="&lt;Path&gt;" class="s7" d="m491.5 415.3v10.6c6.5 7.2 18 8.9 35 6.4v-15.4z"/>
				<path id="&lt;Path&gt;" class="s5" d="m466.3 353.9c0.5 9.2 1.4 20.9 3.1 30.2q0 0 0 0.1 0.1 0 0.1 0c0.4 2.3 0.9 4.4 1.4 6.3q0.5 1.7 1.1 3.5c5.6 17.8 18.8 43.5 51.8 31.8 13.9-5 21.1-19.3 24.8-34.9q0.3-1.4 0.6-2.7 0.2-0.9 0.4-1.8l0.1-0.8q0.1-0.2 0.1-0.3 0-0.1 0-0.1c2.2-11.9 2.5-24 2.3-32.7-0.1-8.8-5-16.9-12.6-21.2-20.8-11.8-42.8-7.4-57.2-1.9-10.1 3.9-16.5 13.7-16 24.5z"/>
				<g id="&lt;Group&gt;">
					<g id="&lt;Group&gt;">
						<path id="&lt;Compound Path&gt;" fill-rule="evenodd" class="s4" d="m469.4 384.1l5.1-0.4c0 0 2.9 6 7.2 12.6 4.2-9.4 24.8-2.6 24.8-2.6q2 0.7 4 0.7 2 0 3.9-0.6l0.1-0.1c0 0 20.8-6.5 24.9 3.3 2.5-3.8 4.6-8.1 5.5-12.7l4.9 0.9q0 0 0 0.1 0 0.1-0.1 0.3l-0.1 0.8q-0.2 0.9-0.4 1.8-0.3 1.3-0.6 2.7c-3.7 15.6-10.9 29.9-24.8 34.9-33 11.7-46.2-14-51.8-31.8-1.2-4.8-2.3-9-2.5-9.8q0 0-0.1 0 0-0.1 0-0.1 0 0 0 0zm21.8 24.4q0 0 0 0c1.6 1.5 3.2 2.8 4.9 3.6 9.1 5 10.1 4.2 13.7 4.4 3.7 0.2 8.7-0.9 13.9-3.8 1.6-0.9 4-2.6 6.6-5 0 0 3.7-12.7-19.9-9.5-23.6-4.1-19.6 7.8-19.2 10.3z"/>
					</g>
				</g>
				<g id="&lt;Group&gt;">
					<path id="&lt;Path&gt;" class="s4" d="m489.1 371.1c0 2.6 1.3 4.7 2.9 4.7 1.7 0 3-2.1 3-4.7 0-2.5-1.3-4.6-3-4.6-1.6 0-2.9 2.1-2.9 4.6z"/>
				</g>
				<g id="&lt;Group&gt;">
					<path id="&lt;Path&gt;" class="s4" d="m525.8 371.1c0 2.6 1.3 4.7 3 4.7 1.6 0 2.9-2.1 2.9-4.7 0-2.5-1.3-4.6-2.9-4.6-1.7 0-3 2.1-3 4.6z"/>
				</g>
				<g id="&lt;Group&gt;">
					<path id="&lt;Path&gt;" class="s4" d="m481.6 355.6c0 0 12.1-4.8 21.5-0.8l-1 5.2c0 0-13.7-1.2-20.6 1.6-0.6-2-0.7-4 0.1-6z"/>
				</g>
				<g id="&lt;Group&gt;">
					<path id="&lt;Path&gt;" class="s4" d="m539.3 355.6c0 0-12.2-4.8-21.6-0.8l0.9 5.3c0 0 13.8-1.2 20.8 1.6 0.6-2 0.7-4-0.1-6.1z"/>
				</g>
				<g id="&lt;Group&gt;">
					<g id="&lt;Group&gt;">
						<path id="&lt;Path&gt;" class="s7" d="m509.3 391.8c-1.9 0-3.8-0.7-4.1-0.9-0.6-0.2-0.9-0.9-0.6-1.4 0.2-0.6 0.9-0.9 1.5-0.7 1 0.5 3.5 1.1 4.5 0.5 0.2-0.2 0.5-0.4 0.6-1.1 0.4-4-0.7-17.3-0.7-17.4-0.1-0.6 0.4-1.2 1-1.2 0.7-0.1 1.2 0.4 1.3 1 0 0.6 1.1 13.7 0.6 17.8-0.1 1.6-0.9 2.4-1.6 2.8-0.7 0.5-1.6 0.6-2.5 0.6z"/>
					</g>
				</g>
				<path id="&lt;Path&gt;" class="s6" d="m523.8 400.5c-0.9 4.3-3.7 12.3-13.4 12.3-9.7 0-12.4-7.3-13.3-12.3z"/>
				<g id="&lt;Group&gt;">
					<path id="&lt;Path&gt;" class="s4" d="m466.3 353.9c0.5 9.2 1.4 20.9 3.1 30.2l5.1-0.4c0 0-1.2-7.8-1.8-13-0.6-5.1-1.5-14.6 2.8-15.8 4.4-1.2 1.8-12.1 7.9-16.8 6-4.8 19.6-6.1 28.5-0.6 8.9 5.5 19-0.4 23.1 0.6 4.1 0.9 9.7 6.6 8.2 11.9-1.5 5.3 3 8.5 4.1 14 1.1 5.5-2.4 20.3-2.4 20.3l4.9 0.9c2.2-11.9 2.5-24 2.3-32.7-0.1-8.8-5-16.9-12.6-21.2-20.8-11.8-42.8-7.4-57.2-1.9-10.1 3.9-16.5 13.7-16 24.5z"/>
				</g>
			</g>
		</g>
		<g id="&lt;Group&gt;">
			<g id="&lt;Group&gt;">
				<g id="&lt;Group&gt;">
					<g id="&lt;Group&gt;">
						<g id="&lt;Group&gt;">
							<path id="&lt;Path&gt;" class="s2" d="m675.4 609.7c-3.1 28.2-21.5 91.1-34.2 103.4-16.6 16.1-71.2 49.9-99.6 67.2-5.1 3.1 19 23.9 19 23.9 0 0 75.4-32.2 104.2-57.7 8.2-7.2 24.7-29.9 43.4-73.1 5.7-13.1 19.4-39.5 18.7-56.8-0.8-19.8-32.3-16.6-51.5-6.9z"/>
						</g>
					</g>
					<path id="&lt;Path&gt;" class="s5" d="m616.5 771.5c0 0-20.5 7.8-27.8 16.4-7.3 8.5-16.9 15.8-14.5 19.2 2.3 3.4 12.9-6.5 12.9-6.5 0 0 3 10.9 13.3 12 10.3 1.2 29.9-19 29.9-19z"/>
					<g id="&lt;Group&gt;">
						<g id="&lt;Group&gt;">
							<path id="&lt;Path&gt;" class="s1" d="m819 688.4q0.1 2.7 0 6.2 0 3.6-0.2 8 0 3-0.1 6.3-0.1 2.8-0.3 5.8-0.1 3-0.2 6.3c-1.5 29.5-4.9 70.2-12.5 102.9h-159.7c5.4-23.8 13.5-61.2 20-109.8q0.4-3 0.8-6.1 0.4-3.2 0.8-6.4 0.2-1.6 0.4-3.4 0.1-1.4 0.3-2.8 0.4-3.9 0.8-7.7 0.3-3.1 0.6-6.2c2.7-32.7 1.7-57.1 5.7-71.8 4.5-17 58-36.6 58-36.6l33.4 1.8c0 0 31.9 10.4 49 25.4 17.1 14.9 2.8 59.6 3.2 85q0 1.3 0 3.1z"/>
							<g id="&lt;Group&gt;">
								<path id="&lt;Path&gt;" class="s0" d="m819 694.6c-14.5 1.8-29.7 2.5-44.5 2.5-48.7 0-94.3-7.4-105.4-9.4q0.3-3.1 0.6-6.2c12.8 2.3 87.2 14.6 149.3 6.9q0.1 2.7 0 6.2z"/>
							</g>
							<g id="&lt;Group&gt;">
								<path id="&lt;Path&gt;" class="s0" d="m818.8 702.6q0 3-0.1 6.3c-14.5 1.7-29.5 2.4-44.2 2.4-51.4 0-99.5-8.3-106.9-9.7q0.2-1.6 0.4-3.4 0.1-1.4 0.3-2.8c7.4 1.4 85.6 15.2 150.5 7.2z"/>
							</g>
							<g id="&lt;Group&gt;">
								<path id="&lt;Path&gt;" class="s0" d="m818.4 714.7q-0.1 3-0.2 6.3c-15 1.9-30.7 2.6-46.1 2.6-49.8 0-96.4-7.7-106.1-9.5q0.4-3 0.8-6.1c11.5 2 88.3 15 151.6 6.7z"/>
							</g>
							<g id="&lt;Group&gt;">
								<path id="&lt;Path&gt;" class="s2" d="m743 605.2c16.7 0 32-17.7 32.7-18.4 0.4-0.5 0.3-1.3-0.1-1.7-0.5-0.4-1.3-0.4-1.7 0.1-0.2 0.2-16.2 18.7-32.3 17.6-0.7 0-1.2 0.5-1.3 1.1 0 0.7 0.5 1.2 1.1 1.3q0.8 0 1.6 0z"/>
							</g>
							<g id="&lt;Group&gt;">
								<path id="&lt;Path&gt;" class="s2" d="m757.5 804.2c0.5 0 1-0.5 1.1-1.1 0.1-0.6-0.4-1.2-1-1.3-43-4.9-60.8-79.3-61-80.1-0.1-0.6-0.8-1-1.4-0.9-0.6 0.2-1 0.8-0.9 1.4 0.8 3.2 18.4 76.8 63 81.9q0.1 0.1 0.2 0.1z"/>
							</g>
							<g id="&lt;Group&gt;">
								<path id="&lt;Path&gt;" class="s2" d="m740.3 781.6c0.4 0 0.8-0.2 1-0.5 0.4-0.6 0.2-1.3-0.4-1.6-22.8-14.1-26.2-34.9-26.2-35.1-0.1-0.7-0.7-1.1-1.4-1-0.6 0.1-1.1 0.7-1 1.3 0.2 0.9 3.6 22.1 27.4 36.8q0.3 0.1 0.6 0.1z"/>
							</g>
						</g>
						<g id="&lt;Group&gt;">
							<g id="&lt;Group&gt;">
								<path id="&lt;Path&gt;" class="s4" d="m706.6 495.8c0 26 21.1 47.1 47.1 47.1 26 0 47.1-21.1 47.1-47.1 0-26-21.1-47.1-47.1-47.1-26 0-47.1 21.1-47.1 47.1z"/>
							</g>
							<g id="&lt;Group&gt;">
								<path id="&lt;Path&gt;" class="s4" d="m707.4 487.3c0 0-13.4-3.7-11.6-16.6 1.5-11 14.4-3.9 13.3-12.5-1.2-8.6-3.7-16.4 7.5-18.6 9.7-1.9 9.9 4.8 22.7-4.9 15.1-11.4 26.7 15.1 40.2 15.9 19.9 1.1 22.4 12.4 24.3 21.4 2 9-5.7 15.3-5.7 15.3z"/>
							</g>
							<g id="&lt;Group&gt;">
								<path id="&lt;Path&gt;" class="s7" d="m714.5 508.9c0 0-7.5-9.9-13-1.7-5.6 8.2 2.3 32.5 15.9 26.6z"/>
								<g id="&lt;Group&gt;">
									<path id="&lt;Path&gt;" class="s8" d="m714.4 526.3c-0.5 0-1-0.3-1.1-0.8-2.1-7.5-9.9-10.6-10-10.6-0.5-0.2-0.8-0.9-0.6-1.5 0.2-0.6 0.9-0.9 1.5-0.7 0.3 0.2 8.9 3.5 11.3 12.1 0.2 0.6-0.2 1.3-0.8 1.5q-0.1 0-0.3 0z"/>
								</g>
								<g id="&lt;Group&gt;">
									<g id="&lt;Group&gt;">
										<path id="&lt;Path&gt;" class="s8" d="m706.6 522.5q-0.4 0-0.7-0.2c-0.5-0.3-0.6-1-0.3-1.6 0.1 0 1.4-2.1 4.3-3.4 0.6-0.3 1.3 0 1.5 0.6 0.3 0.5 0 1.2-0.6 1.5-2.2 1-3.3 2.6-3.3 2.6-0.2 0.3-0.6 0.5-0.9 0.5z"/>
									</g>
								</g>
							</g>
							<path id="&lt;Path&gt;" class="s5" d="m768.6 554.4v24.2c0 0-9.9 10.6-19.7 11.4-9.7 0.9-15.6-10.7-15.6-10.7v-23.2z"/>
							<path id="&lt;Path&gt;" class="s7" d="m768.6 554.4v10.7c-6.5 7.3-18.1 9.1-35.3 6.6v-15.6z"/>
							<path id="&lt;Path&gt;" class="s5" d="m794.1 492.4c-0.5 9.4-1.4 21.1-3.2 30.5-0.4 2.3-0.9 4.5-1.5 6.5-5.1 17.8-17.8 48.3-53.4 35.6-15.7-5.6-23-23.1-26.2-40.9-2.2-12.1-2.6-24.3-2.4-33.1 0.2-8.9 5-17 12.8-21.4 21-11.9 43.2-7.5 57.8-1.9 10.1 3.9 16.6 13.8 16.1 24.7z"/>
							<g id="&lt;Group&gt;">
								<g id="&lt;Group&gt;">
									<g id="&lt;Group&gt;">
										<g id="&lt;Group&gt;">
											<g id="&lt;Group&gt;">
												<path id="&lt;Compound Path&gt;" fill-rule="evenodd" class="s4" d="m751.4 509.3q0-1.1 0.5-2c0.8-1.7 2.5-2.9 4.5-2.9h17.6c1.4 0 2.6 0.6 3.5 1.5q0.8 0.7 1.2 1.8 0.3 0.8 0.3 1.7v2.3c0 3.8-1.5 7.4-4.1 10-2.6 2.5-5.6 3.8-8.9 3.9h-0.4c-3.8 0-7.3-1.5-10-4.1-2.7-2.7-4.2-6.3-4.2-10.2v-1.9q0 0 0-0.1zm2 2c0 3.3 1.3 6.4 3.6 8.7 2.3 2.3 5.4 3.5 8.6 3.5h0.4c2.7 0 5.2-1.1 7.4-3.3 2.3-2.2 3.5-5.3 3.5-8.5v-2.3c0-1.6-1.3-2.9-2.9-2.9h-17.6c-1.6 0-3 1.3-3 2.9z"/>
											</g>
										</g>
									</g>
									<g id="&lt;Group&gt;">
										<g id="&lt;Group&gt;">
											<g id="&lt;Group&gt;">
												<path id="&lt;Compound Path&gt;" fill-rule="evenodd" class="s4" d="m716.3 508.1c0.2-0.7 0.5-1.3 0.9-1.9 1-1.1 2.3-1.8 3.9-1.8h17.6c2.1 0 3.8 1.2 4.6 3q0.4 0.9 0.4 1.9 0 0.1 0 0.1v2.3c0 3.8-1.5 7.4-4.1 10-2.6 2.5-5.6 3.8-8.8 3.9h-0.5c-3.8 0-7.3-1.5-10-4.1-2.7-2.7-4.2-6.3-4.2-10.2v-1.9q0-0.7 0.2-1.3zm1.9 3.2c0 3.3 1.2 6.4 3.6 8.7 2.3 2.3 5.3 3.5 8.5 3.5h0.4c2.8 0 5.3-1.1 7.5-3.3 2.2-2.2 3.5-5.3 3.5-8.5v-2.3c0-1.6-1.4-2.9-3-2.9h-17.6c-1.6 0-2.9 1.3-2.9 2.9z"/>
											</g>
										</g>
									</g>
									<g id="&lt;Group&gt;">
										<g id="&lt;Group&gt;">
											<path id="&lt;Path&gt;" class="s4" d="m791.6 503.6c-6-0.3-10.3 1.4-12 2.3-0.5 0.2-1.7 1-1.8 1.1l1 1.7c0 0 1.4-0.8 1.9-1 1.7-0.8 5.4-2.4 10.9-2z"/>
										</g>
									</g>
									<g id="&lt;Group&gt;">
										<g id="&lt;Group&gt;">
											<path id="&lt;Path&gt;" class="s4" d="m752.8 509.5l0.6-2c-0.1 0-3-1-6.2-1-3.4 0-5.6 1-5.7 1.1l0.9 1.9c0 0 1.9-0.9 4.8-0.9 2.8 0 5.5 0.9 5.6 0.9z"/>
										</g>
									</g>
									<g id="&lt;Group&gt;">
										<g id="&lt;Group&gt;">
											<path id="&lt;Path&gt;" class="s4" d="m708.8 504.1v2.1c4.3 0.3 8.3 2.2 8.3 2.3l1-1.9c-0.3-0.1-4.5-2.2-9.3-2.5z"/>
										</g>
									</g>
								</g>
							</g>
							<g id="&lt;Group&gt;">
								<path id="&lt;Path&gt;" class="s4" d="m732.4 512.1c0 2.6-1.3 4.7-3 4.7-1.6 0-2.9-2.1-2.9-4.7 0-2.6 1.3-4.7 2.9-4.7 1.7 0 3 2.1 3 4.7z"/>
							</g>
							<g id="&lt;Group&gt;">
								<path id="&lt;Path&gt;" class="s4" d="m767.2 512.1c0 2.6-1.4 4.7-3 4.7-1.7 0-3-2.1-3-4.7 0-2.6 1.3-4.7 3-4.7 1.6 0 3 2.1 3 4.7z"/>
							</g>
							<g id="&lt;Group&gt;">
								<path id="&lt;Path&gt;" class="s4" d="m719.8 497.8c0 0 12.3-4.9 21.8-0.8l-0.8 4.4c0 0-10.3-2.3-20.3 1.5-0.7-2.1-1.5-3.1-0.7-5.1z"/>
							</g>
							<g id="&lt;Group&gt;">
								<path id="&lt;Path&gt;" class="s4" d="m776.3 497.8c0 0-12.3-4.9-21.9-0.8l0.8 4.4c0 0 10.3-2.3 20.4 1.5 0.7-2.1 1.5-3.1 0.7-5.1z"/>
							</g>
							<g id="&lt;Group&gt;">
								<g id="&lt;Group&gt;">
									<path id="&lt;Path&gt;" class="s7" d="m748.6 531.7c2 0 3.9-0.8 4.2-0.9 0.6-0.3 0.9-0.9 0.6-1.5-0.2-0.6-0.9-0.9-1.5-0.6-1 0.4-3.5 1-4.6 0.4-0.2-0.1-0.5-0.4-0.6-1.1-0.4-4 0.7-17.4 0.7-17.6 0.1-0.6-0.4-1.1-1-1.2-0.6 0-1.2 0.4-1.2 1.1-0.1 0.5-1.2 13.7-0.7 18 0.1 1.5 1 2.4 1.6 2.8 0.8 0.4 1.7 0.6 2.5 0.6z"/>
								</g>
							</g>
							<path id="&lt;Path&gt;" class="s6" d="m734.4 537.5c0.9 4.7 4.1 13.4 14.6 13.4 10.5 0 13.4-7.9 14.5-13.4z"/>
							<g id="&lt;Group&gt;">
								<path id="&lt;Path&gt;" class="s7" d="m748.8 556.9c3 0 5.5-1.5 5.6-1.6 0.6-0.3 0.7-1 0.4-1.6-0.3-0.5-1-0.7-1.6-0.4 0 0.1-2.1 1.3-4.4 1.3-2.1 0-4.1-1.2-4.2-1.2-0.5-0.4-1.2-0.2-1.5 0.3-0.4 0.6-0.2 1.3 0.3 1.6 0.1 0.1 2.6 1.6 5.4 1.6z"/>
							</g>
							<g id="&lt;Group&gt;">
								<path id="&lt;Path&gt;" class="s4" d="m713.3 516.6c-0.8-4.7-1.7-10.8-1.1-14 1.1-5.5 5.7-8.8 4.2-14.1-1.5-5.4 4.1-11.1 8.3-12.1 4.1-0.9 13.8 1.1 23.4-3.4 9.1-4.4 25-1.2 27.6 4.6 3.1 7.1-1.1 7.8 7.4 15.4 3.4 3.1-0.6 11-1.2 16.2-0.3 2.4-0.3 3.5-0.2 6.1v1.3h10.3c1.1-8 1.7-16.8 2.1-24.2 0.5-10.9-6-20.8-16.1-24.7-14.6-5.6-36.8-10.1-57.8 1.9-7.8 4.4-12.6 12.5-12.8 21.4-0.1 6.9 0 16.1 1.2 25.6z"/>
							</g>
							<g id="&lt;Group&gt;">
								<path id="&lt;Path&gt;" class="s5" d="m787.4 521c0-2.7 0.2-5.3 0.6-8 0.7-3.6 1.7-6.8 5.4-8.3 3-1.2 6.1-1.3 8.4 2.1 5.5 8.2-0.6 33.8-14.2 27.9z"/>
								<g id="&lt;Group&gt;">
									<g id="&lt;Group&gt;">
										<path id="&lt;Path&gt;" class="s7" d="m790.2 527.2c0.5-0.1 0.9-0.5 0.9-1 0.6-7.8 7.7-12.3 7.7-12.3 0.6-0.4 0.7-1.1 0.4-1.6-0.4-0.6-1.1-0.7-1.6-0.4-0.3 0.2-8.1 5.1-8.8 14.1 0 0.6 0.5 1.2 1.1 1.2q0.2 0 0.3 0z"/>
									</g>
								</g>
								<g id="&lt;Group&gt;">
									<g id="&lt;Group&gt;">
										<path id="&lt;Path&gt;" class="s7" d="m797.2 522q0.3-0.1 0.5-0.3c0.5-0.5 0.5-1.2 0.1-1.7-0.1 0-1.9-1.8-4.9-2.5-0.7-0.2-1.3 0.2-1.4 0.8-0.2 0.7 0.2 1.3 0.9 1.4 2.3 0.6 3.7 1.9 3.7 1.9 0.3 0.3 0.7 0.4 1.1 0.4z"/>
									</g>
								</g>
							</g>
						</g>
					</g>
					<g id="&lt;Group&gt;">
						<path id="&lt;Path&gt;" class="s2" d="m809 595c-16.8 25.4-80.9 113.3-95.4 123.5-18.9 13.3-70.3 32.2-99.8 51.9-10 6.7 13.7 25.7 13.7 25.7 0 0 71.9-20.2 104.3-40.9 9.2-5.9 47.3-44.1 71.6-77.9 8.3-11.6 21.9-27.7 23.8-44.9 2.3-19.7-3.9-30.3-18.2-37.4z"/>
					</g>
				</g>
			</g>
			<g id="&lt;Group&gt;">
				<g id="&lt;Group&gt;">
					<path id="&lt;Path&gt;" class="s10" d="m681.8 823.9h-200c-2.5 0-4.6-2.1-4.6-4.7v-15.9c0-2.6 2.1-4.6 4.6-4.6h200c2.5 0 4.6 2 4.6 4.6v15.9c0 2.6-2.1 4.7-4.6 4.7z"/>
				</g>
				<g id="&lt;Group&gt;">
					<path id="&lt;Path&gt;" class="s4" d="m477.2 823.9l-39.3-147.3c-2.2-8.3 4-16.4 12.6-16.4h86.5c5.9 0 11 3.9 12.6 9.5l43.3 154.2z"/>
				</g>
				<g id="&lt;Group&gt;">
					<path id="&lt;Path&gt;" class="s10" d="m549.6 669.7l42.9 152.9h9.9l-42.9-152.9c-1.6-5.6-6.7-9.5-12.6-9.5h-9.9c5.9 0 11 3.9 12.6 9.5z"/>
				</g>
				<g id="&lt;Group&gt;">
					<path id="&lt;Path&gt;" class="s11" d="m527.3 748.6c2.3 9.7-3.8 17.6-13.5 17.6-9.7 0-19.4-7.9-21.6-17.6-2.3-9.7 3.8-17.6 13.5-17.6 9.7 0 19.4 7.9 21.6 17.6z"/>
				</g>
			</g>
		</g>
		<g id="&lt;Group&gt;">
			<g id="&lt;Group&gt;">
				<g id="&lt;Group&gt;">
					<g id="&lt;Group&gt;">
						<path id="&lt;Compound Path&gt;" fill-rule="evenodd" class="s2" d="m795.5 281.4c-7.3 0-13.2-5.9-13.2-13.2 0-7.3 5.9-13.2 13.2-13.2 7.3 0 13.2 5.9 13.2 13.2 0 7.3-5.9 13.2-13.2 13.2zm0-22.3c-5 0-9.1 4.1-9.1 9.1 0 5 4.1 9.1 9.1 9.1 5 0 9.1-4.1 9.1-9.1 0-5-4.1-9.1-9.1-9.1z"/>
					</g>
					<g id="&lt;Group&gt;">
						<path id="&lt;Compound Path&gt;" fill-rule="evenodd" class="s1" d="m843 327.7c-7.2 0-13.2-5.9-13.2-13.2 0-7.2 6-13.2 13.2-13.2 7.3 0 13.2 6 13.2 13.2 0 7.3-5.9 13.2-13.2 13.2zm0-22.2c-5 0-9 4-9 9 0 5 4 9.1 9 9.1 5 0 9.1-4.1 9.1-9.1 0-5-4.1-9-9.1-9z"/>
					</g>
					<g id="&lt;Group&gt;">
						<g id="&lt;Group&gt;">
							<g id="&lt;Group&gt;">
								<path id="&lt;Path&gt;" class="s2" d="m859.4 370.7c-1.2 0-2.1-1-2.1-2.1v-9.1c0-1.2 0.9-2.1 2.1-2.1 1.1 0 2 0.9 2 2.1v9.1c0 1.1-0.9 2.1-2 2.1z"/>
							</g>
							<g id="&lt;Group&gt;">
								<path id="&lt;Path&gt;" class="s2" d="m859.4 386.6c-1.2 0-2.1-0.9-2.1-2v-9.2c0-1.1 0.9-2 2.1-2 1.1 0 2 0.9 2 2v9.2c0 1.1-0.9 2-2 2z"/>
							</g>
						</g>
						<g id="&lt;Group&gt;">
							<g id="&lt;Group&gt;">
								<path id="&lt;Path&gt;" class="s2" d="m872.2 374.1h-8.2c-1.2 0-2.1-0.9-2.1-2.1 0-1.1 0.9-2.1 2.1-2.1h8.2c1.1 0 2 1 2 2.1 0 1.2-0.9 2.1-2 2.1z"/>
							</g>
							<g id="&lt;Group&gt;">
								<path id="&lt;Path&gt;" class="s2" d="m854.7 374.1h-8.2c-1.1 0-2-0.9-2-2.1 0-1.1 0.9-2.1 2-2.1h8.2c1.2 0 2.1 1 2.1 2.1 0 1.2-0.9 2.1-2.1 2.1z"/>
							</g>
						</g>
					</g>
					<g id="&lt;Group&gt;">
						<g id="&lt;Group&gt;">
							<g id="&lt;Group&gt;">
								<g id="&lt;Group&gt;">
									<path id="&lt;Path&gt;" class="s3" d="m786.4 319.5c-1.1 0-2-1-2-2.1v-9.1c0-1.2 0.9-2.1 2-2.1 1.2 0 2.1 0.9 2.1 2.1v9.1c0 1.1-0.9 2.1-2.1 2.1z"/>
								</g>
								<g id="&lt;Group&gt;">
									<path id="&lt;Path&gt;" class="s3" d="m786.4 335.5c-1.1 0-2-1-2-2.1v-9.2c0-1.1 0.9-2 2-2 1.2 0 2.1 0.9 2.1 2v9.2c0 1.1-0.9 2.1-2.1 2.1z"/>
								</g>
							</g>
							<g id="&lt;Group&gt;">
								<g id="&lt;Group&gt;">
									<path id="&lt;Path&gt;" class="s3" d="m799.3 322.9h-8.3c-1.1 0-2-0.9-2-2.1 0-1.1 0.9-2 2-2h8.3c1.1 0 2 0.9 2 2 0 1.2-0.9 2.1-2 2.1z"/>
								</g>
								<g id="&lt;Group&gt;">
									<path id="&lt;Path&gt;" class="s3" d="m781.8 322.9h-8.2c-1.1 0-2.1-0.9-2.1-2.1 0-1.1 1-2 2.1-2h8.2c1.2 0 2.1 0.9 2.1 2 0 1.2-0.9 2.1-2.1 2.1z"/>
								</g>
							</g>
						</g>
					</g>
				</g>
			</g>
			<g id="&lt;Group&gt;">
				<g id="&lt;Group&gt;">
					<g id="&lt;Group&gt;">
						<path id="&lt;Compound Path&gt;" fill-rule="evenodd" class="s2" d="m182.6 220.8c0-7.3 5.9-13.2 13.2-13.2 7.3 0 13.2 5.9 13.2 13.2 0 7.3-5.9 13.2-13.2 13.2-7.3 0-13.2-5.9-13.2-13.2zm4.1 0c0 5 4.1 9 9.1 9 5 0 9.1-4 9.1-9 0-5-4.1-9.1-9.1-9.1-5 0-9.1 4.1-9.1 9.1z"/>
					</g>
					<g id="&lt;Group&gt;">
						<path id="&lt;Compound Path&gt;" fill-rule="evenodd" class="s1" d="m129.6 271.1c0-7.3 5.9-13.2 13.2-13.2 7.2 0 13.2 5.9 13.2 13.2 0 7.3-6 13.2-13.2 13.2-7.3 0-13.2-5.9-13.2-13.2zm4.1 0c0 5 4.1 9.1 9.1 9.1 5 0 9-4.1 9-9.1 0-5-4-9-9-9-5 0-9.1 4-9.1 9z"/>
					</g>
					<g id="&lt;Group&gt;">
						<g id="&lt;Group&gt;">
							<g id="&lt;Group&gt;">
								<path id="&lt;Path&gt;" class="s2" d="m102.1 289.6c1.1 0 2.1-0.9 2.1-2v-9.2c0-1.1-1-2-2.1-2-1.1 0-2.1 0.9-2.1 2v9.2c0 1.1 1 2 2.1 2z"/>
							</g>
							<g id="&lt;Group&gt;">
								<path id="&lt;Path&gt;" class="s2" d="m102.1 305.6c1.1 0 2.1-0.9 2.1-2v-9.2c0-1.1-1-2-2.1-2-1.1 0-2.1 0.9-2.1 2v9.2c0 1.1 1 2 2.1 2z"/>
							</g>
						</g>
						<g id="&lt;Group&gt;">
							<g id="&lt;Group&gt;">
								<path id="&lt;Path&gt;" class="s2" d="m89.3 293.1h8.2c1.1 0 2.1-1 2.1-2.1 0-1.1-1-2.1-2.1-2.1h-8.2c-1.2 0-2.1 1-2.1 2.1 0 1.1 0.9 2.1 2.1 2.1z"/>
							</g>
							<g id="&lt;Group&gt;">
								<path id="&lt;Path&gt;" class="s2" d="m106.7 293.1h8.2c1.2 0 2.1-1 2.1-2.1 0-1.1-0.9-2.1-2.1-2.1h-8.2c-1.1 0-2.1 1-2.1 2.1 0 1.1 1 2.1 2.1 2.1z"/>
							</g>
						</g>
					</g>
					<g id="&lt;Group&gt;">
						<g id="&lt;Group&gt;">
							<g id="&lt;Group&gt;">
								<g id="&lt;Group&gt;">
									<path id="&lt;Path&gt;" class="s3" d="m149.8 219.4c1.2 0 2.1-0.9 2.1-2v-9.2c0-1.1-0.9-2.1-2.1-2.1-1.1 0-2 1-2 2.1v9.2c0 1.1 0.9 2 2 2z"/>
								</g>
								<g id="&lt;Group&gt;">
									<path id="&lt;Path&gt;" class="s3" d="m149.8 235.4c1.2 0 2.1-0.9 2.1-2.1v-9.1c0-1.1-0.9-2.1-2.1-2.1-1.1 0-2 1-2 2.1v9.1c0 1.2 0.9 2.1 2 2.1z"/>
								</g>
							</g>
							<g id="&lt;Group&gt;">
								<g id="&lt;Group&gt;">
									<path id="&lt;Path&gt;" class="s3" d="m137 222.8h8.2c1.2 0 2.1-0.9 2.1-2 0-1.2-0.9-2.1-2.1-2.1h-8.2c-1.1 0-2.1 0.9-2.1 2.1 0 1.1 1 2 2.1 2z"/>
								</g>
								<g id="&lt;Group&gt;">
									<path id="&lt;Path&gt;" class="s3" d="m154.4 222.8h8.3c1.1 0 2-0.9 2-2 0-1.2-0.9-2.1-2-2.1h-8.3c-1.1 0-2 0.9-2 2.1 0 1.1 0.9 2 2 2z"/>
								</g>
							</g>
						</g>
					</g>
				</g>
			</g>
			<g id="&lt;Group&gt;">
				<path id="&lt;Path&gt;" class="s1" d="m692.1 234.8v40.2c0 5.3-4.4 9.6-9.7 9.6h-73l-22 7.9c-2.3 0.9-4.5-1.4-3.6-3.6l8.3-21.5v-32.6c0-5.3 4.4-9.6 9.7-9.6h80.6c5.3 0 9.7 4.3 9.7 9.6z"/>
				<g id="&lt;Group&gt;" style="opacity: .5">
					<path id="&lt;Path&gt;" class="s0" d="m676.7 246.2h-67c-1.5 0-2.7-1.2-2.7-2.7 0-1.4 1.2-2.6 2.7-2.6h67c1.4 0 2.6 1.2 2.6 2.6 0 1.5-1.2 2.7-2.6 2.7z"/>
					<path id="&lt;Path&gt;" class="s0" d="m676.7 256.9h-67c-1.5 0-2.7-1.2-2.7-2.7 0-1.4 1.2-2.6 2.7-2.6h67c1.4 0 2.6 1.2 2.6 2.6 0 1.5-1.2 2.7-2.6 2.7z"/>
					<path id="&lt;Path&gt;" class="s0" d="m676.7 267.6h-67c-1.5 0-2.7-1.2-2.7-2.7 0-1.4 1.2-2.6 2.7-2.6h67c1.4 0 2.6 1.2 2.6 2.6 0 1.5-1.2 2.7-2.6 2.7z"/>
				</g>
			</g>
		</g>
		<g id="&lt;Group&gt;">
			<path id="&lt;Path&gt;" class="s3" d="m907.4 838.9v1.4c0 8.3-6.7 15-15 15h-778.8c-8.3 0-15.1-6.7-15.1-15v-1.4c0-8.3 6.8-15 15.1-15h778.8c8.3 0 15 6.7 15 15z"/>
			<path id="&lt;Path&gt;" class="s2" d="m907.4 838.9v0.7h-808.9v-0.7c0-8.3 6.8-15 15.1-15h778.8c8.3 0 15 6.7 15 15z"/>
		</g>
	</g>
</svg>